SplineFontDB: 3.2
FontName: NotoSans-Bold-Plus-Thai
FullName: Noto Sans Bold Plus Thai
FamilyName: Noto Sans
Weight: Bold

StartChar: .notdef
Encoding: 65536 -1 0
Width: 600
Flags: W
LayerCount: 2
Fore
SplineSet
94 0 m 1,0,-1
 94 714 l 1,1,-1
 505 714 l 1,2,-1
 505 0 l 1,3,-1
 94 0 l 1,0,-1
145 51 m 1,4,-1
 454 51 l 1,5,-1
 454 663 l 1,6,-1
 145 663 l 1,7,-1
 145 51 l 1,4,-1
EndSplineSet
EndChar

StartChar: exclam
Encoding: 33 33 4
Width: 286
Flags: W
LayerCount: 2
Fore
SplineSet
203 237 m 1,0,-1
 84 237 l 1,1,-1
 59 714 l 1,2,-1
 228 714 l 1,3,-1
 203 237 l 1,0,-1
57 70 m 0,4,5
 57 116 57 116 82 134.5 c 128,-1,6
 107 153 107 153 143 153 c 0,7,8
 178 153 178 153 203 134.5 c 128,-1,9
 228 116 228 116 228 70 c 0,10,11
 228 26 228 26 203 6.5 c 128,-1,12
 178 -13 178 -13 143 -13 c 0,13,14
 107 -13 107 -13 82 6.5 c 128,-1,15
 57 26 57 26 57 70 c 0,4,5
EndSplineSet
Substitution2: "'smcp' Lowercase to Small Capitals lookup 34 subtable" exclam.sc
Substitution2: "'c2sc' Capitals to Small Capitals lookup 33 subtable" exclam.sc
EndChar

StartChar: quotedbl
Encoding: 34 34 5
Width: 472
Flags: W
LayerCount: 2
Fore
SplineSet
201 714 m 1,0,-1
 181 456 l 1,1,-1
 85 456 l 1,2,-1
 65 714 l 1,3,-1
 201 714 l 1,0,-1
407 714 m 1,4,-1
 387 456 l 1,5,-1
 291 456 l 1,6,-1
 271 714 l 1,7,-1
 407 714 l 1,4,-1
EndSplineSet
EndChar

StartChar: numbersign
Encoding: 35 35 6
Width: 646
Flags: W
LayerCount: 2
Fore
SplineSet
488 412 m 1,0,-1
 465 299 l 1,1,-1
 591 299 l 1,2,-1
 591 198 l 1,3,-1
 446 198 l 1,4,-1
 408 0 l 1,5,-1
 301 0 l 1,6,-1
 339 198 l 1,7,-1
 244 198 l 1,8,-1
 207 0 l 1,9,-1
 102 0 l 1,10,-1
 138 198 l 1,11,-1
 22 198 l 1,12,-1
 22 299 l 1,13,-1
 157 299 l 1,14,-1
 180 412 l 1,15,-1
 57 412 l 1,16,-1
 57 514 l 1,17,-1
 198 514 l 1,18,-1
 236 713 l 1,19,-1
 343 713 l 1,20,-1
 305 514 l 1,21,-1
 402 514 l 1,22,-1
 440 713 l 1,23,-1
 545 713 l 1,24,-1
 507 514 l 1,25,-1
 624 514 l 1,26,-1
 624 412 l 1,27,-1
 488 412 l 1,0,-1
263 299 m 1,28,-1
 359 299 l 1,29,-1
 382 412 l 1,30,-1
 286 412 l 1,31,-1
 263 299 l 1,28,-1
EndSplineSet
EndChar

StartChar: dollar
Encoding: 36 36 7
Width: 572
Flags: W
LayerCount: 2
Fore
SplineSet
253 -58 m 1,0,-1
 253 40 l 1,1,2
 188 42 188 42 137 52.5 c 128,-1,3
 86 63 86 63 44 82 c 1,4,-1
 44 211 l 1,5,6
 85 191 85 191 142.5 174.5 c 128,-1,7
 200 158 200 158 253 155 c 1,8,-1
 253 306 l 1,9,10
 176 336 176 336 129.5 364.5 c 128,-1,11
 83 393 83 393 63 428 c 128,-1,12
 43 463 43 463 43 512 c 0,13,14
 43 587 43 587 101.5 631.5 c 128,-1,15
 160 676 160 676 253 684 c 1,16,-1
 253 759 l 1,17,-1
 320 759 l 1,18,-1
 320 686 l 1,19,20
 431 682 431 682 522 641 c 1,21,-1
 476 527 l 1,22,23
 436 544 436 544 395.5 553 c 128,-1,24
 355 562 355 562 320 565 c 1,25,-1
 320 421 l 1,26,27
 374 401 374 401 423 377.5 c 128,-1,28
 472 354 472 354 502.5 318 c 128,-1,29
 533 282 533 282 533 223 c 0,30,31
 533 150 533 150 480 101 c 128,-1,32
 427 52 427 52 320 42 c 1,33,-1
 320 -58 l 1,34,-1
 253 -58 l 1,0,-1
253 448 m 1,35,-1
 253 563 l 1,36,37
 190 554 190 554 190 512 c 0,38,39
 190 491 190 491 205 477 c 128,-1,40
 220 463 220 463 253 448 c 1,35,-1
320 158 m 1,41,42
 386 170 386 170 386 216 c 0,43,44
 386 236 386 236 369.5 250.5 c 128,-1,45
 353 265 353 265 320 280 c 1,46,-1
 320 158 l 1,41,42
EndSplineSet
EndChar

StartChar: percent
Encoding: 37 37 8
Width: 901
Flags: W
LayerCount: 2
Fore
SplineSet
199 724 m 0,0,1
 283 724 283 724 326.5 665.5 c 128,-1,2
 370 607 370 607 370 501 c 256,3,4
 370 395 370 395 329 335.5 c 128,-1,5
 288 276 288 276 199 276 c 0,6,7
 116 276 116 276 73.5 335.5 c 128,-1,8
 31 395 31 395 31 501 c 256,9,10
 31 607 31 607 71 665.5 c 128,-1,11
 111 724 111 724 199 724 c 0,0,1
706 714 m 1,12,-1
 310 0 l 1,13,-1
 193 0 l 1,14,-1
 589 714 l 1,15,-1
 706 714 l 1,12,-1
200 622 m 0,16,17
 154 622 154 622 154 500 c 0,18,19
 154 377 154 377 200 377 c 0,20,21
 247 377 247 377 247 500 c 0,22,23
 247 622 247 622 200 622 c 0,16,17
699 439 m 0,24,25
 783 439 783 439 826.5 380.5 c 128,-1,26
 870 322 870 322 870 216 c 256,27,28
 870 110 870 110 829 50.5 c 128,-1,29
 788 -9 788 -9 699 -9 c 0,30,31
 616 -9 616 -9 573.5 50.5 c 128,-1,32
 531 110 531 110 531 216 c 256,33,34
 531 322 531 322 571 380.5 c 128,-1,35
 611 439 611 439 699 439 c 0,24,25
700 337 m 0,36,37
 654 337 654 337 654 215 c 0,38,39
 654 92 654 92 700 92 c 0,40,41
 747 92 747 92 747 215 c 0,42,43
 747 337 747 337 700 337 c 0,36,37
EndSplineSet
EndChar

StartChar: ampersand
Encoding: 38 38 9
Width: 750
Flags: W
LayerCount: 2
Fore
SplineSet
310 724 m 0,0,1
 368 724 368 724 413 706 c 128,-1,2
 458 688 458 688 484 653 c 128,-1,3
 510 618 510 618 510 569 c 0,4,5
 510 500 510 500 469 453 c 128,-1,6
 428 406 428 406 367 371 c 1,7,-1
 506 236 l 1,8,9
 526 270 526 270 541 307.5 c 128,-1,10
 556 345 556 345 566 383 c 1,11,-1
 721 383 l 1,12,13
 706 327 706 327 677 263 c 128,-1,14
 648 199 648 199 603 143 c 1,15,-1
 750 0 l 1,16,-1
 566 0 l 1,17,-1
 510 55 l 1,18,19
 466 25 466 25 413.5 7.5 c 128,-1,20
 361 -10 361 -10 299 -10 c 0,21,22
 177 -10 177 -10 108.5 46 c 128,-1,23
 40 102 40 102 40 193 c 0,24,25
 40 269 40 269 75 314.5 c 128,-1,26
 110 360 110 360 171 395 c 1,27,28
 132 440 132 440 116.5 478 c 128,-1,29
 101 516 101 516 101 559 c 0,30,31
 101 610 101 610 127.5 647 c 128,-1,32
 154 684 154 684 201 704 c 128,-1,33
 248 724 248 724 310 724 c 0,0,1
309 609 m 0,34,35
 284 609 284 609 261.5 596.5 c 128,-1,36
 239 584 239 584 239 549 c 0,37,38
 239 524 239 524 251.5 501 c 128,-1,39
 264 478 264 478 285 454 c 1,40,41
 327 477 327 477 349.5 500 c 128,-1,42
 372 523 372 523 372 553 c 256,43,44
 372 583 372 583 352 596 c 128,-1,45
 332 609 332 609 309 609 c 0,34,35
258 306 m 1,46,47
 230 285 230 285 213.5 261.5 c 128,-1,48
 197 238 197 238 197 207 c 0,49,50
 197 164 197 164 229 139.5 c 128,-1,51
 261 115 261 115 309 115 c 0,52,53
 341 115 341 115 369 123 c 128,-1,54
 397 131 397 131 420 145 c 1,55,-1
 258 306 l 1,46,47
EndSplineSet
Substitution2: "'smcp' Lowercase to Small Capitals lookup 34 subtable" ampersand.sc
Substitution2: "'c2sc' Capitals to Small Capitals lookup 33 subtable" ampersand.sc
EndChar

StartChar: quotesingle
Encoding: 39 39 10
Width: 266
Flags: W
LayerCount: 2
Fore
SplineSet
201 714 m 1,0,-1
 181 456 l 1,1,-1
 85 456 l 1,2,-1
 65 714 l 1,3,-1
 201 714 l 1,0,-1
EndSplineSet
EndChar

StartChar: parenleft
Encoding: 40 40 11
Width: 339
Flags: W
LayerCount: 2
Fore
SplineSet
40 274 m 0,0,1
 40 396 40 396 75.5 509.5 c 128,-1,2
 111 623 111 623 187 714 c 1,3,-1
 309 714 l 1,4,5
 241 620 241 620 205.5 507 c 128,-1,6
 170 394 170 394 170 275 c 0,7,8
 170 159 170 159 205 46.5 c 128,-1,9
 240 -66 240 -66 308 -158 c 1,10,-1
 187 -158 l 1,11,12
 111 -70 111 -70 75.5 41.5 c 128,-1,13
 40 153 40 153 40 274 c 0,0,1
EndSplineSet
Substitution2: "'smcp' Lowercase to Small Capitals lookup 34 subtable" parenleft.sc
Substitution2: "'c2sc' Capitals to Small Capitals lookup 33 subtable" parenleft.sc
Substitution2: "'sups' Superscript lookup 19 subtable" uni207D
Substitution2: "'subs' Subscript lookup 18 subtable" uni208D
EndChar

StartChar: parenright
Encoding: 41 41 12
Width: 339
Flags: W
LayerCount: 2
Fore
SplineSet
299 274 m 0,0,1
 299 153 299 153 263.5 41.5 c 128,-1,2
 228 -70 228 -70 152 -158 c 1,3,-1
 31 -158 l 1,4,5
 98 -66 98 -66 133.5 46.5 c 128,-1,6
 169 159 169 159 169 275 c 0,7,8
 169 394 169 394 133.5 507 c 128,-1,9
 98 620 98 620 30 714 c 1,10,-1
 152 714 l 1,11,12
 228 623 228 623 263.5 509.5 c 128,-1,13
 299 396 299 396 299 274 c 0,0,1
EndSplineSet
Substitution2: "'smcp' Lowercase to Small Capitals lookup 34 subtable" parenright.sc
Substitution2: "'c2sc' Capitals to Small Capitals lookup 33 subtable" parenright.sc
Substitution2: "'sups' Superscript lookup 19 subtable" uni207E
Substitution2: "'subs' Subscript lookup 18 subtable" uni208E
EndChar

StartChar: asterisk
Encoding: 42 42 13
Width: 545
Flags: W
LayerCount: 2
Fore
SplineSet
336 760 m 1,0,-1
 316 580 l 1,1,-1
 498 631 l 1,2,-1
 514 508 l 1,3,-1
 348 496 l 1,4,-1
 457 351 l 1,5,-1
 346 292 l 1,6,-1
 270 445 l 1,7,-1
 203 293 l 1,8,-1
 88 351 l 1,9,-1
 196 496 l 1,10,-1
 31 509 l 1,11,-1
 50 631 l 1,12,-1
 228 580 l 1,13,-1
 208 760 l 1,14,-1
 336 760 l 1,0,-1
EndSplineSet
EndChar

StartChar: plus
Encoding: 43 43 14
Width: 572
Flags: W
LayerCount: 2
Fore
SplineSet
339 406 m 1,0,-1
 528 406 l 1,1,-1
 528 299 l 1,2,-1
 339 299 l 1,3,-1
 339 111 l 1,4,-1
 232 111 l 1,5,-1
 232 299 l 1,6,-1
 43 299 l 1,7,-1
 43 406 l 1,8,-1
 232 406 l 1,9,-1
 232 596 l 1,10,-1
 339 596 l 1,11,-1
 339 406 l 1,0,-1
EndSplineSet
Substitution2: "'sups' Superscript lookup 19 subtable" uni207A
Substitution2: "'subs' Subscript lookup 18 subtable" uni208A
EndChar

StartChar: comma
Encoding: 44 44 15
Width: 285
Flags: W
LayerCount: 2
Fore
SplineSet
217 116 m 1,0,-1
 224 105 l 1,1,2
 210 52 210 52 186.5 -11 c 128,-1,3
 163 -74 163 -74 138 -129 c 1,4,-1
 31 -129 l 1,5,6
 45 -70 45 -70 58.5 -3 c 128,-1,7
 72 64 72 64 80 116 c 1,8,-1
 217 116 l 1,0,-1
EndSplineSet
EndChar

StartChar: hyphen
Encoding: 45 45 16
Width: 322
Flags: W
LayerCount: 2
Fore
SplineSet
30 207 m 1,0,-1
 30 329 l 1,1,-1
 292 329 l 1,2,-1
 292 207 l 1,3,-1
 30 207 l 1,0,-1
EndSplineSet
EndChar

StartChar: period
Encoding: 46 46 17
Width: 285
Flags: W
LayerCount: 2
Fore
SplineSet
57 70 m 0,0,1
 57 116 57 116 82 134.5 c 128,-1,2
 107 153 107 153 143 153 c 0,3,4
 178 153 178 153 203 134.5 c 128,-1,5
 228 116 228 116 228 70 c 0,6,7
 228 26 228 26 203 6.5 c 128,-1,8
 178 -13 178 -13 143 -13 c 0,9,10
 107 -13 107 -13 82 6.5 c 128,-1,11
 57 26 57 26 57 70 c 0,0,1
EndSplineSet
EndChar

StartChar: slash
Encoding: 47 47 18
Width: 413
Flags: W
LayerCount: 2
Fore
SplineSet
408 714 m 1,0,-1
 142 0 l 1,1,-1
 7 0 l 1,2,-1
 273 714 l 1,3,-1
 408 714 l 1,0,-1
EndSplineSet
Substitution2: "'frac' Diagonal Fractions lookup 22 subtable" fraction
EndChar

StartChar: zero
Encoding: 48 48 19
Width: 572
Flags: W
LayerCount: 2
Fore
SplineSet
535 357 m 0,0,1
 535 242 535 242 510.5 160 c 128,-1,2
 486 78 486 78 431 34 c 128,-1,3
 376 -10 376 -10 285 -10 c 0,4,5
 156 -10 156 -10 96 87 c 128,-1,6
 36 184 36 184 36 357 c 0,7,8
 36 472 36 472 60 554.5 c 128,-1,9
 84 637 84 637 139 681 c 128,-1,10
 194 725 194 725 285 725 c 0,11,12
 413 725 413 725 474 628 c 128,-1,13
 535 531 535 531 535 357 c 0,0,1
186 357 m 256,14,15
 186 235 186 235 207 173.5 c 128,-1,16
 228 112 228 112 285 112 c 0,17,18
 341 112 341 112 363 173 c 128,-1,19
 385 234 385 234 385 357 c 0,20,21
 385 479 385 479 363 541 c 128,-1,22
 341 603 341 603 285 603 c 0,23,24
 228 603 228 603 207 541 c 128,-1,25
 186 479 186 479 186 357 c 256,14,15
EndSplineSet
Substitution2: "'zero' Slashed Zero lookup 37 subtable" zero.slash
Substitution2: "'case' Case-Sensitive Forms lookup 35 subtable" zero.lf
Substitution2: "'onum' Oldstyle Figures lookup 32 subtable" zero.tosf
Substitution2: "'pnum' Proportional Numbers lookup 30 subtable" zero.lf
Substitution2: "'frac' Diagonal Fractions lookup 23 subtable" zero.numr
Substitution2: "'dnom' Denominators lookup 21 subtable" zero.dnom
Substitution2: "'numr' Numerators lookup 20 subtable" zero.numr
Substitution2: "'sups' Superscript lookup 19 subtable" uni2070
Substitution2: "'subs' Subscript lookup 18 subtable" uni2080
EndChar

StartChar: one
Encoding: 49 49 20
Width: 572
Flags: W
LayerCount: 2
Fore
SplineSet
413 0 m 1,0,-1
 262 0 l 1,1,-1
 262 413 l 2,2,3
 262 438 262 438 263 480.5 c 128,-1,4
 264 523 264 523 266 555 c 1,5,6
 261 549 261 549 244.5 533.5 c 128,-1,7
 228 518 228 518 214 506 c 2,8,-1
 132 440 l 1,9,-1
 59 531 l 1,10,-1
 289 714 l 1,11,-1
 413 714 l 1,12,-1
 413 0 l 1,0,-1
EndSplineSet
Substitution2: "'case' Case-Sensitive Forms lookup 35 subtable" one.lf
Substitution2: "'onum' Oldstyle Figures lookup 32 subtable" one.tosf
Substitution2: "'pnum' Proportional Numbers lookup 30 subtable" one.lf
Substitution2: "'frac' Diagonal Fractions lookup 23 subtable" one.numr
Substitution2: "'dnom' Denominators lookup 21 subtable" one.dnom
Substitution2: "'numr' Numerators lookup 20 subtable" one.numr
Substitution2: "'sups' Superscript lookup 19 subtable" uni00B9
Substitution2: "'subs' Subscript lookup 18 subtable" uni2081
EndChar

StartChar: two
Encoding: 50 50 21
Width: 572
Flags: W
LayerCount: 2
Fore
SplineSet
539 0 m 1,0,-1
 40 0 l 1,1,-1
 40 105 l 1,2,-1
 219 286 l 2,3,4
 273 342 273 342 306 379.5 c 128,-1,5
 339 417 339 417 354 447.5 c 128,-1,6
 369 478 369 478 369 513 c 0,7,8
 369 556 369 556 345.5 577 c 128,-1,9
 322 598 322 598 282 598 c 0,10,11
 241 598 241 598 202 579 c 128,-1,12
 163 560 163 560 120 525 c 1,13,-1
 38 622 l 1,14,15
 68 648 68 648 103 671.5 c 128,-1,16
 138 695 138 695 183.5 709.5 c 128,-1,17
 229 724 229 724 293 724 c 0,18,19
 363 724 363 724 413.5 698.5 c 128,-1,20
 464 673 464 673 491.5 629.5 c 128,-1,21
 519 586 519 586 519 531 c 0,22,23
 519 472 519 472 495.5 423 c 128,-1,24
 472 374 472 374 427.5 326 c 128,-1,25
 383 278 383 278 320 220 c 2,26,-1
 228 134 l 1,27,-1
 228 127 l 1,28,-1
 539 127 l 1,29,-1
 539 0 l 1,0,-1
EndSplineSet
Substitution2: "'case' Case-Sensitive Forms lookup 35 subtable" two.lf
Substitution2: "'onum' Oldstyle Figures lookup 32 subtable" two.tosf
Substitution2: "'pnum' Proportional Numbers lookup 30 subtable" two.lf
Substitution2: "'frac' Diagonal Fractions lookup 23 subtable" two.numr
Substitution2: "'dnom' Denominators lookup 21 subtable" two.dnom
Substitution2: "'numr' Numerators lookup 20 subtable" two.numr
Substitution2: "'sups' Superscript lookup 19 subtable" uni00B2
Substitution2: "'subs' Subscript lookup 18 subtable" uni2082
EndChar

StartChar: three
Encoding: 51 51 22
Width: 572
Flags: W
LayerCount: 2
Fore
SplineSet
511 554 m 0,0,1
 511 480 511 480 466.5 436 c 128,-1,2
 422 392 422 392 357 376 c 1,3,-1
 357 373 l 1,4,5
 442 362 442 362 487 320 c 128,-1,6
 532 278 532 278 532 208 c 0,7,8
 532 146 532 146 501.5 96.5 c 128,-1,9
 471 47 471 47 407.5 18.5 c 128,-1,10
 344 -10 344 -10 244 -10 c 0,11,12
 128 -10 128 -10 38 29 c 1,13,-1
 38 157 l 1,14,15
 84 134 84 134 134 122 c 128,-1,16
 184 110 184 110 228 110 c 0,17,18
 309 110 309 110 341.5 138 c 128,-1,19
 374 166 374 166 374 217 c 0,20,21
 374 246 374 246 359 267 c 128,-1,22
 344 288 344 288 306.5 298.5 c 128,-1,23
 269 309 269 309 202 309 c 2,24,-1
 148 309 l 1,25,-1
 148 425 l 1,26,-1
 203 425 l 2,27,28
 269 425 269 425 303.5 437.5 c 128,-1,29
 338 450 338 450 350.5 471.5 c 128,-1,30
 363 493 363 493 363 521 c 0,31,32
 363 559 363 559 339.5 580.5 c 128,-1,33
 316 602 316 602 261 602 c 0,34,35
 210 602 210 602 172 584 c 128,-1,36
 134 566 134 566 109 550 c 1,37,-1
 39 654 l 1,38,39
 81 684 81 684 137.5 704 c 128,-1,40
 194 724 194 724 272 724 c 0,41,42
 382 724 382 724 446.5 679.5 c 128,-1,43
 511 635 511 635 511 554 c 0,0,1
EndSplineSet
Substitution2: "'case' Case-Sensitive Forms lookup 35 subtable" three.lf
Substitution2: "'onum' Oldstyle Figures lookup 32 subtable" three.tosf
Substitution2: "'pnum' Proportional Numbers lookup 30 subtable" three.lf
Substitution2: "'frac' Diagonal Fractions lookup 23 subtable" three.numr
Substitution2: "'dnom' Denominators lookup 21 subtable" three.dnom
Substitution2: "'numr' Numerators lookup 20 subtable" three.numr
Substitution2: "'sups' Superscript lookup 19 subtable" uni00B3
Substitution2: "'subs' Subscript lookup 18 subtable" uni2083
EndChar

StartChar: four
Encoding: 52 52 23
Width: 572
Flags: W
LayerCount: 2
Fore
SplineSet
555 148 m 1,0,-1
 469 148 l 1,1,-1
 469 0 l 1,2,-1
 322 0 l 1,3,-1
 322 148 l 1,4,-1
 17 148 l 1,5,-1
 17 253 l 1,6,-1
 330 714 l 1,7,-1
 469 714 l 1,8,-1
 469 265 l 1,9,-1
 555 265 l 1,10,-1
 555 148 l 1,0,-1
322 265 m 1,11,-1
 322 386 l 2,12,13
 322 409 322 409 323 442 c 128,-1,14
 324 475 324 475 325.5 503.5 c 128,-1,15
 327 532 327 532 328 541 c 1,16,-1
 324 541 l 1,17,18
 315 521 315 521 304.5 502 c 128,-1,19
 294 483 294 483 281 463 c 2,20,-1
 150 265 l 1,21,-1
 322 265 l 1,11,-1
EndSplineSet
Substitution2: "'case' Case-Sensitive Forms lookup 35 subtable" four.lf
Substitution2: "'onum' Oldstyle Figures lookup 32 subtable" four.tosf
Substitution2: "'pnum' Proportional Numbers lookup 30 subtable" four.lf
Substitution2: "'frac' Diagonal Fractions lookup 23 subtable" four.numr
Substitution2: "'dnom' Denominators lookup 21 subtable" four.dnom
Substitution2: "'numr' Numerators lookup 20 subtable" four.numr
Substitution2: "'sups' Superscript lookup 19 subtable" uni2074
Substitution2: "'subs' Subscript lookup 18 subtable" uni2084
EndChar

StartChar: five
Encoding: 53 53 24
Width: 572
Flags: W
LayerCount: 2
Fore
SplineSet
300 456 m 0,0,1
 365 456 365 456 416 431 c 128,-1,2
 467 406 467 406 496.5 358 c 128,-1,3
 526 310 526 310 526 239 c 0,4,5
 526 123 526 123 454 56.5 c 128,-1,6
 382 -10 382 -10 241 -10 c 0,7,8
 185 -10 185 -10 135.5 0 c 128,-1,9
 86 10 86 10 49 29 c 1,10,-1
 49 159 l 1,11,12
 86 140 86 140 138 126.5 c 128,-1,13
 190 113 190 113 236 113 c 0,14,15
 303 113 303 113 338.5 140.5 c 128,-1,16
 374 168 374 168 374 226 c 0,17,18
 374 334 374 334 231 334 c 0,19,20
 203 334 203 334 173 328.5 c 128,-1,21
 143 323 143 323 123 318 c 1,22,-1
 63 350 l 1,23,-1
 90 714 l 1,24,-1
 477 714 l 1,25,-1
 477 586 l 1,26,-1
 222 586 l 1,27,-1
 209 446 l 1,28,29
 226 449 226 449 245.5 452.5 c 128,-1,30
 265 456 265 456 300 456 c 0,0,1
EndSplineSet
Substitution2: "'case' Case-Sensitive Forms lookup 35 subtable" five.lf
Substitution2: "'onum' Oldstyle Figures lookup 32 subtable" five.tosf
Substitution2: "'pnum' Proportional Numbers lookup 30 subtable" five.lf
Substitution2: "'frac' Diagonal Fractions lookup 23 subtable" five.numr
Substitution2: "'dnom' Denominators lookup 21 subtable" five.dnom
Substitution2: "'numr' Numerators lookup 20 subtable" five.numr
Substitution2: "'sups' Superscript lookup 19 subtable" uni2075
Substitution2: "'subs' Subscript lookup 18 subtable" uni2085
EndChar

StartChar: six
Encoding: 54 54 25
Width: 572
Flags: W
LayerCount: 2
Fore
SplineSet
35 303 m 0,0,1
 35 364 35 364 44 424.5 c 128,-1,2
 53 485 53 485 75.5 538.5 c 128,-1,3
 98 592 98 592 138.5 633.5 c 128,-1,4
 179 675 179 675 241.5 698.5 c 128,-1,5
 304 722 304 722 393 722 c 0,6,7
 414 722 414 722 442 720.5 c 128,-1,8
 470 719 470 719 489 715 c 1,9,-1
 489 594 l 1,10,11
 470 598 470 598 447.5 601 c 128,-1,12
 425 604 425 604 403 604 c 0,13,14
 314 604 314 604 265.5 576 c 128,-1,15
 217 548 217 548 197 497.5 c 128,-1,16
 177 447 177 447 174 381 c 1,17,-1
 180 381 l 1,18,19
 200 416 200 416 237.5 440 c 128,-1,20
 275 464 275 464 335 464 c 0,21,22
 429 464 429 464 484 405 c 128,-1,23
 539 346 539 346 539 238 c 0,24,25
 539 122 539 122 473.5 56 c 128,-1,26
 408 -10 408 -10 296 -10 c 0,27,28
 223 -10 223 -10 164 23.5 c 128,-1,29
 105 57 105 57 70 126.5 c 128,-1,30
 35 196 35 196 35 303 c 0,0,1
293 111 m 0,31,32
 337 111 337 111 365 141.5 c 128,-1,33
 393 172 393 172 393 236 c 0,34,35
 393 288 393 288 369 318 c 128,-1,36
 345 348 345 348 296 348 c 0,37,38
 262 348 262 348 237.5 333 c 128,-1,39
 213 318 213 318 199 295.5 c 128,-1,40
 185 273 185 273 185 249 c 0,41,42
 185 216 185 216 197 184 c 128,-1,43
 209 152 209 152 233.5 131.5 c 128,-1,44
 258 111 258 111 293 111 c 0,31,32
EndSplineSet
Substitution2: "'case' Case-Sensitive Forms lookup 35 subtable" six.lf
Substitution2: "'onum' Oldstyle Figures lookup 32 subtable" six.tosf
Substitution2: "'pnum' Proportional Numbers lookup 30 subtable" six.lf
Substitution2: "'frac' Diagonal Fractions lookup 23 subtable" six.numr
Substitution2: "'dnom' Denominators lookup 21 subtable" six.dnom
Substitution2: "'numr' Numerators lookup 20 subtable" six.numr
Substitution2: "'sups' Superscript lookup 19 subtable" uni2076
Substitution2: "'subs' Subscript lookup 18 subtable" uni2086
EndChar

StartChar: seven
Encoding: 55 55 26
Width: 572
Flags: W
LayerCount: 2
Fore
SplineSet
111 0 m 1,0,-1
 379 587 l 1,1,-1
 27 587 l 1,2,-1
 27 714 l 1,3,-1
 539 714 l 1,4,-1
 539 619 l 1,5,-1
 269 0 l 1,6,-1
 111 0 l 1,0,-1
EndSplineSet
Substitution2: "'case' Case-Sensitive Forms lookup 35 subtable" seven.lf
Substitution2: "'onum' Oldstyle Figures lookup 32 subtable" seven.tosf
Substitution2: "'pnum' Proportional Numbers lookup 30 subtable" seven.lf
Substitution2: "'frac' Diagonal Fractions lookup 23 subtable" seven.numr
Substitution2: "'dnom' Denominators lookup 21 subtable" seven.dnom
Substitution2: "'numr' Numerators lookup 20 subtable" seven.numr
Substitution2: "'sups' Superscript lookup 19 subtable" uni2077
Substitution2: "'subs' Subscript lookup 18 subtable" uni2087
EndChar

StartChar: eight
Encoding: 56 56 27
Width: 572
Flags: W
LayerCount: 2
Fore
SplineSet
286 723 m 0,0,1
 348 723 348 723 399.5 704 c 128,-1,2
 451 685 451 685 482.5 646.5 c 128,-1,3
 514 608 514 608 514 551 c 0,4,5
 514 486 514 486 477.5 445 c 128,-1,6
 441 404 441 404 386 377 c 1,7,8
 424 357 424 357 458.5 330.5 c 128,-1,9
 493 304 493 304 514.5 268 c 128,-1,10
 536 232 536 232 536 185 c 0,11,12
 536 126 536 126 504.5 82 c 128,-1,13
 473 38 473 38 416.5 14 c 128,-1,14
 360 -10 360 -10 286 -10 c 0,15,16
 166 -10 166 -10 100.5 41 c 128,-1,17
 35 92 35 92 35 181 c 0,18,19
 35 254 35 254 75 299.5 c 128,-1,20
 115 345 115 345 172 373 c 1,21,22
 124 403 124 403 90.5 445.5 c 128,-1,23
 57 488 57 488 57 552 c 0,24,25
 57 608 57 608 89 646.5 c 128,-1,26
 121 685 121 685 173.5 704 c 128,-1,27
 226 723 226 723 286 723 c 0,0,1
285 613 m 256,28,29
 248 613 248 613 223.5 593.5 c 128,-1,30
 199 574 199 574 199 540 c 0,31,32
 199 503 199 503 225 480 c 128,-1,33
 251 457 251 457 286 440 c 1,34,35
 320 456 320 456 346 478.5 c 128,-1,36
 372 501 372 501 372 540 c 0,37,38
 372 574 372 574 347 593.5 c 128,-1,39
 322 613 322 613 285 613 c 256,28,29
175 190 m 0,40,41
 175 151 175 151 202.5 126 c 128,-1,42
 230 101 230 101 284 101 c 0,43,44
 340 101 340 101 368 125 c 128,-1,45
 396 149 396 149 396 189 c 0,46,47
 396 216 396 216 380 236.5 c 128,-1,48
 364 257 364 257 340 273.5 c 128,-1,49
 316 290 316 290 292 304 c 2,50,-1
 279 311 l 1,51,52
 232 289 232 289 203.5 260 c 128,-1,53
 175 231 175 231 175 190 c 0,40,41
EndSplineSet
Substitution2: "'case' Case-Sensitive Forms lookup 35 subtable" eight.lf
Substitution2: "'onum' Oldstyle Figures lookup 32 subtable" eight.tosf
Substitution2: "'pnum' Proportional Numbers lookup 30 subtable" eight.lf
Substitution2: "'frac' Diagonal Fractions lookup 23 subtable" eight.numr
Substitution2: "'dnom' Denominators lookup 21 subtable" eight.dnom
Substitution2: "'numr' Numerators lookup 20 subtable" eight.numr
Substitution2: "'sups' Superscript lookup 19 subtable" uni2078
Substitution2: "'subs' Subscript lookup 18 subtable" uni2088
EndChar

StartChar: nine
Encoding: 57 57 28
Width: 572
Flags: W
LayerCount: 2
Fore
SplineSet
536 409 m 0,0,1
 536 348 536 348 527 287.5 c 128,-1,2
 518 227 518 227 495.5 173.5 c 128,-1,3
 473 120 473 120 432.5 78.5 c 128,-1,4
 392 37 392 37 329.5 13.5 c 128,-1,5
 267 -10 267 -10 178 -10 c 0,6,7
 157 -10 157 -10 129 -8.5 c 128,-1,8
 101 -7 101 -7 82 -3 c 1,9,-1
 82 118 l 1,10,11
 102 114 102 114 124 111 c 128,-1,12
 146 108 146 108 168 108 c 0,13,14
 257 108 257 108 305.5 136 c 128,-1,15
 354 164 354 164 374 214.5 c 128,-1,16
 394 265 394 265 397 331 c 1,17,-1
 391 331 l 1,18,19
 370 296 370 296 335.5 272 c 128,-1,20
 301 248 301 248 233 248 c 0,21,22
 142 248 142 248 87 307 c 128,-1,23
 32 366 32 366 32 474 c 0,24,25
 32 590 32 590 97.5 656 c 128,-1,26
 163 722 163 722 275 722 c 0,27,28
 348 722 348 722 407 688.5 c 128,-1,29
 466 655 466 655 501 585.5 c 128,-1,30
 536 516 536 516 536 409 c 0,0,1
278 601 m 0,31,32
 234 601 234 601 206 570.5 c 128,-1,33
 178 540 178 540 178 476 c 0,34,35
 178 424 178 424 202 394 c 128,-1,36
 226 364 226 364 275 364 c 0,37,38
 308 364 308 364 333 379 c 128,-1,39
 358 394 358 394 372 416.5 c 128,-1,40
 386 439 386 439 386 463 c 0,41,42
 386 496 386 496 374 528 c 128,-1,43
 362 560 362 560 338 580.5 c 128,-1,44
 314 601 314 601 278 601 c 0,31,32
EndSplineSet
Substitution2: "'case' Case-Sensitive Forms lookup 35 subtable" nine.lf
Substitution2: "'onum' Oldstyle Figures lookup 32 subtable" nine.tosf
Substitution2: "'pnum' Proportional Numbers lookup 30 subtable" nine.lf
Substitution2: "'frac' Diagonal Fractions lookup 23 subtable" nine.numr
Substitution2: "'dnom' Denominators lookup 21 subtable" nine.dnom
Substitution2: "'numr' Numerators lookup 20 subtable" nine.numr
Substitution2: "'sups' Superscript lookup 19 subtable" uni2079
Substitution2: "'subs' Subscript lookup 18 subtable" uni2089
EndChar

StartChar: colon
Encoding: 58 58 29
Width: 285
Flags: W
LayerCount: 2
Fore
SplineSet
57 473 m 0,0,1
 57 519 57 519 82 537.5 c 128,-1,2
 107 556 107 556 143 556 c 0,3,4
 178 556 178 556 203 537.5 c 128,-1,5
 228 519 228 519 228 473 c 0,6,7
 228 429 228 429 203 409.5 c 128,-1,8
 178 390 178 390 143 390 c 0,9,10
 107 390 107 390 82 409.5 c 128,-1,11
 57 429 57 429 57 473 c 0,0,1
57 70 m 0,12,13
 57 116 57 116 82 134.5 c 128,-1,14
 107 153 107 153 143 153 c 0,15,16
 178 153 178 153 203 134.5 c 128,-1,17
 228 116 228 116 228 70 c 0,18,19
 228 26 228 26 203 6.5 c 128,-1,20
 178 -13 178 -13 143 -13 c 0,21,22
 107 -13 107 -13 82 6.5 c 128,-1,23
 57 26 57 26 57 70 c 0,12,13
EndSplineSet
EndChar

StartChar: semicolon
Encoding: 59 59 30
Width: 285
Flags: W
LayerCount: 2
Fore
SplineSet
57 473 m 0,0,1
 57 519 57 519 82 537.5 c 128,-1,2
 107 556 107 556 143 556 c 0,3,4
 178 556 178 556 203 537.5 c 128,-1,5
 228 519 228 519 228 473 c 0,6,7
 228 429 228 429 203 409.5 c 128,-1,8
 178 390 178 390 143 390 c 0,9,10
 107 390 107 390 82 409.5 c 128,-1,11
 57 429 57 429 57 473 c 0,0,1
217 116 m 1,12,-1
 224 105 l 1,13,14
 210 52 210 52 186.5 -11 c 128,-1,15
 163 -74 163 -74 138 -129 c 1,16,-1
 31 -129 l 1,17,18
 45 -70 45 -70 58.5 -3 c 128,-1,19
 72 64 72 64 80 116 c 1,20,-1
 217 116 l 1,12,-1
EndSplineSet
EndChar

StartChar: less
Encoding: 60 60 31
Width: 572
Flags: W
LayerCount: 2
Fore
SplineSet
528 99 m 1,0,-1
 43 313 l 1,1,-1
 43 383 l 1,2,-1
 528 625 l 1,3,-1
 528 508 l 1,4,-1
 194 353 l 1,5,-1
 528 216 l 1,6,-1
 528 99 l 1,0,-1
EndSplineSet
EndChar

StartChar: equal
Encoding: 61 61 32
Width: 572
Flags: W
LayerCount: 2
Fore
SplineSet
43 394 m 1,0,-1
 43 500 l 1,1,-1
 528 500 l 1,2,-1
 528 394 l 1,3,-1
 43 394 l 1,0,-1
43 204 m 1,4,-1
 43 311 l 1,5,-1
 528 311 l 1,6,-1
 528 204 l 1,7,-1
 43 204 l 1,4,-1
EndSplineSet
Substitution2: "'sups' Superscript lookup 19 subtable" uni207C
Substitution2: "'subs' Subscript lookup 18 subtable" uni208C
EndChar

StartChar: greater
Encoding: 62 62 33
Width: 572
Flags: W
LayerCount: 2
Fore
SplineSet
43 216 m 1,0,-1
 377 353 l 1,1,-1
 43 508 l 1,2,-1
 43 625 l 1,3,-1
 528 383 l 1,4,-1
 528 313 l 1,5,-1
 43 99 l 1,6,-1
 43 216 l 1,0,-1
EndSplineSet
EndChar

StartChar: question
Encoding: 63 63 34
Width: 477
Flags: W
LayerCount: 2
Fore
SplineSet
135 237 m 1,0,-1
 135 273 l 2,1,2
 135 322 135 322 156 356.5 c 128,-1,3
 177 391 177 391 228 428 c 0,4,5
 273 460 273 460 292.5 483.5 c 128,-1,6
 312 507 312 507 312 539 c 0,7,8
 312 570 312 570 288.5 587 c 128,-1,9
 265 604 265 604 223 604 c 256,10,11
 181 604 181 604 140 591 c 128,-1,12
 99 578 99 578 56 556 c 1,13,-1
 3 663 l 1,14,15
 52 690 52 690 109 707 c 128,-1,16
 166 724 166 724 234 724 c 0,17,18
 338 724 338 724 395.5 674 c 128,-1,19
 453 624 453 624 453 547 c 0,20,21
 453 506 453 506 440 476 c 128,-1,22
 427 446 427 446 401 420 c 128,-1,23
 375 394 375 394 336 366 c 0,24,25
 306 344 306 344 290.5 329.5 c 128,-1,26
 275 315 275 315 269.5 300.5 c 128,-1,27
 264 286 264 286 264 266 c 2,28,-1
 264 237 l 1,29,-1
 135 237 l 1,0,-1
119 70 m 0,30,31
 119 116 119 116 144 134.5 c 128,-1,32
 169 153 169 153 205 153 c 0,33,34
 240 153 240 153 265 134.5 c 128,-1,35
 290 116 290 116 290 70 c 0,36,37
 290 26 290 26 265 6.5 c 128,-1,38
 240 -13 240 -13 205 -13 c 0,39,40
 169 -13 169 -13 144 6.5 c 128,-1,41
 119 26 119 26 119 70 c 0,30,31
EndSplineSet
Substitution2: "'smcp' Lowercase to Small Capitals lookup 34 subtable" question.sc
Substitution2: "'c2sc' Capitals to Small Capitals lookup 33 subtable" question.sc
EndChar

StartChar: at
Encoding: 64 64 35
Width: 897
Flags: W
LayerCount: 2
Fore
SplineSet
847 358 m 0,0,1
 847 312 847 312 836 267 c 128,-1,2
 825 222 825 222 802.5 185 c 128,-1,3
 780 148 780 148 746 126.5 c 128,-1,4
 712 105 712 105 666 105 c 0,5,6
 629 105 629 105 601 122.5 c 128,-1,7
 573 140 573 140 562 168 c 1,8,-1
 554 168 l 1,9,10
 534 143 534 143 500.5 124 c 128,-1,11
 467 105 467 105 420 105 c 0,12,13
 331 105 331 105 282.5 158.5 c 128,-1,14
 234 212 234 212 234 299 c 0,15,16
 234 366 234 366 263 417.5 c 128,-1,17
 292 469 292 469 345 498.5 c 128,-1,18
 398 528 398 528 470 528 c 0,19,20
 517 528 517 528 567.5 519.5 c 128,-1,21
 618 511 618 511 646 501 c 1,22,-1
 636 296 l 2,23,24
 635 286 635 286 635 275.5 c 128,-1,25
 635 265 635 265 635 262 c 0,26,27
 635 221 635 221 646.5 207.5 c 128,-1,28
 658 194 658 194 672 194 c 0,29,30
 694 194 694 194 709.5 216.5 c 128,-1,31
 725 239 725 239 732.5 276.5 c 128,-1,32
 740 314 740 314 740 359 c 0,33,34
 740 442 740 442 706 501 c 128,-1,35
 672 560 672 560 613 591 c 128,-1,36
 554 622 554 622 480 622 c 0,37,38
 375 622 375 622 303.5 578.5 c 128,-1,39
 232 535 232 535 195 459.5 c 128,-1,40
 158 384 158 384 158 288 c 0,41,42
 158 153 158 153 230 81 c 128,-1,43
 302 9 302 9 439 9 c 0,44,45
 497 9 497 9 559.5 21.5 c 128,-1,46
 622 34 622 34 675 54 c 1,47,-1
 675 -40 l 1,48,49
 627 -60 627 -60 568 -72 c 128,-1,50
 509 -84 509 -84 443 -84 c 0,51,52
 319 -84 319 -84 231 -40 c 128,-1,53
 143 4 143 4 96.5 86.5 c 128,-1,54
 50 169 50 169 50 285 c 0,55,56
 50 376 50 376 80 454 c 128,-1,57
 110 532 110 532 166 590.5 c 128,-1,58
 222 649 222 649 301.5 681.5 c 128,-1,59
 381 714 381 714 479 714 c 0,60,61
 586 714 586 714 669 671 c 128,-1,62
 752 628 752 628 799.5 548 c 128,-1,63
 847 468 847 468 847 358 c 0,0,1
347 297 m 0,64,65
 347 242 347 242 370 218 c 128,-1,66
 393 194 393 194 431 194 c 0,67,68
 481 194 481 194 501.5 230.5 c 128,-1,69
 522 267 522 267 526 326 c 2,70,-1
 532 434 l 1,71,72
 521 436 521 436 506.5 437.5 c 128,-1,73
 492 439 492 439 476 439 c 0,74,75
 428 439 428 439 400 418.5 c 128,-1,76
 372 398 372 398 359.5 365 c 128,-1,77
 347 332 347 332 347 297 c 0,64,65
EndSplineSet
EndChar

StartChar: A
Encoding: 65 65 36
Width: 690
GlyphClass: 2
Flags: W
AnchorPoint: "Anchor-3" 590 714 basechar 0
AnchorPoint: "Anchor-2" 345 714 basechar 0
AnchorPoint: "Anchor-0" 345 0 basechar 0
LayerCount: 2
Fore
SplineSet
527 0 m 1,0,-1
 475 170 l 1,1,-1
 215 170 l 1,2,-1
 163 0 l 1,3,-1
 0 0 l 1,4,-1
 252 717 l 1,5,-1
 437 717 l 1,6,-1
 690 0 l 1,7,-1
 527 0 l 1,0,-1
439 297 m 1,8,-1
 387 463 l 2,9,10
 382 480 382 480 374 506 c 128,-1,11
 366 532 366 532 358 559 c 128,-1,12
 350 586 350 586 345 606 c 1,13,14
 340 586 340 586 331.5 556.5 c 128,-1,15
 323 527 323 527 315.5 500.5 c 128,-1,16
 308 474 308 474 304 463 c 2,17,-1
 253 297 l 1,18,-1
 439 297 l 1,8,-1
EndSplineSet
Substitution2: "'c2sc' Capitals to Small Capitals lookup 33 subtable" a.sc
Substitution2: "Single Substitution lookup 28 subtable" ordfeminine
EndChar

StartChar: B
Encoding: 66 66 37
Width: 672
GlyphClass: 2
Flags: W
AnchorPoint: "Anchor-3" 652 714 basechar 0
AnchorPoint: "Anchor-2" 341 714 basechar 0
AnchorPoint: "Anchor-0" 339 0 basechar 0
LayerCount: 2
Fore
SplineSet
90 714 m 1,0,-1
 312 714 l 2,1,2
 454 714 454 714 527.5 674 c 128,-1,3
 601 634 601 634 601 533 c 0,4,5
 601 472 601 472 572.5 430 c 128,-1,6
 544 388 544 388 491 379 c 1,7,-1
 491 374 l 1,8,9
 526 366 526 366 555.5 348.5 c 128,-1,10
 585 331 585 331 602 297 c 128,-1,11
 619 263 619 263 619 207 c 0,12,13
 619 110 619 110 548.5 55 c 128,-1,14
 478 0 478 0 357 0 c 2,15,-1
 90 0 l 1,16,-1
 90 714 l 1,0,-1
241 431 m 1,17,-1
 329 431 l 2,18,19
 395 431 395 431 420.5 451.5 c 128,-1,20
 446 472 446 472 446 513 c 256,21,22
 446 554 446 554 416 572 c 128,-1,23
 386 590 386 590 321 590 c 2,24,-1
 241 590 l 1,25,-1
 241 431 l 1,17,-1
241 311 m 1,26,-1
 241 125 l 1,27,-1
 340 125 l 2,28,29
 408 125 408 125 435 151.5 c 128,-1,30
 462 178 462 178 462 222 c 0,31,32
 462 262 462 262 434.5 286.5 c 128,-1,33
 407 311 407 311 335 311 c 2,34,-1
 241 311 l 1,26,-1
EndSplineSet
Substitution2: "'c2sc' Capitals to Small Capitals lookup 33 subtable" b.sc
EndChar

StartChar: C
Encoding: 67 67 38
Width: 637
GlyphClass: 2
Flags: W
AnchorPoint: "Anchor-3" 617 714 basechar 0
AnchorPoint: "Anchor-2" 377 714 basechar 0
AnchorPoint: "Anchor-0" 370 0 basechar 0
LayerCount: 2
Fore
SplineSet
393 598 m 0,0,1
 306 598 306 598 260 533 c 128,-1,2
 214 468 214 468 214 355 c 0,3,4
 214 241 214 241 256.5 178.5 c 128,-1,5
 299 116 299 116 393 116 c 0,6,7
 436 116 436 116 480 126 c 128,-1,8
 524 136 524 136 575 154 c 1,9,-1
 575 27 l 1,10,11
 528 8 528 8 482 -1 c 128,-1,12
 436 -10 436 -10 379 -10 c 0,13,14
 268 -10 268 -10 197 35.5 c 128,-1,15
 126 81 126 81 92 163.5 c 128,-1,16
 58 246 58 246 58 356 c 0,17,18
 58 464 58 464 97 547 c 128,-1,19
 136 630 136 630 210.5 677 c 128,-1,20
 285 724 285 724 393 724 c 0,21,22
 446 724 446 724 499.5 710.5 c 128,-1,23
 553 697 553 697 602 674 c 1,24,-1
 553 551 l 1,25,26
 513 570 513 570 472.5 584 c 128,-1,27
 432 598 432 598 393 598 c 0,0,1
EndSplineSet
Substitution2: "'c2sc' Capitals to Small Capitals lookup 33 subtable" c.sc
EndChar

StartChar: D
Encoding: 68 68 39
Width: 740
GlyphClass: 2
Flags: W
AnchorPoint: "Anchor-3" 720 714 basechar 0
AnchorPoint: "Anchor-2" 370 714 basechar 0
AnchorPoint: "Anchor-1" 370 357 basechar 0
AnchorPoint: "Anchor-0" 344 0 basechar 0
LayerCount: 2
Fore
SplineSet
682 364 m 0,0,1
 682 183 682 183 579 91.5 c 128,-1,2
 476 0 476 0 292 0 c 2,3,-1
 90 0 l 1,4,-1
 90 714 l 1,5,-1
 314 714 l 2,6,7
 426 714 426 714 508.5 674 c 128,-1,8
 591 634 591 634 636.5 556 c 128,-1,9
 682 478 682 478 682 364 c 0,0,1
525 360 m 0,10,11
 525 478 525 478 473 534 c 128,-1,12
 421 590 421 590 322 590 c 2,13,-1
 241 590 l 1,14,-1
 241 125 l 1,15,-1
 306 125 l 2,16,17
 525 125 525 125 525 360 c 0,10,11
EndSplineSet
Substitution2: "'c2sc' Capitals to Small Capitals lookup 33 subtable" d.sc
EndChar

StartChar: E
Encoding: 69 69 40
Width: 560
GlyphClass: 2
Flags: W
AnchorPoint: "Anchor-3" 540 714 basechar 0
AnchorPoint: "Anchor-2" 301 714 basechar 0
AnchorPoint: "Anchor-0" 303 0 basechar 0
LayerCount: 2
Fore
SplineSet
501 0 m 1,0,-1
 90 0 l 1,1,-1
 90 714 l 1,2,-1
 501 714 l 1,3,-1
 501 590 l 1,4,-1
 241 590 l 1,5,-1
 241 433 l 1,6,-1
 483 433 l 1,7,-1
 483 309 l 1,8,-1
 241 309 l 1,9,-1
 241 125 l 1,10,-1
 501 125 l 1,11,-1
 501 0 l 1,0,-1
EndSplineSet
Substitution2: "'c2sc' Capitals to Small Capitals lookup 33 subtable" e.sc
EndChar

StartChar: F
Encoding: 70 70 41
Width: 549
GlyphClass: 2
Flags: W
AnchorPoint: "Anchor-3" 529 714 basechar 0
AnchorPoint: "Anchor-2" 298 714 basechar 0
AnchorPoint: "Anchor-0" 275 0 basechar 0
LayerCount: 2
Fore
SplineSet
239 0 m 1,0,-1
 90 0 l 1,1,-1
 90 714 l 1,2,-1
 499 714 l 1,3,-1
 499 590 l 1,4,-1
 239 590 l 1,5,-1
 239 406 l 1,6,-1
 481 406 l 1,7,-1
 481 282 l 1,8,-1
 239 282 l 1,9,-1
 239 0 l 1,0,-1
EndSplineSet
Substitution2: "'c2sc' Capitals to Small Capitals lookup 33 subtable" f.sc
EndChar

StartChar: G
Encoding: 71 71 42
Width: 724
GlyphClass: 2
Flags: W
AnchorPoint: "Anchor-3" 704 714 basechar 0
AnchorPoint: "Anchor-2" 400 714 basechar 0
AnchorPoint: "Anchor-0" 390 0 basechar 0
LayerCount: 2
Fore
SplineSet
361 401 m 1,0,-1
 644 401 l 1,1,-1
 644 31 l 1,2,3
 588 12 588 12 527 1 c 128,-1,4
 466 -10 466 -10 390 -10 c 0,5,6
 230 -10 230 -10 144 84 c 128,-1,7
 58 178 58 178 58 358 c 0,8,9
 58 470 58 470 101 552 c 128,-1,10
 144 634 144 634 227.5 679 c 128,-1,11
 311 724 311 724 431 724 c 0,12,13
 488 724 488 724 543 712 c 128,-1,14
 598 700 598 700 643 680 c 1,15,-1
 593 559 l 1,16,17
 560 576 560 576 518 587 c 128,-1,18
 476 598 476 598 430 598 c 0,19,20
 364 598 364 598 315.5 568 c 128,-1,21
 267 538 267 538 240.5 483 c 128,-1,22
 214 428 214 428 214 355 c 0,23,24
 214 285 214 285 233 231 c 128,-1,25
 252 177 252 177 293 146.5 c 128,-1,26
 334 116 334 116 400 116 c 0,27,28
 432 116 432 116 454 119 c 128,-1,29
 476 122 476 122 496 126 c 1,30,-1
 496 275 l 1,31,-1
 361 275 l 1,32,-1
 361 401 l 1,0,-1
EndSplineSet
Substitution2: "'c2sc' Capitals to Small Capitals lookup 33 subtable" g.sc
EndChar

StartChar: H
Encoding: 72 72 43
Width: 765
GlyphClass: 2
Flags: W
AnchorPoint: "Anchor-3" 745 714 basechar 0
AnchorPoint: "Anchor-2" 383 714 basechar 0
AnchorPoint: "Anchor-1" 383 357 basechar 0
AnchorPoint: "Anchor-0" 379 0 basechar 0
LayerCount: 2
Fore
SplineSet
675 0 m 1,0,-1
 524 0 l 1,1,-1
 524 308 l 1,2,-1
 241 308 l 1,3,-1
 241 0 l 1,4,-1
 90 0 l 1,5,-1
 90 714 l 1,6,-1
 241 714 l 1,7,-1
 241 434 l 1,8,-1
 524 434 l 1,9,-1
 524 714 l 1,10,-1
 675 714 l 1,11,-1
 675 0 l 1,0,-1
EndSplineSet
Substitution2: "'c2sc' Capitals to Small Capitals lookup 33 subtable" h.sc
EndChar

StartChar: I
Encoding: 73 73 44
Width: 389
GlyphClass: 2
Flags: W
AnchorPoint: "Anchor-3" 369 714 basechar 0
AnchorPoint: "Anchor-2" 195 714 basechar 0
AnchorPoint: "Anchor-0" 195 0 basechar 0
LayerCount: 2
Fore
SplineSet
357 0 m 1,0,-1
 32 0 l 1,1,-1
 32 86 l 1,2,-1
 119 126 l 1,3,-1
 119 588 l 1,4,-1
 32 628 l 1,5,-1
 32 714 l 1,6,-1
 357 714 l 1,7,-1
 357 628 l 1,8,-1
 270 588 l 1,9,-1
 270 126 l 1,10,-1
 357 86 l 1,11,-1
 357 0 l 1,0,-1
EndSplineSet
Substitution2: "'c2sc' Capitals to Small Capitals lookup 33 subtable" i.sc
EndChar

StartChar: J
Encoding: 74 74 45
Width: 331
GlyphClass: 2
Flags: W
AnchorPoint: "Anchor-3" 311 714 basechar 0
AnchorPoint: "Anchor-2" 166 714 basechar 0
AnchorPoint: "Anchor-0" 15 -190 basechar 0
LayerCount: 2
Fore
SplineSet
15 -210 m 0,0,1
 -14 -210 -14 -210 -36 -207 c 128,-1,2
 -58 -204 -58 -204 -74 -199 c 1,3,-1
 -74 -73 l 1,4,5
 -58 -77 -58 -77 -40.5 -80 c 128,-1,6
 -23 -83 -23 -83 -3 -83 c 0,7,8
 23 -83 23 -83 44.5 -73 c 128,-1,9
 66 -63 66 -63 78 -35.5 c 128,-1,10
 90 -8 90 -8 90 45 c 2,11,-1
 90 714 l 1,12,-1
 241 714 l 1,13,-1
 241 46 l 2,14,15
 241 -46 241 -46 212.5 -102.5 c 128,-1,16
 184 -159 184 -159 133 -184.5 c 128,-1,17
 82 -210 82 -210 15 -210 c 0,0,1
EndSplineSet
Substitution2: "'c2sc' Capitals to Small Capitals lookup 33 subtable" j.sc
EndChar

StartChar: K
Encoding: 75 75 46
Width: 664
GlyphClass: 2
Flags: W
AnchorPoint: "Anchor-3" 644 714 basechar 0
AnchorPoint: "Anchor-2" 350 714 basechar 0
AnchorPoint: "Anchor-0" 348 0 basechar 0
LayerCount: 2
Fore
SplineSet
664 0 m 1,0,-1
 492 0 l 1,1,-1
 305 301 l 1,2,-1
 241 255 l 1,3,-1
 241 0 l 1,4,-1
 90 0 l 1,5,-1
 90 714 l 1,6,-1
 241 714 l 1,7,-1
 241 387 l 1,8,9
 256 408 256 408 271 429 c 128,-1,10
 286 450 286 450 301 471 c 2,11,-1
 494 714 l 1,12,-1
 662 714 l 1,13,-1
 413 398 l 1,14,-1
 664 0 l 1,0,-1
EndSplineSet
Substitution2: "'c2sc' Capitals to Small Capitals lookup 33 subtable" k.sc
EndChar

StartChar: L
Encoding: 76 76 47
Width: 565
GlyphClass: 2
Flags: W
AnchorPoint: "Anchor-3" 385 714 basechar 0
AnchorPoint: "Anchor-2" 164 714 basechar 0
AnchorPoint: "Anchor-1" 283 357 basechar 0
AnchorPoint: "Anchor-0" 308 0 basechar 0
LayerCount: 2
Fore
SplineSet
90 0 m 1,0,-1
 90 714 l 1,1,-1
 241 714 l 1,2,-1
 241 125 l 1,3,-1
 531 125 l 1,4,-1
 531 0 l 1,5,-1
 90 0 l 1,0,-1
EndSplineSet
Substitution2: "'c2sc' Capitals to Small Capitals lookup 33 subtable" l.sc
EndChar

StartChar: M
Encoding: 77 77 48
Width: 943
GlyphClass: 2
Flags: W
AnchorPoint: "Anchor-3" 923 714 basechar 0
AnchorPoint: "Anchor-2" 471 714 basechar 0
AnchorPoint: "Anchor-0" 465 0 basechar 0
LayerCount: 2
Fore
SplineSet
392 0 m 1,0,-1
 220 560 l 1,1,-1
 216 560 l 1,2,3
 217 540 217 540 219 500 c 128,-1,4
 221 460 221 460 223 414 c 128,-1,5
 225 368 225 368 225 332 c 2,6,-1
 225 0 l 1,7,-1
 90 0 l 1,8,-1
 90 714 l 1,9,-1
 296 714 l 1,10,-1
 465 168 l 1,11,-1
 468 168 l 1,12,-1
 647 714 l 1,13,-1
 853 714 l 1,14,-1
 853 0 l 1,15,-1
 712 0 l 1,16,-1
 712 338 l 2,17,18
 712 372 712 372 713.5 416 c 128,-1,19
 715 460 715 460 716.5 499.5 c 128,-1,20
 718 539 718 539 719 559 c 1,21,-1
 715 559 l 1,22,-1
 531 0 l 1,23,-1
 392 0 l 1,0,-1
EndSplineSet
Substitution2: "'c2sc' Capitals to Small Capitals lookup 33 subtable" m.sc
EndChar

StartChar: N
Encoding: 78 78 49
Width: 813
GlyphClass: 2
Flags: W
AnchorPoint: "Anchor-3" 793 714 basechar 0
AnchorPoint: "Anchor-2" 407 714 basechar 0
AnchorPoint: "Anchor-0" 407 0 basechar 0
LayerCount: 2
Fore
SplineSet
723 0 m 1,0,-1
 531 0 l 1,1,-1
 220 540 l 1,2,-1
 216 540 l 1,3,4
 218 489 218 489 220.5 438 c 128,-1,5
 223 387 223 387 225 336 c 2,6,-1
 225 0 l 1,7,-1
 90 0 l 1,8,-1
 90 714 l 1,9,-1
 281 714 l 1,10,-1
 591 179 l 1,11,-1
 594 179 l 1,12,13
 592 228 592 228 590 277 c 128,-1,14
 588 326 588 326 587 376 c 2,15,-1
 587 714 l 1,16,-1
 723 714 l 1,17,-1
 723 0 l 1,0,-1
EndSplineSet
Substitution2: "'c2sc' Capitals to Small Capitals lookup 33 subtable" n.sc
EndChar

StartChar: O
Encoding: 79 79 50
Width: 796
GlyphClass: 2
Flags: W
AnchorPoint: "Anchor-3" 776 714 basechar 0
AnchorPoint: "Anchor-2" 398 714 basechar 0
AnchorPoint: "Anchor-1" 398 357 basechar 0
AnchorPoint: "Anchor-0" 399 0 basechar 0
LayerCount: 2
Fore
SplineSet
738 358 m 256,0,1
 738 247 738 247 701.5 164.5 c 128,-1,2
 665 82 665 82 589.5 36 c 128,-1,3
 514 -10 514 -10 398 -10 c 256,4,5
 282 -10 282 -10 206.5 36 c 128,-1,6
 131 82 131 82 94.5 165 c 128,-1,7
 58 248 58 248 58 359 c 256,8,9
 58 470 58 470 94.5 552 c 128,-1,10
 131 634 131 634 206.5 679.5 c 128,-1,11
 282 725 282 725 399 725 c 0,12,13
 515 725 515 725 590 679.5 c 128,-1,14
 665 634 665 634 701.5 551.5 c 128,-1,15
 738 469 738 469 738 358 c 256,0,1
217 358 m 256,16,17
 217 246 217 246 260 181.5 c 128,-1,18
 303 117 303 117 398 117 c 0,19,20
 495 117 495 117 537 181.5 c 128,-1,21
 579 246 579 246 579 358 c 256,22,23
 579 470 579 470 537 534.5 c 128,-1,24
 495 599 495 599 399 599 c 256,25,26
 303 599 303 599 260 534.5 c 128,-1,27
 217 470 217 470 217 358 c 256,16,17
EndSplineSet
Substitution2: "'c2sc' Capitals to Small Capitals lookup 33 subtable" o.sc
Substitution2: "Single Substitution lookup 28 subtable" ordmasculine
EndChar

StartChar: P
Encoding: 80 80 51
Width: 628
GlyphClass: 2
Flags: W
AnchorPoint: "Anchor-3" 608 714 basechar 0
AnchorPoint: "Anchor-2" 325 714 basechar 0
AnchorPoint: "Anchor-0" 314 0 basechar 0
LayerCount: 2
Fore
SplineSet
318 714 m 2,0,1
 456 714 456 714 519.5 654.5 c 128,-1,2
 583 595 583 595 583 491 c 0,3,4
 583 428 583 428 557 374 c 128,-1,5
 531 320 531 320 470.5 287 c 128,-1,6
 410 254 410 254 306 254 c 2,7,-1
 241 254 l 1,8,-1
 241 0 l 1,9,-1
 90 0 l 1,10,-1
 90 714 l 1,11,-1
 318 714 l 2,0,1
310 590 m 2,12,-1
 241 590 l 1,13,-1
 241 378 l 1,14,-1
 291 378 l 2,15,16
 355 378 355 378 392.5 403.5 c 128,-1,17
 430 429 430 429 430 486 c 0,18,19
 430 590 430 590 310 590 c 2,12,-1
EndSplineSet
Substitution2: "'c2sc' Capitals to Small Capitals lookup 33 subtable" p.sc
EndChar

StartChar: Q
Encoding: 81 81 52
Width: 796
GlyphClass: 2
Flags: W
AnchorPoint: "Anchor-3" 776 714 basechar 0
AnchorPoint: "Anchor-2" 398 714 basechar 0
AnchorPoint: "Anchor-0" 398 -170 basechar 0
LayerCount: 2
Fore
SplineSet
738 358 m 0,0,1
 738 238 738 238 695 150 c 128,-1,2
 652 62 652 62 562 22 c 1,3,-1
 734 -170 l 1,4,-1
 540 -170 l 1,5,-1
 409 -10 l 1,6,-1
 398 -10 l 2,7,8
 282 -10 282 -10 206.5 36 c 128,-1,9
 131 82 131 82 94.5 165 c 128,-1,10
 58 248 58 248 58 359 c 256,11,12
 58 470 58 470 94.5 552 c 128,-1,13
 131 634 131 634 206.5 679.5 c 128,-1,14
 282 725 282 725 399 725 c 0,15,16
 515 725 515 725 590 679.5 c 128,-1,17
 665 634 665 634 701.5 551.5 c 128,-1,18
 738 469 738 469 738 358 c 0,0,1
217 358 m 256,19,20
 217 246 217 246 260 181.5 c 128,-1,21
 303 117 303 117 398 117 c 0,22,23
 495 117 495 117 537 181.5 c 128,-1,24
 579 246 579 246 579 358 c 256,25,26
 579 470 579 470 537 534.5 c 128,-1,27
 495 599 495 599 399 599 c 256,28,29
 303 599 303 599 260 534.5 c 128,-1,30
 217 470 217 470 217 358 c 256,19,20
EndSplineSet
Substitution2: "'c2sc' Capitals to Small Capitals lookup 33 subtable" q.sc
EndChar

StartChar: R
Encoding: 82 82 53
Width: 660
GlyphClass: 2
Flags: W
AnchorPoint: "Anchor-3" 640 714 basechar 0
AnchorPoint: "Anchor-2" 338 714 basechar 0
AnchorPoint: "Anchor-0" 358 0 basechar 0
LayerCount: 2
Fore
SplineSet
298 714 m 2,0,1
 444 714 444 714 513.5 661 c 128,-1,2
 583 608 583 608 583 500 c 0,3,4
 583 451 583 451 564.5 414.5 c 128,-1,5
 546 378 546 378 515.5 352.5 c 128,-1,6
 485 327 485 327 450 311 c 1,7,-1
 660 0 l 1,8,-1
 492 0 l 1,9,-1
 322 274 l 1,10,-1
 241 274 l 1,11,-1
 241 0 l 1,12,-1
 90 0 l 1,13,-1
 90 714 l 1,14,-1
 298 714 l 2,0,1
287 590 m 2,15,-1
 241 590 l 1,16,-1
 241 397 l 1,17,-1
 290 397 l 2,18,19
 365 397 365 397 397.5 422 c 128,-1,20
 430 447 430 447 430 496 c 0,21,22
 430 547 430 547 395 568.5 c 128,-1,23
 360 590 360 590 287 590 c 2,15,-1
EndSplineSet
Substitution2: "'c2sc' Capitals to Small Capitals lookup 33 subtable" r.sc
EndChar

StartChar: S
Encoding: 83 83 54
Width: 551
GlyphClass: 2
Flags: W
AnchorPoint: "Anchor-3" 531 714 basechar 0
AnchorPoint: "Anchor-2" 284 714 basechar 0
AnchorPoint: "Anchor-0" 268 0 basechar 0
LayerCount: 2
Fore
SplineSet
511 198 m 0,0,1
 511 103 511 103 442.5 46.5 c 128,-1,2
 374 -10 374 -10 248 -10 c 0,3,4
 135 -10 135 -10 46 33 c 1,5,-1
 46 174 l 1,6,7
 97 152 97 152 151.5 133.5 c 128,-1,8
 206 115 206 115 260 115 c 0,9,10
 316 115 316 115 339.5 136.5 c 128,-1,11
 363 158 363 158 363 191 c 0,12,13
 363 218 363 218 344.5 237 c 128,-1,14
 326 256 326 256 295 272.5 c 128,-1,15
 264 289 264 289 224 308 c 0,16,17
 199 320 199 320 170 336.5 c 128,-1,18
 141 353 141 353 114.5 377.5 c 128,-1,19
 88 402 88 402 71 437 c 128,-1,20
 54 472 54 472 54 521 c 0,21,22
 54 617 54 617 119 670.5 c 128,-1,23
 184 724 184 724 296 724 c 0,24,25
 352 724 352 724 402 711 c 128,-1,26
 452 698 452 698 508 674 c 1,27,-1
 459 556 l 1,28,29
 410 576 410 576 371 587 c 128,-1,30
 332 598 332 598 291 598 c 0,31,32
 248 598 248 598 225 578 c 128,-1,33
 202 558 202 558 202 526 c 0,34,35
 202 488 202 488 236 466 c 128,-1,36
 270 444 270 444 337 412 c 0,37,38
 392 386 392 386 430.5 358 c 128,-1,39
 469 330 469 330 490 292 c 128,-1,40
 511 254 511 254 511 198 c 0,0,1
EndSplineSet
Substitution2: "'c2sc' Capitals to Small Capitals lookup 33 subtable" s.sc
EndChar

StartChar: T
Encoding: 84 84 55
Width: 579
GlyphClass: 2
Flags: W
AnchorPoint: "Anchor-3" 559 714 basechar 0
AnchorPoint: "Anchor-2" 290 714 basechar 0
AnchorPoint: "Anchor-1" 290 357 basechar 0
AnchorPoint: "Anchor-0" 290 0 basechar 0
LayerCount: 2
Fore
SplineSet
365 0 m 1,0,-1
 214 0 l 1,1,-1
 214 588 l 1,2,-1
 20 588 l 1,3,-1
 20 714 l 1,4,-1
 559 714 l 1,5,-1
 559 588 l 1,6,-1
 365 588 l 1,7,-1
 365 0 l 1,0,-1
EndSplineSet
Substitution2: "'c2sc' Capitals to Small Capitals lookup 33 subtable" t.sc
EndChar

StartChar: U
Encoding: 85 85 56
Width: 756
GlyphClass: 2
Flags: W
AnchorPoint: "Anchor-3" 736 714 basechar 0
AnchorPoint: "Anchor-2" 378 714 basechar 0
AnchorPoint: "Anchor-0" 376 0 basechar 0
LayerCount: 2
Fore
SplineSet
671 714 m 1,0,-1
 671 252 l 2,1,2
 671 178 671 178 638.5 118.5 c 128,-1,3
 606 59 606 59 540 24.5 c 128,-1,4
 474 -10 474 -10 375 -10 c 0,5,6
 233 -10 233 -10 159 62.5 c 128,-1,7
 85 135 85 135 85 254 c 2,8,-1
 85 714 l 1,9,-1
 236 714 l 1,10,-1
 236 277 l 2,11,12
 236 188 236 188 272 152.5 c 128,-1,13
 308 117 308 117 379 117 c 0,14,15
 453 117 453 117 486.5 156 c 128,-1,16
 520 195 520 195 520 278 c 2,17,-1
 520 714 l 1,18,-1
 671 714 l 1,0,-1
EndSplineSet
Substitution2: "'c2sc' Capitals to Small Capitals lookup 33 subtable" u.sc
EndChar

StartChar: V
Encoding: 86 86 57
Width: 650
GlyphClass: 2
Flags: W
AnchorPoint: "Anchor-3" 630 714 basechar 0
AnchorPoint: "Anchor-2" 326 714 basechar 0
AnchorPoint: "Anchor-0" 323 0 basechar 0
LayerCount: 2
Fore
SplineSet
650 714 m 1,0,-1
 407 0 l 1,1,-1
 242 0 l 1,2,-1
 0 714 l 1,3,-1
 153 714 l 1,4,-1
 287 289 l 2,5,6
 290 278 290 278 298 248.5 c 128,-1,7
 306 219 306 219 314 186.5 c 128,-1,8
 322 154 322 154 325 132 c 1,9,10
 328 154 328 154 335.5 186.5 c 128,-1,11
 343 219 343 219 350.5 248.5 c 128,-1,12
 358 278 358 278 362 289 c 2,13,-1
 497 714 l 1,14,-1
 650 714 l 1,0,-1
EndSplineSet
Substitution2: "'c2sc' Capitals to Small Capitals lookup 33 subtable" v.sc
EndChar

StartChar: W
Encoding: 87 87 58
Width: 967
GlyphClass: 2
Flags: W
AnchorPoint: "Anchor-3" 947 714 basechar 0
AnchorPoint: "Anchor-2" 484 714 basechar 0
AnchorPoint: "Anchor-0" 482 0 basechar 0
LayerCount: 2
Fore
SplineSet
967 714 m 1,0,-1
 785 0 l 1,1,-1
 613 0 l 1,2,-1
 516 375 l 2,3,4
 513 386 513 386 508.5 408 c 128,-1,5
 504 430 504 430 498.5 456 c 128,-1,6
 493 482 493 482 488.5 505 c 128,-1,7
 484 528 484 528 483 542 c 1,8,9
 482 528 482 528 477.5 505 c 128,-1,10
 473 482 473 482 468 456.5 c 128,-1,11
 463 431 463 431 458 408.5 c 128,-1,12
 453 386 453 386 450 374 c 2,13,-1
 354 0 l 1,14,-1
 182 0 l 1,15,-1
 0 714 l 1,16,-1
 149 714 l 1,17,-1
 240 324 l 2,18,19
 246 301 246 301 253 266 c 128,-1,20
 260 231 260 231 266 196 c 128,-1,21
 272 161 272 161 275 137 c 1,22,23
 278 162 278 162 284 196.5 c 128,-1,24
 290 231 290 231 296.5 263.5 c 128,-1,25
 303 296 303 296 308 314 c 2,26,-1
 412 714 l 1,27,-1
 555 714 l 1,28,-1
 659 314 l 2,29,30
 664 296 664 296 670.5 263.5 c 128,-1,31
 677 231 677 231 683 196 c 128,-1,32
 689 161 689 161 692 137 c 1,33,34
 695 162 695 162 701 196.5 c 128,-1,35
 707 231 707 231 714.5 265.5 c 128,-1,36
 722 300 722 300 727 324 c 2,37,-1
 818 714 l 1,38,-1
 967 714 l 1,0,-1
EndSplineSet
Substitution2: "'c2sc' Capitals to Small Capitals lookup 33 subtable" w.sc
EndChar

StartChar: X
Encoding: 88 88 59
Width: 667
GlyphClass: 2
Flags: W
AnchorPoint: "Anchor-3" 647 714 basechar 0
AnchorPoint: "Anchor-2" 334 714 basechar 0
AnchorPoint: "Anchor-0" 334 0 basechar 0
LayerCount: 2
Fore
SplineSet
667 0 m 1,0,-1
 494 0 l 1,1,-1
 328 270 l 1,2,-1
 162 0 l 1,3,-1
 0 0 l 1,4,-1
 237 368 l 1,5,-1
 15 714 l 1,6,-1
 182 714 l 1,7,-1
 336 457 l 1,8,-1
 487 714 l 1,9,-1
 650 714 l 1,10,-1
 426 360 l 1,11,-1
 667 0 l 1,0,-1
EndSplineSet
Substitution2: "'c2sc' Capitals to Small Capitals lookup 33 subtable" x.sc
EndChar

StartChar: Y
Encoding: 89 89 60
Width: 624
GlyphClass: 2
Flags: W
AnchorPoint: "Anchor-3" 604 714 basechar 0
AnchorPoint: "Anchor-2" 312 714 basechar 0
AnchorPoint: "Anchor-0" 312 0 basechar 0
LayerCount: 2
Fore
SplineSet
312 420 m 1,0,-1
 461 714 l 1,1,-1
 624 714 l 1,2,-1
 387 278 l 1,3,-1
 387 0 l 1,4,-1
 237 0 l 1,5,-1
 237 273 l 1,6,-1
 0 714 l 1,7,-1
 164 714 l 1,8,-1
 312 420 l 1,0,-1
EndSplineSet
Substitution2: "'c2sc' Capitals to Small Capitals lookup 33 subtable" y.sc
EndChar

StartChar: Z
Encoding: 90 90 61
Width: 579
GlyphClass: 2
Flags: W
AnchorPoint: "Anchor-3" 559 714 basechar 0
AnchorPoint: "Anchor-2" 295 714 basechar 0
AnchorPoint: "Anchor-0" 306 0 basechar 0
LayerCount: 2
Fore
SplineSet
555 0 m 1,0,-1
 24 0 l 1,1,-1
 24 98 l 1,2,-1
 366 589 l 1,3,-1
 33 589 l 1,4,-1
 33 714 l 1,5,-1
 546 714 l 1,6,-1
 546 616 l 1,7,-1
 204 125 l 1,8,-1
 555 125 l 1,9,-1
 555 0 l 1,0,-1
EndSplineSet
Substitution2: "'c2sc' Capitals to Small Capitals lookup 33 subtable" z.sc
EndChar

StartChar: bracketleft
Encoding: 91 91 62
Width: 331
Flags: W
LayerCount: 2
Fore
SplineSet
306 -158 m 1,0,-1
 70 -158 l 1,1,-1
 70 714 l 1,2,-1
 306 714 l 1,3,-1
 306 611 l 1,4,-1
 197 611 l 1,5,-1
 197 -55 l 1,6,-1
 306 -55 l 1,7,-1
 306 -158 l 1,0,-1
EndSplineSet
Substitution2: "'smcp' Lowercase to Small Capitals lookup 34 subtable" bracketleft.sc
Substitution2: "'c2sc' Capitals to Small Capitals lookup 33 subtable" bracketleft.sc
EndChar

StartChar: backslash
Encoding: 92 92 63
Width: 413
Flags: W
LayerCount: 2
Fore
SplineSet
141 714 m 1,0,-1
 407 0 l 1,1,-1
 272 0 l 1,2,-1
 6 714 l 1,3,-1
 141 714 l 1,0,-1
EndSplineSet
EndChar

StartChar: bracketright
Encoding: 93 93 64
Width: 331
Flags: W
LayerCount: 2
Fore
SplineSet
25 -55 m 1,0,-1
 134 -55 l 1,1,-1
 134 611 l 1,2,-1
 25 611 l 1,3,-1
 25 714 l 1,4,-1
 261 714 l 1,5,-1
 261 -158 l 1,6,-1
 25 -158 l 1,7,-1
 25 -55 l 1,0,-1
EndSplineSet
Substitution2: "'smcp' Lowercase to Small Capitals lookup 34 subtable" bracketright.sc
Substitution2: "'c2sc' Capitals to Small Capitals lookup 33 subtable" bracketright.sc
EndChar

StartChar: asciicircum
Encoding: 94 94 65
Width: 572
Flags: W
LayerCount: 2
Fore
SplineSet
23 254 m 1,0,-1
 237 718 l 1,1,-1
 307 718 l 1,2,-1
 549 254 l 1,3,-1
 432 254 l 1,4,-1
 275 568 l 1,5,-1
 138 254 l 1,6,-1
 23 254 l 1,0,-1
EndSplineSet
EndChar

StartChar: underscore
Encoding: 95 95 66
Width: 411
Flags: W
LayerCount: 2
Fore
SplineSet
413 -158 m 1,0,-1
 -2 -158 l 1,1,-1
 -2 -90 l 1,2,-1
 413 -90 l 1,3,-1
 413 -158 l 1,0,-1
EndSplineSet
EndChar

StartChar: grave
Encoding: 96 96 67
Width: 362
Flags: W
LayerCount: 2
Fore
SplineSet
207 766 m 1,0,1
 222 744 222 744 242.5 716.5 c 128,-1,2
 263 689 263 689 284.5 663.5 c 128,-1,3
 306 638 306 638 322 619 c 1,4,-1
 322 606 l 1,5,-1
 223 606 l 1,6,7
 204 619 204 619 178.5 638.5 c 128,-1,8
 153 658 153 658 126.5 680 c 128,-1,9
 100 702 100 702 77 722 c 128,-1,10
 54 742 54 742 40 756 c 1,11,-1
 40 766 l 1,12,-1
 207 766 l 1,0,1
EndSplineSet
EndChar

StartChar: a
Encoding: 97 97 68
Width: 604
GlyphClass: 2
Flags: W
AnchorPoint: "Anchor-3" 554 546 basechar 0
AnchorPoint: "Anchor-2" 302 546 basechar 0
AnchorPoint: "Anchor-0" 302 0 basechar 0
LayerCount: 2
Fore
SplineSet
302 557 m 0,0,1
 412 557 412 557 470.5 509.5 c 128,-1,2
 529 462 529 462 529 364 c 2,3,-1
 529 0 l 1,4,-1
 425 0 l 1,5,-1
 396 74 l 1,6,-1
 392 74 l 1,7,8
 357 30 357 30 318 10 c 128,-1,9
 279 -10 279 -10 211 -10 c 0,10,11
 138 -10 138 -10 90 32 c 128,-1,12
 42 74 42 74 42 163 c 0,13,14
 42 250 42 250 103 291 c 128,-1,15
 164 332 164 332 286 337 c 2,16,-1
 381 340 l 1,17,-1
 381 364 l 2,18,19
 381 407 381 407 358.5 427 c 128,-1,20
 336 447 336 447 296 447 c 256,21,22
 256 447 256 447 218 435.5 c 128,-1,23
 180 424 180 424 142 407 c 1,24,-1
 93 508 l 1,25,26
 136 530 136 530 190 543.5 c 128,-1,27
 244 557 244 557 302 557 c 0,0,1
381 253 m 1,28,-1
 323 251 l 2,29,30
 251 249 251 249 223 225 c 128,-1,31
 195 201 195 201 195 162 c 0,32,33
 195 128 195 128 215 113.5 c 128,-1,34
 235 99 235 99 267 99 c 0,35,36
 315 99 315 99 348 127.5 c 128,-1,37
 381 156 381 156 381 208 c 2,38,-1
 381 253 l 1,28,-1
EndSplineSet
Substitution2: "'smcp' Lowercase to Small Capitals lookup 34 subtable" a.sc
Substitution2: "Single Substitution lookup 28 subtable" ordfeminine
EndChar

StartChar: b
Encoding: 98 98 69
Width: 633
GlyphClass: 2
Flags: W
AnchorPoint: "Anchor-3" 543 760 basechar 0
AnchorPoint: "Anchor-2" 325 760 basechar 0
AnchorPoint: "Anchor-0" 333 0 basechar 0
LayerCount: 2
Fore
SplineSet
227 760 m 1,0,-1
 227 583 l 2,1,2
 227 552 227 552 225 522 c 128,-1,3
 223 492 223 492 221 475 c 1,4,-1
 227 475 l 1,5,6
 249 509 249 509 286 532.5 c 128,-1,7
 323 556 323 556 382 556 c 0,8,9
 474 556 474 556 531 484.5 c 128,-1,10
 588 413 588 413 588 274 c 0,11,12
 588 134 588 134 530 62 c 128,-1,13
 472 -10 472 -10 378 -10 c 0,14,15
 318 -10 318 -10 283.5 11.5 c 128,-1,16
 249 33 249 33 227 60 c 1,17,-1
 217 60 l 1,18,-1
 192 0 l 1,19,-1
 78 0 l 1,20,-1
 78 760 l 1,21,-1
 227 760 l 1,0,-1
334 437 m 0,22,23
 276 437 276 437 252 400.5 c 128,-1,24
 228 364 228 364 227 291 c 2,25,-1
 227 275 l 2,26,27
 227 196 227 196 250.5 153.5 c 128,-1,28
 274 111 274 111 336 111 c 0,29,30
 382 111 382 111 409 153.5 c 128,-1,31
 436 196 436 196 436 276 c 256,32,33
 436 356 436 356 408.5 396.5 c 128,-1,34
 381 437 381 437 334 437 c 0,22,23
EndSplineSet
Substitution2: "'smcp' Lowercase to Small Capitals lookup 34 subtable" b.sc
EndChar

StartChar: c
Encoding: 99 99 70
Width: 514
GlyphClass: 2
Flags: W
AnchorPoint: "Anchor-3" 484 546 basechar 0
AnchorPoint: "Anchor-2" 287 546 basechar 0
AnchorPoint: "Anchor-0" 291 0 basechar 0
LayerCount: 2
Fore
SplineSet
300 -10 m 0,0,1
 178 -10 178 -10 111.5 57 c 128,-1,2
 45 124 45 124 45 270 c 0,3,4
 45 370 45 370 79 433 c 128,-1,5
 113 496 113 496 173.5 526 c 128,-1,6
 234 556 234 556 313 556 c 0,7,8
 369 556 369 556 410.5 545 c 128,-1,9
 452 534 452 534 483 519 c 1,10,-1
 439 404 l 1,11,12
 404 418 404 418 373.5 427 c 128,-1,13
 343 436 343 436 313 436 c 0,14,15
 197 436 197 436 197 271 c 0,16,17
 197 189 197 189 227.5 150 c 128,-1,18
 258 111 258 111 313 111 c 0,19,20
 360 111 360 111 396 123.5 c 128,-1,21
 432 136 432 136 466 158 c 1,22,-1
 466 31 l 1,23,24
 432 9 432 9 394.5 -0.5 c 128,-1,25
 357 -10 357 -10 300 -10 c 0,0,1
EndSplineSet
Substitution2: "'smcp' Lowercase to Small Capitals lookup 34 subtable" c.sc
EndChar

StartChar: d
Encoding: 100 100 71
Width: 633
GlyphClass: 2
Flags: W
AnchorPoint: "Anchor-3" 583 760 basechar 0
AnchorPoint: "Anchor-2" 248 760 basechar 0
AnchorPoint: "Anchor-1" 317 273 basechar 0
AnchorPoint: "Anchor-0" 301 0 basechar 0
LayerCount: 2
Fore
SplineSet
251 -10 m 0,0,1
 160 -10 160 -10 102.5 61.5 c 128,-1,2
 45 133 45 133 45 272 c 0,3,4
 45 412 45 412 103 484 c 128,-1,5
 161 556 161 556 255 556 c 0,6,7
 314 556 314 556 352 533 c 128,-1,8
 390 510 390 510 412 476 c 1,9,-1
 417 476 l 1,10,11
 414 492 414 492 410 522.5 c 128,-1,12
 406 553 406 553 406 585 c 2,13,-1
 406 760 l 1,14,-1
 555 760 l 1,15,-1
 555 0 l 1,16,-1
 441 0 l 1,17,-1
 412 71 l 1,18,-1
 406 71 l 1,19,20
 384 37 384 37 347 13.5 c 128,-1,21
 310 -10 310 -10 251 -10 c 0,0,1
303 109 m 0,22,23
 364 109 364 109 389 145.5 c 128,-1,24
 414 182 414 182 416 255 c 2,25,-1
 416 271 l 2,26,27
 416 350 416 350 391.5 392.5 c 128,-1,28
 367 435 367 435 301 435 c 0,29,30
 252 435 252 435 224 392.5 c 128,-1,31
 196 350 196 350 196 270 c 256,32,33
 196 190 196 190 224 149.5 c 128,-1,34
 252 109 252 109 303 109 c 0,22,23
EndSplineSet
Substitution2: "'smcp' Lowercase to Small Capitals lookup 34 subtable" d.sc
EndChar

StartChar: e
Encoding: 101 101 72
Width: 591
GlyphClass: 2
Flags: W
AnchorPoint: "Anchor-3" 571 546 basechar 0
AnchorPoint: "Anchor-2" 296 546 basechar 0
AnchorPoint: "Anchor-0" 296 0 basechar 0
LayerCount: 2
Fore
SplineSet
303 556 m 0,0,1
 416 556 416 556 482 491.5 c 128,-1,2
 548 427 548 427 548 308 c 2,3,-1
 548 236 l 1,4,-1
 196 236 l 1,5,6
 198 173 198 173 233.5 137 c 128,-1,7
 269 101 269 101 332 101 c 0,8,9
 384 101 384 101 427.5 111.5 c 128,-1,10
 471 122 471 122 517 144 c 1,11,-1
 517 29 l 1,12,13
 476 9 476 9 432 -0.5 c 128,-1,14
 388 -10 388 -10 325 -10 c 0,15,16
 243 -10 243 -10 180 20.5 c 128,-1,17
 117 51 117 51 81 112.5 c 128,-1,18
 45 174 45 174 45 269 c 256,19,20
 45 364 45 364 77.5 428 c 128,-1,21
 110 492 110 492 168 524 c 128,-1,22
 226 556 226 556 303 556 c 0,0,1
304 450 m 0,23,24
 260 450 260 450 232 422 c 128,-1,25
 204 394 204 394 199 335 c 1,26,-1
 408 335 l 1,27,28
 407 384 407 384 381.5 417 c 128,-1,29
 356 450 356 450 304 450 c 0,23,24
EndSplineSet
Substitution2: "'smcp' Lowercase to Small Capitals lookup 34 subtable" e.sc
EndChar

StartChar: f
Encoding: 102 102 73
Width: 387
GlyphClass: 2
Flags: W
AnchorPoint: "Anchor-3" 416 765 basechar 0
AnchorPoint: "Anchor-2" 269 765 basechar 0
AnchorPoint: "Anchor-0" 176 0 basechar 0
LayerCount: 2
Fore
SplineSet
380 434 m 1,0,-1
 251 434 l 1,1,-1
 251 0 l 1,2,-1
 102 0 l 1,3,-1
 102 434 l 1,4,-1
 20 434 l 1,5,-1
 20 506 l 1,6,-1
 102 546 l 1,7,-1
 102 586 l 2,8,9
 102 656 102 656 125.5 694.5 c 128,-1,10
 149 733 149 733 192.5 749 c 128,-1,11
 236 765 236 765 295 765 c 0,12,13
 338 765 338 765 374 758 c 128,-1,14
 410 751 410 751 432 742 c 1,15,-1
 394 633 l 1,16,17
 377 638 377 638 356.5 642.5 c 128,-1,18
 336 647 336 647 311 647 c 0,19,20
 280 647 280 647 265.5 628 c 128,-1,21
 251 609 251 609 251 580 c 2,22,-1
 251 546 l 1,23,-1
 380 546 l 1,24,-1
 380 434 l 1,0,-1
EndSplineSet
Substitution2: "'smcp' Lowercase to Small Capitals lookup 34 subtable" f.sc
EndChar

StartChar: g
Encoding: 103 103 74
Width: 633
GlyphClass: 2
Flags: W
AnchorPoint: "Anchor-3" 580 546 basechar 0
AnchorPoint: "Anchor-2" 314 546 basechar 0
AnchorPoint: "Anchor-0" 297 -240 basechar 0
LayerCount: 2
Fore
SplineSet
255 556 m 0,0,1
 356 556 356 556 413 476 c 1,2,-1
 417 476 l 1,3,-1
 429 546 l 1,4,-1
 555 546 l 1,5,-1
 555 -1 l 2,6,7
 555 -118 555 -118 486 -179 c 128,-1,8
 417 -240 417 -240 282 -240 c 0,9,10
 224 -240 224 -240 174.5 -233 c 128,-1,11
 125 -226 125 -226 78 -208 c 1,12,-1
 78 -89 l 1,13,14
 178 -131 178 -131 291 -131 c 0,15,16
 406 -131 406 -131 406 -7 c 2,17,-1
 406 4 l 2,18,19
 406 20 406 20 407 38.5 c 128,-1,20
 408 57 408 57 410 71 c 1,21,-1
 406 71 l 1,22,23
 378 28 378 28 339 9 c 128,-1,24
 300 -10 300 -10 251 -10 c 0,25,26
 154 -10 154 -10 99.5 64.5 c 128,-1,27
 45 139 45 139 45 272 c 0,28,29
 45 406 45 406 101 481 c 128,-1,30
 157 556 157 556 255 556 c 0,0,1
302 435 m 0,31,32
 197 435 197 435 197 270 c 0,33,34
 197 107 197 107 304 107 c 0,35,36
 361 107 361 107 388.5 139.5 c 128,-1,37
 416 172 416 172 416 253 c 2,38,-1
 416 271 l 2,39,40
 416 359 416 359 389 397 c 128,-1,41
 362 435 362 435 302 435 c 0,31,32
EndSplineSet
Substitution2: "'smcp' Lowercase to Small Capitals lookup 34 subtable" g.sc
EndChar

StartChar: h
Encoding: 104 104 75
Width: 657
GlyphClass: 2
Flags: W
AnchorPoint: "Anchor-3" 563 760 basechar 0
AnchorPoint: "Anchor-2" 155 760 basechar 0
AnchorPoint: "Anchor-1" 329 273 basechar 0
AnchorPoint: "Anchor-0" 331 0 basechar 0
LayerCount: 2
Fore
SplineSet
227 760 m 1,0,-1
 227 605 l 2,1,2
 227 564 227 564 224.5 527.5 c 128,-1,3
 222 491 222 491 220 476 c 1,4,-1
 228 476 l 1,5,6
 254 518 254 518 295 537 c 128,-1,7
 336 556 336 556 386 556 c 0,8,9
 474 556 474 556 528 508.5 c 128,-1,10
 582 461 582 461 582 356 c 2,11,-1
 582 0 l 1,12,-1
 433 0 l 1,13,-1
 433 319 l 2,14,15
 433 437 433 437 345 437 c 0,16,17
 278 437 278 437 252.5 390.5 c 128,-1,18
 227 344 227 344 227 257 c 2,19,-1
 227 0 l 1,20,-1
 78 0 l 1,21,-1
 78 760 l 1,22,-1
 227 760 l 1,0,-1
EndSplineSet
Substitution2: "'smcp' Lowercase to Small Capitals lookup 34 subtable" h.sc
Substitution2: "'subs' Subscript lookup 18 subtable" uni2095
EndChar

StartChar: i
Encoding: 105 105 76
Width: 305
GlyphClass: 2
Flags: W
AnchorPoint: "Anchor-3" 285 760 basechar 0
AnchorPoint: "Anchor-2" 153 760 basechar 0
AnchorPoint: "Anchor-0" 155 0 basechar 0
LayerCount: 2
Fore
SplineSet
153 760 m 0,0,1
 186 760 186 760 210 744.5 c 128,-1,2
 234 729 234 729 234 687 c 0,3,4
 234 646 234 646 210 630 c 128,-1,5
 186 614 186 614 153 614 c 0,6,7
 119 614 119 614 95.5 630 c 128,-1,8
 72 646 72 646 72 687 c 0,9,10
 72 729 72 729 95.5 744.5 c 128,-1,11
 119 760 119 760 153 760 c 0,0,1
227 546 m 1,12,-1
 227 0 l 1,13,-1
 78 0 l 1,14,-1
 78 546 l 1,15,-1
 227 546 l 1,12,-1
EndSplineSet
Substitution2: "'smcp' Lowercase to Small Capitals lookup 34 subtable" i.sc
Substitution2: "Single Substitution lookup 5 subtable" dotlessi
Substitution2: "Single Substitution lookup 4 subtable" dotlessi
EndChar

StartChar: j
Encoding: 106 106 77
Width: 305
GlyphClass: 2
Flags: W
AnchorPoint: "Anchor-3" 285 760 basechar 0
AnchorPoint: "Anchor-2" 153 760 basechar 0
AnchorPoint: "Anchor-0" 34 -240 basechar 0
LayerCount: 2
Fore
SplineSet
72 687 m 0,0,1
 72 729 72 729 95.5 744.5 c 128,-1,2
 119 760 119 760 153 760 c 0,3,4
 186 760 186 760 210 744.5 c 128,-1,5
 234 729 234 729 234 687 c 0,6,7
 234 646 234 646 210 630 c 128,-1,8
 186 614 186 614 153 614 c 0,9,10
 119 614 119 614 95.5 630 c 128,-1,11
 72 646 72 646 72 687 c 0,0,1
34 -240 m 0,12,13
 8 -240 8 -240 -19 -236.5 c 128,-1,14
 -46 -233 -46 -233 -64 -228 c 1,15,-1
 -64 -111 l 1,16,17
 -46 -116 -46 -116 -30 -118 c 128,-1,18
 -14 -120 -14 -120 6 -120 c 0,19,20
 36 -120 36 -120 57 -103 c 128,-1,21
 78 -86 78 -86 78 -37 c 2,22,-1
 78 546 l 1,23,-1
 227 546 l 1,24,-1
 227 -59 l 2,25,26
 227 -109 227 -109 208 -150 c 128,-1,27
 189 -191 189 -191 146.5 -215.5 c 128,-1,28
 104 -240 104 -240 34 -240 c 0,12,13
EndSplineSet
Substitution2: "'smcp' Lowercase to Small Capitals lookup 34 subtable" j.sc
Substitution2: "Single Substitution lookup 5 subtable" uni0237
Substitution2: "Single Substitution lookup 4 subtable" uni0237
EndChar

StartChar: k
Encoding: 107 107 78
Width: 620
GlyphClass: 2
Flags: W
AnchorPoint: "Anchor-3" 618 760 basechar 0
AnchorPoint: "Anchor-2" 159 760 basechar 0
AnchorPoint: "Anchor-0" 310 0 basechar 0
LayerCount: 2
Fore
SplineSet
227 760 m 1,0,-1
 227 420 l 2,1,2
 227 389 227 389 224.5 358.5 c 128,-1,3
 222 328 222 328 219 297 c 1,4,-1
 221 297 l 1,5,6
 236 318 236 318 252 339 c 128,-1,7
 268 360 268 360 286 380 c 2,8,-1
 439 546 l 1,9,-1
 607 546 l 1,10,-1
 390 309 l 1,11,-1
 620 0 l 1,12,-1
 448 0 l 1,13,-1
 291 221 l 1,14,-1
 227 170 l 1,15,-1
 227 0 l 1,16,-1
 78 0 l 1,17,-1
 78 760 l 1,18,-1
 227 760 l 1,0,-1
EndSplineSet
Substitution2: "'smcp' Lowercase to Small Capitals lookup 34 subtable" k.sc
Substitution2: "'subs' Subscript lookup 18 subtable" uni2096
EndChar

StartChar: l
Encoding: 108 108 79
Width: 305
GlyphClass: 2
Flags: W
AnchorPoint: "Anchor-3" 248 760 basechar 0
AnchorPoint: "Anchor-2" 153 760 basechar 0
AnchorPoint: "Anchor-1" 153 273 basechar 0
AnchorPoint: "Anchor-0" 153 0 basechar 0
LayerCount: 2
Fore
SplineSet
227 0 m 1,0,-1
 78 0 l 1,1,-1
 78 760 l 1,2,-1
 227 760 l 1,3,-1
 227 0 l 1,0,-1
EndSplineSet
Substitution2: "'smcp' Lowercase to Small Capitals lookup 34 subtable" l.sc
Substitution2: "'subs' Subscript lookup 18 subtable" uni2097
EndChar

StartChar: m
Encoding: 109 109 80
Width: 982
GlyphClass: 2
Flags: W
AnchorPoint: "Anchor-3" 932 546 basechar 0
AnchorPoint: "Anchor-2" 501 546 basechar 0
AnchorPoint: "Anchor-0" 494 0 basechar 0
LayerCount: 2
Fore
SplineSet
719 556 m 0,0,1
 812 556 812 556 859.5 508.5 c 128,-1,2
 907 461 907 461 907 356 c 2,3,-1
 907 0 l 1,4,-1
 758 0 l 1,5,-1
 758 319 l 2,6,7
 758 437 758 437 676 437 c 0,8,9
 617 437 617 437 592 395 c 128,-1,10
 567 353 567 353 567 274 c 2,11,-1
 567 0 l 1,12,-1
 418 0 l 1,13,-1
 418 319 l 2,14,15
 418 437 418 437 336 437 c 0,16,17
 274 437 274 437 250.5 390.5 c 128,-1,18
 227 344 227 344 227 257 c 2,19,-1
 227 0 l 1,20,-1
 78 0 l 1,21,-1
 78 546 l 1,22,-1
 192 546 l 1,23,-1
 212 476 l 1,24,-1
 220 476 l 1,25,26
 245 518 245 518 288.5 537 c 128,-1,27
 332 556 332 556 379 556 c 0,28,29
 439 556 439 556 480.5 536.5 c 128,-1,30
 522 517 522 517 545 476 c 1,31,-1
 558 476 l 1,32,33
 583 518 583 518 627.5 537 c 128,-1,34
 672 556 672 556 719 556 c 0,0,1
EndSplineSet
Substitution2: "'smcp' Lowercase to Small Capitals lookup 34 subtable" m.sc
Substitution2: "'subs' Subscript lookup 18 subtable" uni2098
EndChar

StartChar: n
Encoding: 110 110 81
Width: 657
GlyphClass: 2
Flags: W
AnchorPoint: "Anchor-3" 607 546 basechar 0
AnchorPoint: "Anchor-2" 329 546 basechar 0
AnchorPoint: "Anchor-0" 329 0 basechar 0
LayerCount: 2
Fore
SplineSet
388 556 m 0,0,1
 476 556 476 556 529 508.5 c 128,-1,2
 582 461 582 461 582 356 c 2,3,-1
 582 0 l 1,4,-1
 433 0 l 1,5,-1
 433 319 l 2,6,7
 433 378 433 378 412 407.5 c 128,-1,8
 391 437 391 437 345 437 c 0,9,10
 277 437 277 437 252 390.5 c 128,-1,11
 227 344 227 344 227 257 c 2,12,-1
 227 0 l 1,13,-1
 78 0 l 1,14,-1
 78 546 l 1,15,-1
 192 546 l 1,16,-1
 212 476 l 1,17,-1
 220 476 l 1,18,19
 246 518 246 518 291.5 537 c 128,-1,20
 337 556 337 556 388 556 c 0,0,1
EndSplineSet
Substitution2: "'smcp' Lowercase to Small Capitals lookup 34 subtable" n.sc
Substitution2: "'sups' Superscript lookup 19 subtable" nsuperior
Substitution2: "'subs' Subscript lookup 18 subtable" uni2099
EndChar

StartChar: o
Encoding: 111 111 82
Width: 619
GlyphClass: 2
Flags: W
AnchorPoint: "Anchor-3" 599 546 basechar 0
AnchorPoint: "Anchor-2" 310 546 basechar 0
AnchorPoint: "Anchor-1" 310 273 basechar 0
AnchorPoint: "Anchor-0" 310 0 basechar 0
LayerCount: 2
Fore
SplineSet
574 274 m 0,0,1
 574 138 574 138 502.5 64 c 128,-1,2
 431 -10 431 -10 308 -10 c 0,3,4
 232 -10 232 -10 172.5 23 c 128,-1,5
 113 56 113 56 79 119.5 c 128,-1,6
 45 183 45 183 45 274 c 0,7,8
 45 410 45 410 116 483 c 128,-1,9
 187 556 187 556 311 556 c 0,10,11
 388 556 388 556 447 523 c 128,-1,12
 506 490 506 490 540 427 c 128,-1,13
 574 364 574 364 574 274 c 0,0,1
197 274 m 256,14,15
 197 193 197 193 223.5 151.5 c 128,-1,16
 250 110 250 110 310 110 c 0,17,18
 369 110 369 110 395.5 151.5 c 128,-1,19
 422 193 422 193 422 274 c 256,20,21
 422 355 422 355 395.5 395.5 c 128,-1,22
 369 436 369 436 309 436 c 0,23,24
 250 436 250 436 223.5 395.5 c 128,-1,25
 197 355 197 355 197 274 c 256,14,15
EndSplineSet
Substitution2: "'smcp' Lowercase to Small Capitals lookup 34 subtable" o.sc
Substitution2: "Single Substitution lookup 28 subtable" ordmasculine
EndChar

StartChar: p
Encoding: 112 112 83
Width: 633
GlyphClass: 2
Flags: W
AnchorPoint: "Anchor-3" 613 546 basechar 0
AnchorPoint: "Anchor-2" 340 546 basechar 0
AnchorPoint: "Anchor-0" 154 -240 basechar 0
LayerCount: 2
Fore
SplineSet
382 556 m 0,0,1
 474 556 474 556 531 484.5 c 128,-1,2
 588 413 588 413 588 274 c 0,3,4
 588 134 588 134 529 62 c 128,-1,5
 470 -10 470 -10 378 -10 c 0,6,7
 319 -10 319 -10 284 11.5 c 128,-1,8
 249 33 249 33 227 60 c 1,9,-1
 219 60 l 1,10,11
 227 18 227 18 227 -20 c 2,12,-1
 227 -240 l 1,13,-1
 78 -240 l 1,14,-1
 78 546 l 1,15,-1
 199 546 l 1,16,-1
 220 475 l 1,17,-1
 227 475 l 1,18,19
 249 508 249 508 286 532 c 128,-1,20
 323 556 323 556 382 556 c 0,0,1
334 437 m 0,21,22
 276 437 276 437 252 400.5 c 128,-1,23
 228 364 228 364 227 291 c 2,24,-1
 227 275 l 2,25,26
 227 196 227 196 250.5 153.5 c 128,-1,27
 274 111 274 111 336 111 c 0,28,29
 387 111 387 111 411.5 153.5 c 128,-1,30
 436 196 436 196 436 276 c 0,31,32
 436 437 436 437 334 437 c 0,21,22
EndSplineSet
Substitution2: "'smcp' Lowercase to Small Capitals lookup 34 subtable" p.sc
Substitution2: "'subs' Subscript lookup 18 subtable" uni209A
EndChar

StartChar: q
Encoding: 113 113 84
Width: 633
GlyphClass: 2
Flags: W
AnchorPoint: "Anchor-3" 580 546 basechar 0
AnchorPoint: "Anchor-2" 317 546 basechar 0
AnchorPoint: "Anchor-0" 480 -240 basechar 0
LayerCount: 2
Fore
SplineSet
406 -240 m 1,0,-1
 406 -11 l 2,1,2
 406 30 406 30 412 71 c 1,3,-1
 406 71 l 1,4,5
 385 37 385 37 348 13.5 c 128,-1,6
 311 -10 311 -10 251 -10 c 0,7,8
 159 -10 159 -10 102 61.5 c 128,-1,9
 45 133 45 133 45 272 c 0,10,11
 45 412 45 412 103 484 c 128,-1,12
 161 556 161 556 254 556 c 0,13,14
 314 556 314 556 351.5 533 c 128,-1,15
 389 510 389 510 412 476 c 1,16,-1
 416 476 l 1,17,-1
 429 546 l 1,18,-1
 555 546 l 1,19,-1
 555 -240 l 1,20,-1
 406 -240 l 1,0,-1
304 107 m 0,21,22
 366 107 366 107 390 143.5 c 128,-1,23
 414 180 414 180 416 253 c 2,24,-1
 416 271 l 2,25,26
 416 350 416 350 391.5 392.5 c 128,-1,27
 367 435 367 435 302 435 c 0,28,29
 249 435 249 435 223 392.5 c 128,-1,30
 197 350 197 350 197 270 c 0,31,32
 197 107 197 107 304 107 c 0,21,22
EndSplineSet
Substitution2: "'smcp' Lowercase to Small Capitals lookup 34 subtable" q.sc
EndChar

StartChar: r
Encoding: 114 114 85
Width: 454
GlyphClass: 2
Flags: W
AnchorPoint: "Anchor-3" 434 546 basechar 0
AnchorPoint: "Anchor-2" 254 546 basechar 0
AnchorPoint: "Anchor-0" 156 0 basechar 0
LayerCount: 2
Fore
SplineSet
383 556 m 0,0,1
 394 556 394 556 409 555 c 128,-1,2
 424 554 424 554 433 552 c 1,3,-1
 422 412 l 1,4,5
 414 414 414 414 401 415.5 c 128,-1,6
 388 417 388 417 378 417 c 0,7,8
 340 417 340 417 305 403.5 c 128,-1,9
 270 390 270 390 248.5 360 c 128,-1,10
 227 330 227 330 227 278 c 2,11,-1
 227 0 l 1,12,-1
 78 0 l 1,13,-1
 78 546 l 1,14,-1
 191 546 l 1,15,-1
 213 454 l 1,16,-1
 220 454 l 1,17,18
 244 496 244 496 286 526 c 128,-1,19
 328 556 328 556 383 556 c 0,0,1
EndSplineSet
Substitution2: "'smcp' Lowercase to Small Capitals lookup 34 subtable" r.sc
EndChar

StartChar: s
Encoding: 115 115 86
Width: 497
GlyphClass: 2
Flags: W
AnchorPoint: "Anchor-3" 457 546 basechar 0
AnchorPoint: "Anchor-2" 249 546 basechar 0
AnchorPoint: "Anchor-0" 249 0 basechar 0
LayerCount: 2
Fore
SplineSet
459 162 m 0,0,1
 459 79 459 79 400.5 34.5 c 128,-1,2
 342 -10 342 -10 226 -10 c 0,3,4
 169 -10 169 -10 128 -2.5 c 128,-1,5
 87 5 87 5 46 22 c 1,6,-1
 46 145 l 1,7,8
 90 125 90 125 141 112 c 128,-1,9
 192 99 192 99 231 99 c 0,10,11
 274 99 274 99 293 112 c 128,-1,12
 312 125 312 125 312 146 c 0,13,14
 312 160 312 160 304.5 171 c 128,-1,15
 297 182 297 182 272 196 c 128,-1,16
 247 210 247 210 194 232 c 0,17,18
 142 254 142 254 109.5 275.5 c 128,-1,19
 77 297 77 297 61 327.5 c 128,-1,20
 45 358 45 358 45 404 c 0,21,22
 45 480 45 480 104 518 c 128,-1,23
 163 556 163 556 261 556 c 0,24,25
 312 556 312 556 358 546 c 128,-1,26
 404 536 404 536 453 513 c 1,27,-1
 408 406 l 1,28,29
 368 423 368 423 332 434.5 c 128,-1,30
 296 446 296 446 259 446 c 0,31,32
 193 446 193 446 193 410 c 0,33,34
 193 397 193 397 201.5 386.5 c 128,-1,35
 210 376 210 376 234.5 364 c 128,-1,36
 259 352 259 352 307 332 c 0,37,38
 354 313 354 313 388 292.5 c 128,-1,39
 422 272 422 272 440.5 241 c 128,-1,40
 459 210 459 210 459 162 c 0,0,1
EndSplineSet
Substitution2: "'smcp' Lowercase to Small Capitals lookup 34 subtable" s.sc
Substitution2: "'subs' Subscript lookup 18 subtable" uni209B
EndChar

StartChar: t
Encoding: 116 116 87
Width: 434
GlyphClass: 2
Flags: W
AnchorPoint: "Anchor-3" 396 662 basechar 0
AnchorPoint: "Anchor-2" 198 662 basechar 0
AnchorPoint: "Anchor-1" 217 273 basechar 0
AnchorPoint: "Anchor-0" 241 0 basechar 0
LayerCount: 2
Fore
SplineSet
308 109 m 0,0,1
 333 109 333 109 356 113.5 c 128,-1,2
 379 118 379 118 402 126 c 1,3,-1
 402 15 l 1,4,5
 378 4 378 4 342.5 -3 c 128,-1,6
 307 -10 307 -10 265 -10 c 0,7,8
 216 -10 216 -10 177.5 6 c 128,-1,9
 139 22 139 22 116.5 61 c 128,-1,10
 94 100 94 100 94 171 c 2,11,-1
 94 434 l 1,12,-1
 23 434 l 1,13,-1
 23 497 l 1,14,-1
 105 547 l 1,15,-1
 148 662 l 1,16,-1
 243 662 l 1,17,-1
 243 546 l 1,18,-1
 396 546 l 1,19,-1
 396 434 l 1,20,-1
 243 434 l 1,21,-1
 243 171 l 2,22,23
 243 140 243 140 261 124.5 c 128,-1,24
 279 109 279 109 308 109 c 0,0,1
EndSplineSet
Substitution2: "'smcp' Lowercase to Small Capitals lookup 34 subtable" t.sc
Substitution2: "'subs' Subscript lookup 18 subtable" uni209C
EndChar

StartChar: u
Encoding: 117 117 88
Width: 657
GlyphClass: 2
Flags: W
AnchorPoint: "Anchor-3" 604 546 basechar 0
AnchorPoint: "Anchor-2" 329 546 basechar 0
AnchorPoint: "Anchor-0" 318 0 basechar 0
LayerCount: 2
Fore
SplineSet
579 546 m 1,0,-1
 579 0 l 1,1,-1
 465 0 l 1,2,-1
 445 70 l 1,3,-1
 437 70 l 1,4,5
 411 28 411 28 365.5 9 c 128,-1,6
 320 -10 320 -10 269 -10 c 0,7,8
 181 -10 181 -10 128 37.5 c 128,-1,9
 75 85 75 85 75 190 c 2,10,-1
 75 546 l 1,11,-1
 224 546 l 1,12,-1
 224 227 l 2,13,14
 224 168 224 168 245 138.5 c 128,-1,15
 266 109 266 109 312 109 c 0,16,17
 380 109 380 109 405 155.5 c 128,-1,18
 430 202 430 202 430 289 c 2,19,-1
 430 546 l 1,20,-1
 579 546 l 1,0,-1
EndSplineSet
Substitution2: "'smcp' Lowercase to Small Capitals lookup 34 subtable" u.sc
EndChar

StartChar: v
Encoding: 118 118 89
Width: 569
GlyphClass: 2
Flags: W
AnchorPoint: "Anchor-3" 549 546 basechar 0
AnchorPoint: "Anchor-2" 281 546 basechar 0
AnchorPoint: "Anchor-0" 284 0 basechar 0
LayerCount: 2
Fore
SplineSet
208 0 m 1,0,-1
 0 546 l 1,1,-1
 156 546 l 1,2,-1
 261 235 l 2,3,4
 270 207 270 207 275 177 c 128,-1,5
 280 147 280 147 282 123 c 1,6,-1
 286 123 l 1,7,8
 289 177 289 177 308 235 c 2,9,-1
 413 546 l 1,10,-1
 569 546 l 1,11,-1
 361 0 l 1,12,-1
 208 0 l 1,0,-1
EndSplineSet
Substitution2: "'smcp' Lowercase to Small Capitals lookup 34 subtable" v.sc
EndChar

StartChar: w
Encoding: 119 119 90
Width: 856
GlyphClass: 2
Flags: W
AnchorPoint: "Anchor-3" 836 546 basechar 0
AnchorPoint: "Anchor-2" 428 546 basechar 0
AnchorPoint: "Anchor-0" 430 0 basechar 0
LayerCount: 2
Fore
SplineSet
527 0 m 1,0,-1
 485 191 l 2,1,2
 481 208 481 208 473.5 241.5 c 128,-1,3
 466 275 466 275 457 313.5 c 128,-1,4
 448 352 448 352 440 384.5 c 128,-1,5
 432 417 432 417 429 432 c 1,6,-1
 425 432 l 1,7,8
 422 417 422 417 414.5 384.5 c 128,-1,9
 407 352 407 352 398 313.5 c 128,-1,10
 389 275 389 275 381 241 c 128,-1,11
 373 207 373 207 369 189 c 2,12,-1
 325 0 l 1,13,-1
 165 0 l 1,14,-1
 10 546 l 1,15,-1
 158 546 l 1,16,-1
 221 304 l 2,17,18
 228 278 228 278 233.5 243.5 c 128,-1,19
 239 209 239 209 243.5 176.5 c 128,-1,20
 248 144 248 144 251 125 c 1,21,-1
 255 125 l 1,22,23
 256 139 256 139 259 162.5 c 128,-1,24
 262 186 262 186 266.5 211 c 128,-1,25
 271 236 271 236 274.5 256 c 128,-1,26
 278 276 278 276 280 284 c 2,27,-1
 347 546 l 1,28,-1
 511 546 l 1,29,-1
 575 284 l 2,30,31
 578 270 578 270 584 239 c 128,-1,32
 590 208 590 208 594 176 c 128,-1,33
 598 144 598 144 599 125 c 1,34,-1
 603 125 l 1,35,36
 605 142 605 142 610 174.5 c 128,-1,37
 615 207 615 207 621.5 242.5 c 128,-1,38
 628 278 628 278 635 304 c 2,39,-1
 700 546 l 1,40,-1
 846 546 l 1,41,-1
 689 0 l 1,42,-1
 527 0 l 1,0,-1
EndSplineSet
Substitution2: "'smcp' Lowercase to Small Capitals lookup 34 subtable" w.sc
EndChar

StartChar: x
Encoding: 120 120 91
Width: 578
GlyphClass: 2
Flags: W
AnchorPoint: "Anchor-3" 558 546 basechar 0
AnchorPoint: "Anchor-2" 288 546 basechar 0
AnchorPoint: "Anchor-0" 289 0 basechar 0
LayerCount: 2
Fore
SplineSet
190 279 m 1,0,-1
 14 546 l 1,1,-1
 183 546 l 1,2,-1
 289 372 l 1,3,-1
 396 546 l 1,4,-1
 565 546 l 1,5,-1
 387 279 l 1,6,-1
 573 0 l 1,7,-1
 404 0 l 1,8,-1
 289 187 l 1,9,-1
 174 0 l 1,10,-1
 5 0 l 1,11,-1
 190 279 l 1,0,-1
EndSplineSet
Substitution2: "'smcp' Lowercase to Small Capitals lookup 34 subtable" x.sc
EndChar

StartChar: y
Encoding: 121 121 92
Width: 569
GlyphClass: 2
Flags: W
AnchorPoint: "Anchor-3" 549 546 basechar 0
AnchorPoint: "Anchor-2" 285 546 basechar 0
AnchorPoint: "Anchor-0" 120 -240 basechar 0
LayerCount: 2
Fore
SplineSet
0 546 m 1,0,-1
 163 546 l 1,1,-1
 266 239 l 2,2,3
 274 216 274 216 278 193 c 128,-1,4
 282 170 282 170 284 144 c 1,5,-1
 287 144 l 1,6,7
 290 170 290 170 295 193 c 128,-1,8
 300 216 300 216 308 239 c 2,9,-1
 409 546 l 1,10,-1
 569 546 l 1,11,-1
 338 -70 l 2,12,13
 306 -155 306 -155 247 -197.5 c 128,-1,14
 188 -240 188 -240 110 -240 c 0,15,16
 84 -240 84 -240 66 -237.5 c 128,-1,17
 48 -235 48 -235 34 -232 c 1,18,-1
 34 -114 l 1,19,20
 44 -116 44 -116 60 -118 c 128,-1,21
 76 -120 76 -120 93 -120 c 0,22,23
 140 -120 140 -120 167 -91.5 c 128,-1,24
 194 -63 194 -63 208 -23 c 2,25,-1
 217 4 l 1,26,-1
 0 546 l 1,0,-1
EndSplineSet
Substitution2: "'smcp' Lowercase to Small Capitals lookup 34 subtable" y.sc
EndChar

StartChar: z
Encoding: 122 122 93
Width: 488
GlyphClass: 2
Flags: W
AnchorPoint: "Anchor-3" 458 546 basechar 0
AnchorPoint: "Anchor-2" 244 546 basechar 0
AnchorPoint: "Anchor-0" 248 0 basechar 0
LayerCount: 2
Fore
SplineSet
458 0 m 1,0,-1
 27 0 l 1,1,-1
 27 88 l 1,2,-1
 280 432 l 1,3,-1
 42 432 l 1,4,-1
 42 546 l 1,5,-1
 449 546 l 1,6,-1
 449 449 l 1,7,-1
 203 114 l 1,8,-1
 458 114 l 1,9,-1
 458 0 l 1,0,-1
EndSplineSet
Substitution2: "'smcp' Lowercase to Small Capitals lookup 34 subtable" z.sc
EndChar

StartChar: braceleft
Encoding: 123 123 94
Width: 394
Flags: W
LayerCount: 2
Fore
SplineSet
354 -158 m 1,0,1
 268 -158 268 -158 222 -144 c 128,-1,2
 176 -130 176 -130 158 -100 c 128,-1,3
 140 -70 140 -70 140 -22 c 2,4,-1
 140 132 l 2,5,6
 140 179 140 179 108 199 c 128,-1,7
 76 219 76 219 15 219 c 1,8,-1
 15 336 l 1,9,10
 76 336 76 336 108 356 c 128,-1,11
 140 376 140 376 140 423 c 2,12,-1
 140 578 l 2,13,14
 140 626 140 626 158 656 c 128,-1,15
 176 686 176 686 222 700 c 128,-1,16
 268 714 268 714 354 714 c 1,17,-1
 354 604 l 1,18,19
 315 603 315 603 292 590 c 128,-1,20
 269 577 269 577 269 535 c 2,21,-1
 269 389 l 2,22,23
 269 298 269 298 155 281 c 1,24,-1
 155 275 l 1,25,26
 269 258 269 258 269 167 c 2,27,-1
 269 21 l 2,28,29
 269 -21 269 -21 292 -34 c 128,-1,30
 315 -47 315 -47 354 -48 c 1,31,-1
 354 -158 l 1,0,1
EndSplineSet
Substitution2: "'smcp' Lowercase to Small Capitals lookup 34 subtable" braceleft.sc
Substitution2: "'c2sc' Capitals to Small Capitals lookup 33 subtable" braceleft.sc
EndChar

StartChar: bar
Encoding: 124 124 95
Width: 551
Flags: W
LayerCount: 2
Fore
SplineSet
222 757 m 1,0,-1
 329 757 l 1,1,-1
 329 -227 l 1,2,-1
 222 -227 l 1,3,-1
 222 757 l 1,0,-1
EndSplineSet
EndChar

StartChar: braceright
Encoding: 125 125 96
Width: 394
Flags: W
LayerCount: 2
Fore
SplineSet
40 -158 m 1,0,-1
 40 -48 l 1,1,2
 79 -47 79 -47 102 -34 c 128,-1,3
 125 -21 125 -21 125 21 c 2,4,-1
 125 167 l 2,5,6
 125 258 125 258 239 275 c 1,7,-1
 239 281 l 1,8,9
 125 298 125 298 125 389 c 2,10,-1
 125 535 l 2,11,12
 125 577 125 577 102 590 c 128,-1,13
 79 603 79 603 40 604 c 1,14,-1
 40 714 l 1,15,16
 126 714 126 714 172 700 c 128,-1,17
 218 686 218 686 236 656 c 128,-1,18
 254 626 254 626 254 578 c 2,19,-1
 254 423 l 2,20,21
 254 376 254 376 286 356 c 128,-1,22
 318 336 318 336 379 336 c 1,23,-1
 379 219 l 1,24,25
 318 219 318 219 286 199 c 128,-1,26
 254 179 254 179 254 132 c 2,27,-1
 254 -22 l 2,28,29
 254 -70 254 -70 236 -100 c 128,-1,30
 218 -130 218 -130 172 -144 c 128,-1,31
 126 -158 126 -158 40 -158 c 1,0,-1
EndSplineSet
Substitution2: "'smcp' Lowercase to Small Capitals lookup 34 subtable" braceright.sc
Substitution2: "'c2sc' Capitals to Small Capitals lookup 33 subtable" braceright.sc
EndChar

StartChar: asciitilde
Encoding: 126 126 97
Width: 572
Flags: W
LayerCount: 2
Fore
SplineSet
268 301 m 0,0,1
 231 317 231 317 205.5 322.5 c 128,-1,2
 180 328 180 328 157 328 c 0,3,4
 128 328 128 328 98 311 c 128,-1,5
 68 294 68 294 43 269 c 1,6,-1
 43 382 l 1,7,8
 93 435 93 435 168 435 c 0,9,10
 197 435 197 435 226.5 429.5 c 128,-1,11
 256 424 256 424 303 404 c 0,12,13
 340 388 340 388 366 382.5 c 128,-1,14
 392 377 392 377 414 377 c 0,15,16
 442 377 442 377 472.5 394 c 128,-1,17
 503 411 503 411 528 436 c 1,18,-1
 528 323 l 1,19,20
 478 270 478 270 403 270 c 0,21,22
 374 270 374 270 344.5 276 c 128,-1,23
 315 282 315 282 268 301 c 0,0,1
EndSplineSet
EndChar

StartChar: exclamdown
Encoding: 161 161 99
Width: 286
Flags: W
LayerCount: 2
Fore
SplineSet
228 463 m 0,0,1
 228 417 228 417 203 398.5 c 128,-1,2
 178 380 178 380 142 380 c 0,3,4
 108 380 108 380 82.5 398.5 c 128,-1,5
 57 417 57 417 57 463 c 0,6,7
 57 507 57 507 82.5 526.5 c 128,-1,8
 108 546 108 546 142 546 c 0,9,10
 178 546 178 546 203 526.5 c 128,-1,11
 228 507 228 507 228 463 c 0,0,1
82 296 m 1,12,-1
 201 296 l 1,13,-1
 226 -180 l 1,14,-1
 57 -180 l 1,15,-1
 82 296 l 1,12,-1
EndSplineSet
Substitution2: "'smcp' Lowercase to Small Capitals lookup 34 subtable" exclamdown.sc
Substitution2: "'c2sc' Capitals to Small Capitals lookup 33 subtable" exclamdown.sc
EndChar

StartChar: cent
Encoding: 162 162 100
Width: 572
Flags: W
LayerCount: 2
Fore
SplineSet
362 724 m 1,0,-1
 362 647 l 1,1,2
 409 645 409 645 444.5 634.5 c 128,-1,3
 480 624 480 624 508 611 c 1,4,-1
 464 496 l 1,5,6
 429 510 429 510 398.5 519 c 128,-1,7
 368 528 368 528 338 528 c 0,8,9
 222 528 222 528 222 363 c 0,10,11
 222 281 222 281 252 242 c 128,-1,12
 282 203 282 203 338 203 c 0,13,14
 384 203 384 203 418 213 c 128,-1,15
 452 223 452 223 491 240 c 1,16,-1
 491 116 l 1,17,18
 460 101 460 101 428.5 92.5 c 128,-1,19
 397 84 397 84 362 82 c 1,20,-1
 362 -10 l 1,21,-1
 275 -10 l 1,22,-1
 275 86 l 1,23,24
 178 100 178 100 124 166 c 128,-1,25
 70 232 70 232 70 362 c 0,26,27
 70 456 70 456 95.5 514.5 c 128,-1,28
 121 573 121 573 167.5 603.5 c 128,-1,29
 214 634 214 634 275 643 c 1,30,-1
 275 724 l 1,31,-1
 362 724 l 1,0,-1
EndSplineSet
EndChar

StartChar: sterling
Encoding: 163 163 101
Width: 572
Flags: W
LayerCount: 2
Fore
SplineSet
342 724 m 0,0,1
 396 724 396 724 444.5 712 c 128,-1,2
 493 700 493 700 532 684 c 1,3,-1
 487 572 l 1,4,5
 452 586 452 586 418.5 594.5 c 128,-1,6
 385 603 385 603 354 603 c 0,7,8
 322 603 322 603 298.5 584.5 c 128,-1,9
 275 566 275 566 275 519 c 2,10,-1
 275 425 l 1,11,-1
 458 425 l 1,12,-1
 458 318 l 1,13,-1
 275 318 l 1,14,-1
 275 248 l 2,15,16
 275 195 275 195 251 167.5 c 128,-1,17
 227 140 227 140 201 127 c 1,18,-1
 552 127 l 1,19,-1
 552 0 l 1,20,-1
 40 0 l 1,21,-1
 40 121 l 1,22,23
 81 139 81 139 104.5 164.5 c 128,-1,24
 128 190 128 190 128 247 c 2,25,-1
 128 318 l 1,26,-1
 41 318 l 1,27,-1
 41 425 l 1,28,-1
 128 425 l 1,29,-1
 128 520 l 2,30,31
 128 594 128 594 157 638.5 c 128,-1,32
 186 683 186 683 234.5 703.5 c 128,-1,33
 283 724 283 724 342 724 c 0,0,1
EndSplineSet
EndChar

StartChar: currency
Encoding: 164 164 102
Width: 572
Flags: W
LayerCount: 2
Fore
SplineSet
92 353 m 0,0,1
 92 379 92 379 99 403.5 c 128,-1,2
 106 428 106 428 118 449 c 1,3,-1
 55 511 l 1,4,-1
 127 583 l 1,5,-1
 189 521 l 1,6,7
 210 533 210 533 235 540 c 128,-1,8
 260 547 260 547 285 547 c 0,9,10
 336 547 336 547 381 520 c 1,11,-1
 443 583 l 1,12,-1
 516 513 l 1,13,-1
 453 450 l 1,14,15
 465 430 465 430 472 404.5 c 128,-1,16
 479 379 479 379 479 353 c 0,17,18
 479 300 479 300 453 256 c 1,19,-1
 514 195 l 1,20,-1
 443 124 l 1,21,-1
 381 185 l 1,22,23
 360 174 360 174 335.5 167 c 128,-1,24
 311 160 311 160 285 160 c 0,25,26
 229 160 229 160 188 185 c 1,27,-1
 127 125 l 1,28,-1
 56 196 l 1,29,-1
 118 257 l 1,30,31
 92 301 92 301 92 353 c 0,0,1
193 353 m 0,32,33
 193 315 193 315 220 288 c 128,-1,34
 247 261 247 261 285 261 c 0,35,36
 324 261 324 261 351.5 288 c 128,-1,37
 379 315 379 315 379 353 c 0,38,39
 379 392 379 392 351.5 419 c 128,-1,40
 324 446 324 446 285 446 c 0,41,42
 247 446 247 446 220 419 c 128,-1,43
 193 392 193 392 193 353 c 0,32,33
EndSplineSet
EndChar

StartChar: yen
Encoding: 165 165 103
Width: 572
Flags: W
LayerCount: 2
Fore
SplineSet
285 420 m 1,0,-1
 414 714 l 1,1,-1
 567 714 l 1,2,-1
 380 349 l 1,3,-1
 475 349 l 1,4,-1
 475 262 l 1,5,-1
 355 262 l 1,6,-1
 355 195 l 1,7,-1
 475 195 l 1,8,-1
 475 108 l 1,9,-1
 355 108 l 1,10,-1
 355 0 l 1,11,-1
 215 0 l 1,12,-1
 215 108 l 1,13,-1
 94 108 l 1,14,-1
 94 195 l 1,15,-1
 215 195 l 1,16,-1
 215 262 l 1,17,-1
 94 262 l 1,18,-1
 94 349 l 1,19,-1
 187 349 l 1,20,-1
 3 714 l 1,21,-1
 157 714 l 1,22,-1
 285 420 l 1,0,-1
EndSplineSet
EndChar

StartChar: brokenbar
Encoding: 166 166 104
Width: 551
Flags: W
LayerCount: 2
Fore
SplineSet
222 757 m 1,0,-1
 329 757 l 1,1,-1
 329 359 l 1,2,-1
 222 359 l 1,3,-1
 222 757 l 1,0,-1
222 171 m 1,4,-1
 329 171 l 1,5,-1
 329 -227 l 1,6,-1
 222 -227 l 1,7,-1
 222 171 l 1,4,-1
EndSplineSet
EndChar

StartChar: section
Encoding: 167 167 105
Width: 486
Flags: W
LayerCount: 2
Fore
SplineSet
59 391 m 0,0,1
 59 434 59 434 78.5 464 c 128,-1,2
 98 494 98 494 124 512 c 1,3,4
 93 532 93 532 76 560 c 128,-1,5
 59 588 59 588 59 625 c 0,6,7
 59 688 59 688 113.5 726.5 c 128,-1,8
 168 765 168 765 257 765 c 0,9,10
 306 765 306 765 349.5 753.5 c 128,-1,11
 393 742 393 742 434 724 c 1,12,-1
 394 631 l 1,13,14
 361 647 361 647 326.5 659.5 c 128,-1,15
 292 672 292 672 254 672 c 0,16,17
 214 672 214 672 196 661 c 128,-1,18
 178 650 178 650 178 627 c 0,19,20
 178 602 178 602 202.5 585 c 128,-1,21
 227 568 227 568 282 546 c 0,22,23
 352 518 352 518 394.5 479 c 128,-1,24
 437 440 437 440 437 381 c 0,25,26
 437 332 437 332 420 302.5 c 128,-1,27
 403 273 403 273 376 255 c 1,28,29
 406 236 406 236 421.5 210 c 128,-1,30
 437 184 437 184 437 148 c 0,31,32
 437 76 437 76 379 33 c 128,-1,33
 321 -10 321 -10 222 -10 c 0,34,35
 169 -10 169 -10 127.5 0 c 128,-1,36
 86 10 86 10 52 29 c 1,37,-1
 52 130 l 1,38,39
 90 110 90 110 137 96 c 128,-1,40
 184 82 184 82 222 82 c 0,41,42
 277 82 277 82 297 98.5 c 128,-1,43
 317 115 317 115 317 139 c 0,44,45
 317 156 317 156 309.5 168 c 128,-1,46
 302 180 302 180 280.5 192.5 c 128,-1,47
 259 205 259 205 216 223 c 0,48,49
 166 244 166 244 131 265.5 c 128,-1,50
 96 287 96 287 77.5 316.5 c 128,-1,51
 59 346 59 346 59 391 c 0,0,1
168 402 m 0,52,53
 168 372 168 372 195.5 348.5 c 128,-1,54
 223 325 223 325 281 301 c 2,55,-1
 288 298 l 1,56,57
 302 308 302 308 314 325 c 128,-1,58
 326 342 326 342 326 368 c 0,59,60
 326 398 326 398 303 421.5 c 128,-1,61
 280 445 280 445 212 469 c 1,62,63
 195 462 195 462 181.5 444.5 c 128,-1,64
 168 427 168 427 168 402 c 0,52,53
EndSplineSet
EndChar

StartChar: dieresis
Encoding: 168 168 106
Width: 607
Flags: W
LayerCount: 2
Fore
SplineSet
136 686 m 0,0,1
 136 720 136 720 156 736 c 128,-1,2
 176 752 176 752 204 752 c 256,3,4
 232 752 232 752 252.5 736 c 128,-1,5
 273 720 273 720 273 686 c 0,6,7
 273 653 273 653 252.5 637 c 128,-1,8
 232 621 232 621 204 621 c 256,9,10
 176 621 176 621 156 637 c 128,-1,11
 136 653 136 653 136 686 c 0,0,1
333 686 m 0,12,13
 333 720 333 720 353 736 c 128,-1,14
 373 752 373 752 402 752 c 0,15,16
 430 752 430 752 450.5 736 c 128,-1,17
 471 720 471 720 471 686 c 0,18,19
 471 653 471 653 450.5 637 c 128,-1,20
 430 621 430 621 402 621 c 0,21,22
 373 621 373 621 353 637 c 128,-1,23
 333 653 333 653 333 686 c 0,12,13
EndSplineSet
EndChar

StartChar: copyright
Encoding: 169 169 107
Width: 832
Flags: W
LayerCount: 2
Fore
SplineSet
416 -10 m 256,0,1
 336 -10 336 -10 269 17 c 128,-1,2
 202 44 202 44 152.5 93.5 c 128,-1,3
 103 143 103 143 76 210 c 128,-1,4
 49 277 49 277 49 357 c 0,5,6
 49 433 49 433 76.5 499.5 c 128,-1,7
 104 566 104 566 154 616.5 c 128,-1,8
 204 667 204 667 271 695.5 c 128,-1,9
 338 724 338 724 416 724 c 0,10,11
 492 724 492 724 558.5 697 c 128,-1,12
 625 670 625 670 675.5 620.5 c 128,-1,13
 726 571 726 571 754.5 504 c 128,-1,14
 783 437 783 437 783 357 c 256,15,16
 783 277 783 277 756 210 c 128,-1,17
 729 143 729 143 679.5 93.5 c 128,-1,18
 630 44 630 44 563 17 c 128,-1,19
 496 -10 496 -10 416 -10 c 256,0,1
416 54 m 0,20,21
 498 54 498 54 565.5 93 c 128,-1,22
 633 132 633 132 673 200 c 128,-1,23
 713 268 713 268 713 357 c 0,24,25
 713 420 713 420 690.5 475 c 128,-1,26
 668 530 668 530 628 572 c 128,-1,27
 588 614 588 614 533.5 637.5 c 128,-1,28
 479 661 479 661 416 661 c 0,29,30
 330 661 330 661 262.5 622 c 128,-1,31
 195 583 195 583 156 514.5 c 128,-1,32
 117 446 117 446 117 357 c 256,33,34
 117 268 117 268 155.5 200 c 128,-1,35
 194 132 194 132 261 93 c 128,-1,36
 328 54 328 54 416 54 c 0,20,21
431 128 m 0,37,38
 329 128 329 128 278.5 191 c 128,-1,39
 228 254 228 254 228 357 c 0,40,41
 228 424 228 424 252 475.5 c 128,-1,42
 276 527 276 527 322 556.5 c 128,-1,43
 368 586 368 586 435 586 c 0,44,45
 500 586 500 586 558 556 c 1,46,-1
 529 489 l 1,47,48
 479 515 479 515 436 515 c 0,49,50
 377 515 377 515 344.5 472.5 c 128,-1,51
 312 430 312 430 312 357 c 0,52,53
 312 280 312 280 340.5 239 c 128,-1,54
 369 198 369 198 435 198 c 0,55,56
 458 198 458 198 486.5 204.5 c 128,-1,57
 515 211 515 211 540 221 c 1,58,-1
 540 152 l 1,59,60
 516 142 516 142 491 135 c 128,-1,61
 466 128 466 128 431 128 c 0,37,38
EndSplineSet
EndChar

StartChar: ordfeminine
Encoding: 170 170 108
Width: 383
Flags: W
LayerCount: 2
Fore
SplineSet
200 722 m 0,0,1
 271 722 271 722 305.5 686 c 128,-1,2
 340 650 340 650 340 589 c 2,3,-1
 340 373 l 1,4,-1
 274 373 l 1,5,-1
 259 427 l 1,6,7
 215 367 215 367 141 367 c 0,8,9
 88 367 88 367 55.5 393.5 c 128,-1,10
 23 420 23 420 23 476 c 0,11,12
 23 534 23 534 68 558.5 c 128,-1,13
 113 583 113 583 194 587 c 2,14,-1
 242 589 l 1,15,-1
 242 597 l 2,16,17
 242 646 242 646 180 646 c 0,18,19
 158 646 158 646 130.5 638 c 128,-1,20
 103 630 103 630 74 616 c 1,21,-1
 42 682 l 1,22,23
 74 698 74 698 113 710 c 128,-1,24
 152 722 152 722 200 722 c 0,0,1
242 531 m 1,25,-1
 194 528 l 2,26,27
 150 525 150 525 136.5 509.5 c 128,-1,28
 123 494 123 494 123 477 c 0,29,30
 123 458 123 458 134 449.5 c 128,-1,31
 145 441 145 441 161 441 c 0,32,33
 198 441 198 441 220 461.5 c 128,-1,34
 242 482 242 482 242 513 c 2,35,-1
 242 531 l 1,25,-1
EndSplineSet
EndChar

StartChar: guillemotleft
Encoding: 171 171 109
Width: 615
Flags: W
LayerCount: 2
Fore
SplineSet
40 280 m 1,0,-1
 221 502 l 1,1,-1
 328 444 l 1,2,-1
 192 274 l 1,3,-1
 328 104 l 1,4,-1
 221 46 l 1,5,-1
 40 267 l 1,6,-1
 40 280 l 1,0,-1
287 280 m 1,7,-1
 468 502 l 1,8,-1
 575 444 l 1,9,-1
 439 274 l 1,10,-1
 575 104 l 1,11,-1
 468 46 l 1,12,-1
 287 267 l 1,13,-1
 287 280 l 1,7,-1
EndSplineSet
EndChar

StartChar: logicalnot
Encoding: 172 172 110
Width: 572
Flags: W
LayerCount: 2
Fore
SplineSet
528 406 m 1,0,-1
 528 121 l 1,1,-1
 421 121 l 1,2,-1
 421 299 l 1,3,-1
 43 299 l 1,4,-1
 43 406 l 1,5,-1
 528 406 l 1,0,-1
EndSplineSet
EndChar

StartChar: registered
Encoding: 174 174 112
Width: 832
Flags: W
LayerCount: 2
Fore
SplineSet
416 -10 m 256,0,1
 336 -10 336 -10 269 17 c 128,-1,2
 202 44 202 44 152.5 93.5 c 128,-1,3
 103 143 103 143 76 210 c 128,-1,4
 49 277 49 277 49 357 c 0,5,6
 49 433 49 433 76.5 499.5 c 128,-1,7
 104 566 104 566 154 616.5 c 128,-1,8
 204 667 204 667 271 695.5 c 128,-1,9
 338 724 338 724 416 724 c 0,10,11
 492 724 492 724 558.5 697 c 128,-1,12
 625 670 625 670 675.5 620.5 c 128,-1,13
 726 571 726 571 754.5 504 c 128,-1,14
 783 437 783 437 783 357 c 256,15,16
 783 277 783 277 756 210 c 128,-1,17
 729 143 729 143 679.5 93.5 c 128,-1,18
 630 44 630 44 563 17 c 128,-1,19
 496 -10 496 -10 416 -10 c 256,0,1
416 54 m 0,20,21
 498 54 498 54 565.5 93 c 128,-1,22
 633 132 633 132 673 200 c 128,-1,23
 713 268 713 268 713 357 c 0,24,25
 713 420 713 420 690.5 475 c 128,-1,26
 668 530 668 530 628 572 c 128,-1,27
 588 614 588 614 533.5 637.5 c 128,-1,28
 479 661 479 661 416 661 c 0,29,30
 330 661 330 661 262.5 622 c 128,-1,31
 195 583 195 583 156 514.5 c 128,-1,32
 117 446 117 446 117 357 c 256,33,34
 117 268 117 268 155.5 200 c 128,-1,35
 194 132 194 132 261 93 c 128,-1,36
 328 54 328 54 416 54 c 0,20,21
274 138 m 1,37,-1
 274 580 l 1,38,-1
 407 580 l 2,39,40
 489 580 489 580 527 545 c 128,-1,41
 565 510 565 510 565 446 c 0,42,43
 565 399 565 399 541 371.5 c 128,-1,44
 517 344 517 344 487 332 c 1,45,-1
 603 138 l 1,46,-1
 512 138 l 1,47,-1
 417 306 l 1,48,-1
 355 306 l 1,49,-1
 355 138 l 1,50,-1
 274 138 l 1,37,-1
355 373 m 1,51,-1
 405 373 l 2,52,53
 444 373 444 373 463.5 392.5 c 128,-1,54
 483 412 483 412 483 444 c 0,55,56
 483 479 483 479 465.5 495 c 128,-1,57
 448 511 448 511 404 511 c 2,58,-1
 355 511 l 1,59,-1
 355 373 l 1,51,-1
EndSplineSet
EndChar

StartChar: overscore
Encoding: 175 175 113
Width: 500
Flags: W
LayerCount: 2
Fore
SplineSet
503 760 m 1,0,-1
 -3 760 l 1,1,-1
 -3 858 l 1,2,-1
 503 858 l 1,3,-1
 503 760 l 1,0,-1
EndSplineSet
Substitution2: "'smcp' Lowercase to Small Capitals lookup 34 subtable" overscore.sc
Substitution2: "'c2sc' Capitals to Small Capitals lookup 33 subtable" overscore.sc
EndChar

StartChar: degree
Encoding: 176 176 114
Width: 428
Flags: W
LayerCount: 2
Fore
SplineSet
214 387 m 256,0,1
 162 387 162 387 123 408.5 c 128,-1,2
 84 430 84 430 61.5 468 c 128,-1,3
 39 506 39 506 39 555 c 256,4,5
 39 604 39 604 61.5 642 c 128,-1,6
 84 680 84 680 123 702 c 128,-1,7
 162 724 162 724 214 724 c 256,8,9
 266 724 266 724 305 702.5 c 128,-1,10
 344 681 344 681 366 642.5 c 128,-1,11
 388 604 388 604 388 555 c 256,12,13
 388 506 388 506 366 468 c 128,-1,14
 344 430 344 430 305 408.5 c 128,-1,15
 266 387 266 387 214 387 c 256,0,1
214 480 m 256,16,17
 246 480 246 480 268 500 c 128,-1,18
 290 520 290 520 290 555 c 0,19,20
 290 591 290 591 268 611.5 c 128,-1,21
 246 632 246 632 214 632 c 256,22,23
 182 632 182 632 160 611.5 c 128,-1,24
 138 591 138 591 138 555 c 0,25,26
 138 520 138 520 160 500 c 128,-1,27
 182 480 182 480 214 480 c 256,16,17
EndSplineSet
EndChar

StartChar: plusminus
Encoding: 177 177 115
Width: 572
Flags: W
LayerCount: 2
Fore
SplineSet
339 436 m 1,0,-1
 528 436 l 1,1,-1
 528 329 l 1,2,-1
 339 329 l 1,3,-1
 339 141 l 1,4,-1
 232 141 l 1,5,-1
 232 329 l 1,6,-1
 43 329 l 1,7,-1
 43 436 l 1,8,-1
 232 436 l 1,9,-1
 232 626 l 1,10,-1
 339 626 l 1,11,-1
 339 436 l 1,0,-1
43 0 m 1,12,-1
 43 107 l 1,13,-1
 528 107 l 1,14,-1
 528 0 l 1,15,-1
 43 0 l 1,12,-1
EndSplineSet
EndChar

StartChar: uni00B2
Encoding: 178 178 116
Width: 379
Flags: W
LayerCount: 2
Fore
SplineSet
343 416 m 1,0,-1
 27 416 l 1,1,-1
 27 498 l 1,2,-1
 136 605 l 2,3,4
 181 648 181 648 197.5 672 c 128,-1,5
 214 696 214 696 214 722 c 0,6,7
 214 740 214 740 202 750 c 128,-1,8
 190 760 190 760 171 760 c 0,9,10
 132 760 132 760 83 717 c 1,11,-1
 23 791 l 1,12,13
 54 819 54 819 94 836.5 c 128,-1,14
 134 854 134 854 187 854 c 0,15,16
 252 854 252 854 291.5 822.5 c 128,-1,17
 331 791 331 791 331 732 c 0,18,19
 331 687 331 687 305.5 650 c 128,-1,20
 280 613 280 613 222 560 c 2,21,-1
 171 514 l 1,22,-1
 343 514 l 1,23,-1
 343 416 l 1,0,-1
EndSplineSet
EndChar

StartChar: uni00B3
Encoding: 179 179 117
Width: 379
Flags: W
LayerCount: 2
Fore
SplineSet
184 853 m 0,0,1
 245 853 245 853 285 822.5 c 128,-1,2
 325 792 325 792 325 740 c 0,3,4
 325 706 325 706 305.5 681.5 c 128,-1,5
 286 657 286 657 242 643 c 1,6,-1
 242 637 l 1,7,8
 292 626 292 626 315.5 598 c 128,-1,9
 339 570 339 570 339 535 c 0,10,11
 339 476 339 476 296 442 c 128,-1,12
 253 408 253 408 162 408 c 0,13,14
 91 408 91 408 29 442 c 1,15,-1
 29 535 l 1,16,17
 61 516 61 516 93.5 503.5 c 128,-1,18
 126 491 126 491 161 491 c 0,19,20
 231 491 231 491 231 543 c 0,21,22
 231 563 231 563 214 579 c 128,-1,23
 197 595 197 595 150 595 c 2,24,-1
 95 595 l 1,25,-1
 95 673 l 1,26,-1
 140 673 l 2,27,28
 191 673 191 673 205.5 689.5 c 128,-1,29
 220 706 220 706 220 726 c 0,30,31
 220 745 220 745 208 757 c 128,-1,32
 196 769 196 769 171 769 c 0,33,34
 148 769 148 769 127.5 759.5 c 128,-1,35
 107 750 107 750 79 731 c 1,36,-1
 30 800 l 1,37,38
 60 822 60 822 97 837.5 c 128,-1,39
 134 853 134 853 184 853 c 0,0,1
EndSplineSet
EndChar

StartChar: acute
Encoding: 180 180 118
Width: 362
Flags: W
LayerCount: 2
Fore
SplineSet
322 766 m 1,0,-1
 322 756 l 1,1,2
 308 742 308 742 285 722 c 128,-1,3
 262 702 262 702 235.5 680 c 128,-1,4
 209 658 209 658 183.5 638.5 c 128,-1,5
 158 619 158 619 139 606 c 1,6,-1
 40 606 l 1,7,-1
 40 619 l 1,8,9
 56 638 56 638 77.5 663.5 c 128,-1,10
 99 689 99 689 119.5 716.5 c 128,-1,11
 140 744 140 744 155 766 c 1,12,-1
 322 766 l 1,0,-1
EndSplineSet
EndChar

StartChar: uni00B5
Encoding: 181 181 119
Width: 660
Flags: W
LayerCount: 2
Fore
SplineSet
582 546 m 1,0,-1
 582 0 l 1,1,-1
 469 0 l 1,2,-1
 448 73 l 1,3,-1
 441 73 l 1,4,5
 421 32 421 32 391.5 11 c 128,-1,6
 362 -10 362 -10 319 -10 c 0,7,8
 258 -10 258 -10 225 34 c 1,9,-1
 222 34 l 1,10,11
 224 24 224 24 225 2.5 c 128,-1,12
 226 -19 226 -19 226.5 -42.5 c 128,-1,13
 227 -66 227 -66 227 -84 c 2,14,-1
 227 -240 l 1,15,-1
 78 -240 l 1,16,-1
 78 546 l 1,17,-1
 227 546 l 1,18,-1
 227 227 l 2,19,20
 227 109 227 109 316 109 c 0,21,22
 383 109 383 109 408 155.5 c 128,-1,23
 433 202 433 202 433 289 c 2,24,-1
 433 546 l 1,25,-1
 582 546 l 1,0,-1
EndSplineSet
EndChar

StartChar: paragraph
Encoding: 182 182 120
Width: 655
Flags: W
LayerCount: 2
Fore
SplineSet
570 -127 m 1,0,-1
 491 -127 l 1,1,-1
 491 662 l 1,2,-1
 410 662 l 1,3,-1
 410 -127 l 1,4,-1
 331 -127 l 1,5,-1
 331 273 l 1,6,7
 301 264 301 264 260 264 c 0,8,9
 198 264 198 264 152 287 c 128,-1,10
 106 310 106 310 80.5 364 c 128,-1,11
 55 418 55 418 55 509 c 0,12,13
 55 604 55 604 82.5 659 c 128,-1,14
 110 714 110 714 160 737 c 128,-1,15
 210 760 210 760 275 760 c 2,16,-1
 570 760 l 1,17,-1
 570 -127 l 1,0,-1
EndSplineSet
EndChar

StartChar: cedilla
Encoding: 184 184 122
Width: 205
Flags: W
LayerCount: 2
Fore
SplineSet
204 -122 m 0,0,1
 204 -178 204 -178 171 -209 c 128,-1,2
 138 -240 138 -240 53 -240 c 0,3,4
 31 -240 31 -240 13.5 -237 c 128,-1,5
 -4 -234 -4 -234 -18 -230 c 1,6,-1
 -18 -148 l 1,7,8
 -4 -152 -4 -152 16.5 -155 c 128,-1,9
 37 -158 37 -158 52 -158 c 0,10,11
 66 -158 66 -158 76.5 -151.5 c 128,-1,12
 87 -145 87 -145 87 -128 c 0,13,14
 87 -110 87 -110 69 -96 c 128,-1,15
 51 -82 51 -82 6 -75 c 1,16,-1
 44 0 l 1,17,-1
 138 0 l 1,18,-1
 125 -30 l 1,19,20
 155 -40 155 -40 179.5 -62.5 c 128,-1,21
 204 -85 204 -85 204 -122 c 0,0,1
EndSplineSet
EndChar

StartChar: uni00B9
Encoding: 185 185 123
Width: 379
Flags: W
LayerCount: 2
Fore
SplineSet
285 844 m 1,0,-1
 285 416 l 1,1,-1
 169 416 l 1,2,-1
 169 634 l 2,3,4
 169 647 169 647 169.5 668 c 128,-1,5
 170 689 170 689 171 708.5 c 128,-1,6
 172 728 172 728 173 735 c 1,7,8
 167 727 167 727 155.5 715.5 c 128,-1,9
 144 704 144 704 136 697 c 2,10,-1
 98 667 l 1,11,-1
 45 729 l 1,12,-1
 192 844 l 1,13,-1
 285 844 l 1,0,-1
EndSplineSet
EndChar

StartChar: ordmasculine
Encoding: 186 186 124
Width: 388
Flags: W
LayerCount: 2
Fore
SplineSet
360 545 m 256,0,1
 360 460 360 460 315 413.5 c 128,-1,2
 270 367 270 367 193 367 c 0,3,4
 121 367 121 367 74.5 413.5 c 128,-1,5
 28 460 28 460 28 545 c 256,6,7
 28 630 28 630 73 676 c 128,-1,8
 118 722 118 722 195 722 c 0,9,10
 266 722 266 722 313 676 c 128,-1,11
 360 630 360 630 360 545 c 256,0,1
127 545 m 256,12,13
 127 496 127 496 143 471.5 c 128,-1,14
 159 447 159 447 194 447 c 0,15,16
 260 447 260 447 260 545 c 0,17,18
 260 642 260 642 194 642 c 0,19,20
 159 642 159 642 143 618 c 128,-1,21
 127 594 127 594 127 545 c 256,12,13
EndSplineSet
EndChar

StartChar: guillemotright
Encoding: 187 187 125
Width: 615
Flags: W
LayerCount: 2
Fore
SplineSet
575 267 m 1,0,-1
 394 46 l 1,1,-1
 287 104 l 1,2,-1
 423 274 l 1,3,-1
 287 444 l 1,4,-1
 394 502 l 1,5,-1
 575 280 l 1,6,-1
 575 267 l 1,0,-1
328 267 m 1,7,-1
 147 46 l 1,8,-1
 40 104 l 1,9,-1
 176 274 l 1,10,-1
 40 444 l 1,11,-1
 147 502 l 1,12,-1
 328 280 l 1,13,-1
 328 267 l 1,7,-1
EndSplineSet
EndChar

StartChar: onequarter
Encoding: 188 188 126
Width: 830
Flags: W
LayerCount: 2
Fore
SplineSet
156 0 m 1,0,-1
 552 714 l 1,1,-1
 669 714 l 1,2,-1
 273 0 l 1,3,-1
 156 0 l 1,0,-1
146 286 m 1,4,-1
 146 504 l 2,5,6
 146 517 146 517 146.5 538 c 128,-1,7
 147 559 147 559 148 578.5 c 128,-1,8
 149 598 149 598 150 605 c 1,9,10
 144 597 144 597 132.5 585.5 c 128,-1,11
 121 574 121 574 113 567 c 2,12,-1
 75 537 l 1,13,-1
 22 599 l 1,14,-1
 169 714 l 1,15,-1
 262 714 l 1,16,-1
 262 286 l 1,17,-1
 146 286 l 1,4,-1
644 0 m 1,18,-1
 644 74 l 1,19,-1
 457 74 l 1,20,-1
 457 149 l 1,21,-1
 645 431 l 1,22,-1
 760 431 l 1,23,-1
 760 156 l 1,24,-1
 821 156 l 1,25,-1
 821 74 l 1,26,-1
 760 74 l 1,27,-1
 760 0 l 1,28,-1
 644 0 l 1,18,-1
547 156 m 1,29,-1
 644 156 l 1,30,-1
 644 236 l 2,31,32
 644 278 644 278 647 326 c 1,33,34
 642 312 642 312 630 287 c 128,-1,35
 618 262 618 262 609 249 c 2,36,-1
 547 156 l 1,29,-1
EndSplineSet
EndChar

StartChar: onehalf
Encoding: 189 189 127
Width: 874
Flags: W
LayerCount: 2
Fore
SplineSet
156 0 m 1,0,-1
 552 714 l 1,1,-1
 669 714 l 1,2,-1
 273 0 l 1,3,-1
 156 0 l 1,0,-1
146 286 m 1,4,-1
 146 504 l 2,5,6
 146 517 146 517 146.5 538 c 128,-1,7
 147 559 147 559 148 578.5 c 128,-1,8
 149 598 149 598 150 605 c 1,9,10
 144 597 144 597 132.5 585.5 c 128,-1,11
 121 574 121 574 113 567 c 2,12,-1
 75 537 l 1,13,-1
 22 599 l 1,14,-1
 169 714 l 1,15,-1
 262 714 l 1,16,-1
 262 286 l 1,17,-1
 146 286 l 1,4,-1
522 0 m 1,18,-1
 522 82 l 1,19,-1
 631 189 l 2,20,21
 676 232 676 232 692.5 256 c 128,-1,22
 709 280 709 280 709 306 c 0,23,24
 709 324 709 324 697.5 334 c 128,-1,25
 686 344 686 344 666 344 c 0,26,27
 627 344 627 344 578 301 c 1,28,-1
 518 375 l 1,29,30
 550 403 550 403 589.5 420.5 c 128,-1,31
 629 438 629 438 682 438 c 0,32,33
 746 438 746 438 786 406.5 c 128,-1,34
 826 375 826 375 826 316 c 0,35,36
 826 271 826 271 801 234 c 128,-1,37
 776 197 776 197 717 144 c 2,38,-1
 666 98 l 1,39,-1
 838 98 l 1,40,-1
 838 0 l 1,41,-1
 522 0 l 1,18,-1
EndSplineSet
EndChar

StartChar: threequarters
Encoding: 190 190 128
Width: 845
Flags: W
LayerCount: 2
Fore
SplineSet
177 278 m 0,0,1
 106 278 106 278 44 312 c 1,2,-1
 44 405 l 1,3,4
 76 386 76 386 108.5 373.5 c 128,-1,5
 141 361 141 361 176 361 c 0,6,7
 246 361 246 361 246 413 c 0,8,9
 246 433 246 433 229 449 c 128,-1,10
 212 465 212 465 165 465 c 2,11,-1
 110 465 l 1,12,-1
 110 543 l 1,13,-1
 155 543 l 2,14,15
 206 543 206 543 220.5 559.5 c 128,-1,16
 235 576 235 576 235 596 c 0,17,18
 235 615 235 615 223 627 c 128,-1,19
 211 639 211 639 186 639 c 0,20,21
 163 639 163 639 142.5 629.5 c 128,-1,22
 122 620 122 620 94 601 c 1,23,-1
 45 670 l 1,24,25
 75 692 75 692 112 707.5 c 128,-1,26
 149 723 149 723 199 723 c 0,27,28
 260 723 260 723 300 692.5 c 128,-1,29
 340 662 340 662 340 610 c 0,30,31
 340 576 340 576 320 551.5 c 128,-1,32
 300 527 300 527 257 513 c 1,33,-1
 257 507 l 1,34,35
 306 496 306 496 330 468 c 128,-1,36
 354 440 354 440 354 405 c 0,37,38
 354 346 354 346 311 312 c 128,-1,39
 268 278 268 278 177 278 c 0,0,1
191 0 m 1,40,-1
 587 714 l 1,41,-1
 704 714 l 1,42,-1
 308 0 l 1,43,-1
 191 0 l 1,40,-1
659 0 m 1,44,-1
 659 74 l 1,45,-1
 472 74 l 1,46,-1
 472 149 l 1,47,-1
 660 431 l 1,48,-1
 775 431 l 1,49,-1
 775 156 l 1,50,-1
 836 156 l 1,51,-1
 836 74 l 1,52,-1
 775 74 l 1,53,-1
 775 0 l 1,54,-1
 659 0 l 1,44,-1
562 156 m 1,55,-1
 659 156 l 1,56,-1
 659 236 l 2,57,58
 659 278 659 278 662 326 c 1,59,60
 657 312 657 312 645 287 c 128,-1,61
 633 262 633 262 624 249 c 2,62,-1
 562 156 l 1,55,-1
EndSplineSet
EndChar

StartChar: AE
Encoding: 198 198 136
Width: 952
GlyphClass: 2
Flags: W
AnchorPoint: "Anchor-2" 506 714 basechar 0
AnchorPoint: "Anchor-0" 476 0 basechar 0
LayerCount: 2
Fore
SplineSet
893 0 m 1,0,-1
 467 0 l 1,1,-1
 467 170 l 1,2,-1
 227 170 l 1,3,-1
 154 0 l 1,4,-1
 0 0 l 1,5,-1
 320 714 l 1,6,-1
 893 714 l 1,7,-1
 893 590 l 1,8,-1
 618 590 l 1,9,-1
 618 433 l 1,10,-1
 875 433 l 1,11,-1
 875 309 l 1,12,-1
 618 309 l 1,13,-1
 618 125 l 1,14,-1
 893 125 l 1,15,-1
 893 0 l 1,0,-1
282 297 m 1,16,-1
 467 297 l 1,17,-1
 467 585 l 1,18,-1
 405 585 l 1,19,-1
 282 297 l 1,16,-1
EndSplineSet
Substitution2: "'c2sc' Capitals to Small Capitals lookup 33 subtable" ae.sc
EndChar

StartChar: Eth
Encoding: 208 208 146
Width: 740
GlyphClass: 2
Flags: W
AnchorPoint: "Anchor-2" 370 714 basechar 0
AnchorPoint: "Anchor-0" 370 0 basechar 0
LayerCount: 2
Fore
SplineSet
314 714 m 2,0,1
 426 714 426 714 508.5 674 c 128,-1,2
 591 634 591 634 636.5 556 c 128,-1,3
 682 478 682 478 682 364 c 0,4,5
 682 183 682 183 579 91.5 c 128,-1,6
 476 0 476 0 292 0 c 2,7,-1
 90 0 l 1,8,-1
 90 291 l 1,9,-1
 23 291 l 1,10,-1
 23 415 l 1,11,-1
 90 415 l 1,12,-1
 90 714 l 1,13,-1
 314 714 l 2,0,1
321 590 m 2,14,-1
 241 590 l 1,15,-1
 241 415 l 1,16,-1
 357 415 l 1,17,-1
 357 291 l 1,18,-1
 241 291 l 1,19,-1
 241 125 l 1,20,-1
 305 125 l 2,21,22
 525 125 525 125 525 360 c 0,23,24
 525 478 525 478 471.5 534 c 128,-1,25
 418 590 418 590 321 590 c 2,14,-1
EndSplineSet
Substitution2: "'c2sc' Capitals to Small Capitals lookup 33 subtable" eth.sc
EndChar

StartChar: multiply
Encoding: 215 215 153
Width: 572
Flags: W
LayerCount: 2
Fore
SplineSet
433 575 m 1,0,-1
 508 502 l 1,1,-1
 359 353 l 1,2,-1
 506 205 l 1,3,-1
 433 131 l 1,4,-1
 284 278 l 1,5,-1
 137 132 l 1,6,-1
 64 206 l 1,7,-1
 209 353 l 1,8,-1
 63 500 l 1,9,-1
 137 575 l 1,10,-1
 284 429 l 1,11,-1
 433 575 l 1,0,-1
EndSplineSet
EndChar

StartChar: Oslash
Encoding: 216 216 154
Width: 796
GlyphClass: 2
Flags: W
AnchorPoint: "Anchor-2" 402 714 basechar 0
AnchorPoint: "Anchor-0" 398 0 basechar 0
LayerCount: 2
Fore
SplineSet
738 358 m 0,0,1
 738 247 738 247 701.5 164.5 c 128,-1,2
 665 82 665 82 589.5 36 c 128,-1,3
 514 -10 514 -10 398 -10 c 0,4,5
 303 -10 303 -10 234 22 c 1,6,-1
 190 -44 l 1,7,-1
 111 9 l 1,8,-1
 155 75 l 1,9,10
 106 124 106 124 82 196 c 128,-1,11
 58 268 58 268 58 359 c 0,12,13
 58 470 58 470 94.5 552 c 128,-1,14
 131 634 131 634 206.5 679.5 c 128,-1,15
 282 725 282 725 399 725 c 0,16,17
 448 725 448 725 490 716.5 c 128,-1,18
 532 708 532 708 567 691 c 1,19,-1
 608 752 l 1,20,-1
 686 701 l 1,21,-1
 643 637 l 1,22,23
 691 589 691 589 714.5 517.5 c 128,-1,24
 738 446 738 446 738 358 c 0,0,1
217 358 m 0,25,26
 217 313 217 313 223.5 275 c 128,-1,27
 230 237 230 237 244 208 c 1,28,-1
 491 577 l 1,29,30
 452 599 452 599 399 599 c 0,31,32
 303 599 303 599 260 534.5 c 128,-1,33
 217 470 217 470 217 358 c 0,25,26
579 358 m 0,34,35
 579 447 579 447 554 503 c 1,36,-1
 310 136 l 1,37,38
 328 127 328 127 350 122 c 128,-1,39
 372 117 372 117 398 117 c 0,40,41
 495 117 495 117 537 181.5 c 128,-1,42
 579 246 579 246 579 358 c 0,34,35
EndSplineSet
Substitution2: "'c2sc' Capitals to Small Capitals lookup 33 subtable" oslash.sc
EndChar

StartChar: Thorn
Encoding: 222 222 160
Width: 628
GlyphClass: 2
Flags: W
AnchorPoint: "Anchor-2" 314 714 basechar 0
AnchorPoint: "Anchor-0" 314 0 basechar 0
LayerCount: 2
Fore
SplineSet
583 376 m 0,0,1
 583 315 583 315 558 262 c 128,-1,2
 533 209 533 209 474.5 176 c 128,-1,3
 416 143 416 143 316 143 c 2,4,-1
 241 143 l 1,5,-1
 241 0 l 1,6,-1
 90 0 l 1,7,-1
 90 714 l 1,8,-1
 241 714 l 1,9,-1
 241 602 l 1,10,-1
 328 602 l 2,11,12
 460 602 460 602 521.5 540.5 c 128,-1,13
 583 479 583 479 583 376 c 0,0,1
241 265 m 1,14,-1
 290 265 l 2,15,16
 360 265 360 265 395 291 c 128,-1,17
 430 317 430 317 430 376 c 0,18,19
 430 428 430 428 399 453.5 c 128,-1,20
 368 479 368 479 302 479 c 2,21,-1
 241 479 l 1,22,-1
 241 265 l 1,14,-1
EndSplineSet
Substitution2: "'c2sc' Capitals to Small Capitals lookup 33 subtable" thorn.sc
EndChar

StartChar: germandbls
Encoding: 223 223 161
Width: 711
GlyphClass: 2
Flags: W
AnchorPoint: "Anchor-2" 356 765 basechar 0
AnchorPoint: "Anchor-0" 356 0 basechar 0
LayerCount: 2
Fore
SplineSet
610 606 m 0,0,1
 610 569 610 569 596 542 c 128,-1,2
 582 515 582 515 561 495 c 128,-1,3
 540 475 540 475 519 460 c 128,-1,4
 498 445 498 445 484 432.5 c 128,-1,5
 470 420 470 420 470 407 c 0,6,7
 470 388 470 388 495 371.5 c 128,-1,8
 520 355 520 355 576 318 c 0,9,10
 624 287 624 287 650 252.5 c 128,-1,11
 676 218 676 218 676 159 c 0,12,13
 676 76 676 76 618.5 33 c 128,-1,14
 561 -10 561 -10 451 -10 c 0,15,16
 358 -10 358 -10 303 21 c 1,17,-1
 303 139 l 1,18,19
 326 123 326 123 366.5 110 c 128,-1,20
 407 97 407 97 441 97 c 0,21,22
 480 97 480 97 501.5 112 c 128,-1,23
 523 127 523 127 523 157 c 0,24,25
 523 174 523 174 516 187.5 c 128,-1,26
 509 201 509 201 489.5 215.5 c 128,-1,27
 470 230 470 230 431 252 c 0,28,29
 370 287 370 287 346 316 c 128,-1,30
 322 345 322 345 322 385 c 0,31,32
 322 416 322 416 335.5 438 c 128,-1,33
 349 460 349 460 369.5 476 c 128,-1,34
 390 492 390 492 410.5 507 c 128,-1,35
 431 522 431 522 444.5 539 c 128,-1,36
 458 556 458 556 458 580 c 0,37,38
 458 611 458 611 426 630 c 128,-1,39
 394 649 394 649 347 649 c 0,40,41
 294 649 294 649 260.5 625 c 128,-1,42
 227 601 227 601 227 551 c 2,43,-1
 227 0 l 1,44,-1
 78 0 l 1,45,-1
 78 556 l 2,46,47
 78 627 78 627 113.5 673.5 c 128,-1,48
 149 720 149 720 209.5 742.5 c 128,-1,49
 270 765 270 765 347 765 c 0,50,51
 422 765 422 765 481.5 746.5 c 128,-1,52
 541 728 541 728 575.5 692.5 c 128,-1,53
 610 657 610 657 610 606 c 0,0,1
EndSplineSet
Substitution2: "'smcp' Lowercase to Small Capitals lookup 34 subtable" germandbls.sc
EndChar

StartChar: ae
Encoding: 230 230 168
Width: 917
GlyphClass: 2
Flags: W
AnchorPoint: "Anchor-2" 466 546 basechar 0
AnchorPoint: "Anchor-0" 459 0 basechar 0
LayerCount: 2
Fore
SplineSet
641 556 m 0,0,1
 710 556 710 556 762.5 527 c 128,-1,2
 815 498 815 498 844.5 443 c 128,-1,3
 874 388 874 388 874 308 c 2,4,-1
 874 236 l 1,5,-1
 521 236 l 1,6,7
 523 173 523 173 558.5 137 c 128,-1,8
 594 101 594 101 657 101 c 0,9,10
 753 101 753 101 843 144 c 1,11,-1
 843 29 l 1,12,13
 802 9 802 9 758 -0.5 c 128,-1,14
 714 -10 714 -10 649 -10 c 0,15,16
 582 -10 582 -10 527 15 c 128,-1,17
 472 40 472 40 437 91 c 1,18,19
 408 56 408 56 378.5 33.5 c 128,-1,20
 349 11 349 11 310.5 0.5 c 128,-1,21
 272 -10 272 -10 216 -10 c 0,22,23
 169 -10 169 -10 129.5 8.5 c 128,-1,24
 90 27 90 27 66 65.5 c 128,-1,25
 42 104 42 104 42 163 c 0,26,27
 42 250 42 250 101 291 c 128,-1,28
 160 332 160 332 278 337 c 2,29,-1
 371 340 l 1,30,-1
 371 381 l 2,31,32
 371 415 371 415 349.5 431 c 128,-1,33
 328 447 328 447 290 447 c 0,34,35
 251 447 251 447 214.5 436.5 c 128,-1,36
 178 426 178 426 141 409 c 1,37,-1
 93 508 l 1,38,39
 136 530 136 530 189 543.5 c 128,-1,40
 242 557 242 557 299 557 c 0,41,42
 409 557 409 557 466 493 c 1,43,44
 498 524 498 524 540 540 c 128,-1,45
 582 556 582 556 641 556 c 0,0,1
638 450 m 0,46,47
 588 450 588 450 558 422 c 128,-1,48
 528 394 528 394 524 335 c 1,49,-1
 734 335 l 1,50,51
 733 384 733 384 708.5 417 c 128,-1,52
 684 450 684 450 638 450 c 0,46,47
371 253 m 1,53,-1
 316 251 l 2,54,55
 248 249 248 249 221.5 225 c 128,-1,56
 195 201 195 201 195 162 c 0,57,58
 195 128 195 128 213.5 113.5 c 128,-1,59
 232 99 232 99 263 99 c 0,60,61
 309 99 309 99 340 127.5 c 128,-1,62
 371 156 371 156 371 208 c 2,63,-1
 371 253 l 1,53,-1
EndSplineSet
Substitution2: "'smcp' Lowercase to Small Capitals lookup 34 subtable" ae.sc
EndChar

StartChar: eth
Encoding: 240 240 178
Width: 619
GlyphClass: 2
Flags: W
AnchorPoint: "Anchor-2" 310 765 basechar 0
AnchorPoint: "Anchor-0" 310 0 basechar 0
LayerCount: 2
Fore
SplineSet
224 765 m 1,0,1
 258 749 258 749 290 732 c 128,-1,2
 322 715 322 715 350 696 c 1,3,-1
 460 764 l 1,4,-1
 509 689 l 1,5,-1
 426 638 l 1,6,7
 499 571 499 571 536.5 484.5 c 128,-1,8
 574 398 574 398 574 280 c 0,9,10
 574 141 574 141 502 65.5 c 128,-1,11
 430 -10 430 -10 308 -10 c 0,12,13
 232 -10 232 -10 172.5 19 c 128,-1,14
 113 48 113 48 79 104 c 128,-1,15
 45 160 45 160 45 239 c 256,16,17
 45 318 45 318 75 373 c 128,-1,18
 105 428 105 428 158 457 c 128,-1,19
 211 486 211 486 280 486 c 0,20,21
 380 486 380 486 414 438 c 1,22,-1
 418 440 l 1,23,24
 402 480 402 480 379 512.5 c 128,-1,25
 356 545 356 545 324 575 c 1,26,-1
 212 506 l 1,27,-1
 163 582 l 1,28,-1
 249 634 l 1,29,30
 232 645 232 645 213.5 656.5 c 128,-1,31
 195 668 195 668 175 679 c 1,32,-1
 224 765 l 1,0,1
310 376 m 0,33,34
 249 376 249 376 223 341.5 c 128,-1,35
 197 307 197 307 197 238 c 0,36,37
 197 176 197 176 223.5 138 c 128,-1,38
 250 100 250 100 310 100 c 256,39,40
 370 100 370 100 396 140 c 128,-1,41
 422 180 422 180 422 260 c 0,42,43
 422 306 422 306 395 341 c 128,-1,44
 368 376 368 376 310 376 c 0,33,34
EndSplineSet
Substitution2: "'smcp' Lowercase to Small Capitals lookup 34 subtable" eth.sc
EndChar

StartChar: divide
Encoding: 247 247 185
Width: 572
Flags: W
LayerCount: 2
Fore
SplineSet
285 449 m 0,0,1
 257 449 257 449 237 466.5 c 128,-1,2
 217 484 217 484 217 523 c 0,3,4
 217 564 217 564 237 580.5 c 128,-1,5
 257 597 257 597 285 597 c 0,6,7
 312 597 312 597 332.5 580.5 c 128,-1,8
 353 564 353 564 353 523 c 0,9,10
 353 484 353 484 332.5 466.5 c 128,-1,11
 312 449 312 449 285 449 c 0,0,1
43 299 m 1,12,-1
 43 406 l 1,13,-1
 528 406 l 1,14,-1
 528 299 l 1,15,-1
 43 299 l 1,12,-1
285 108 m 0,16,17
 257 108 257 108 237 125.5 c 128,-1,18
 217 143 217 143 217 182 c 0,19,20
 217 223 217 223 237 239.5 c 128,-1,21
 257 256 257 256 285 256 c 0,22,23
 312 256 312 256 332.5 239.5 c 128,-1,24
 353 223 353 223 353 182 c 0,25,26
 353 143 353 143 332.5 125.5 c 128,-1,27
 312 108 312 108 285 108 c 0,16,17
EndSplineSet
EndChar

StartChar: oslash
Encoding: 248 248 186
Width: 619
GlyphClass: 2
Flags: W
AnchorPoint: "Anchor-2" 311 546 basechar 0
AnchorPoint: "Anchor-0" 310 0 basechar 0
LayerCount: 2
Fore
SplineSet
574 274 m 0,0,1
 574 138 574 138 502.5 64 c 128,-1,2
 431 -10 431 -10 308 -10 c 0,3,4
 276 -10 276 -10 248 -4 c 128,-1,5
 220 2 220 2 194 12 c 1,6,-1
 161 -37 l 1,7,-1
 86 14 l 1,8,-1
 119 63 l 1,9,10
 84 100 84 100 64.5 152.5 c 128,-1,11
 45 205 45 205 45 274 c 0,12,13
 45 410 45 410 116 483 c 128,-1,14
 187 556 187 556 311 556 c 0,15,16
 376 556 376 556 432 531 c 1,17,-1
 459 571 l 1,18,-1
 533 518 l 1,19,-1
 505 477 l 1,20,21
 538 441 538 441 556 390 c 128,-1,22
 574 339 574 339 574 274 c 0,0,1
197 274 m 0,23,24
 197 226 197 226 206 193 c 1,25,-1
 361 425 l 1,26,27
 339 436 339 436 309 436 c 0,28,29
 250 436 250 436 223.5 395.5 c 128,-1,30
 197 355 197 355 197 274 c 0,23,24
422 274 m 0,31,32
 422 313 422 313 416 343 c 1,33,-1
 265 117 l 1,34,35
 283 110 283 110 310 110 c 0,36,37
 369 110 369 110 395.5 151.5 c 128,-1,38
 422 193 422 193 422 274 c 0,31,32
EndSplineSet
Substitution2: "'smcp' Lowercase to Small Capitals lookup 34 subtable" oslash.sc
EndChar

StartChar: thorn
Encoding: 254 254 192
Width: 633
GlyphClass: 2
Flags: W
AnchorPoint: "Anchor-2" 317 760 basechar 0
AnchorPoint: "Anchor-0" 317 -240 basechar 0
LayerCount: 2
Fore
SplineSet
588 274 m 0,0,1
 588 134 588 134 531 62 c 128,-1,2
 474 -10 474 -10 382 -10 c 0,3,4
 323 -10 323 -10 286 9.5 c 128,-1,5
 249 29 249 29 227 57 c 1,6,-1
 220 57 l 1,7,8
 223 42 223 42 225 19.5 c 128,-1,9
 227 -3 227 -3 227 -19 c 2,10,-1
 227 -240 l 1,11,-1
 78 -240 l 1,12,-1
 78 760 l 1,13,-1
 227 760 l 1,14,-1
 227 569 l 2,15,16
 227 545 227 545 224.5 517.5 c 128,-1,17
 222 490 222 490 220 475 c 1,18,-1
 227 475 l 1,19,20
 248 509 248 509 286 532.5 c 128,-1,21
 324 556 324 556 382 556 c 0,22,23
 474 556 474 556 531 484.5 c 128,-1,24
 588 413 588 413 588 274 c 0,0,1
436 276 m 0,25,26
 436 437 436 437 334 437 c 0,27,28
 276 437 276 437 252 400.5 c 128,-1,29
 228 364 228 364 227 291 c 2,30,-1
 227 275 l 2,31,32
 227 196 227 196 250.5 153.5 c 128,-1,33
 274 111 274 111 336 111 c 0,34,35
 387 111 387 111 411.5 153.5 c 128,-1,36
 436 196 436 196 436 276 c 0,25,26
EndSplineSet
Substitution2: "'smcp' Lowercase to Small Capitals lookup 34 subtable" thorn.sc
EndChar

StartChar: dcroat
Encoding: 273 273 211
Width: 649
GlyphClass: 2
Flags: W
AnchorPoint: "Anchor-2" 325 760 basechar 0
AnchorPoint: "Anchor-0" 325 0 basechar 0
LayerCount: 2
Fore
SplineSet
251 -10 m 0,0,1
 160 -10 160 -10 102.5 58 c 128,-1,2
 45 126 45 126 45 257 c 0,3,4
 45 390 45 390 103 458 c 128,-1,5
 161 526 161 526 255 526 c 0,6,7
 314 526 314 526 352 503 c 128,-1,8
 390 480 390 480 412 446 c 1,9,-1
 417 446 l 1,10,11
 417 446 417 446 414.5 464.5 c 128,-1,12
 412 483 412 483 409 509.5 c 128,-1,13
 406 536 406 536 406 559 c 2,14,-1
 406 584 l 1,15,-1
 252 584 l 1,16,-1
 252 681 l 1,17,-1
 406 681 l 1,18,-1
 406 760 l 1,19,-1
 555 760 l 1,20,-1
 555 681 l 1,21,-1
 631 681 l 1,22,-1
 631 584 l 1,23,-1
 555 584 l 1,24,-1
 555 0 l 1,25,-1
 441 0 l 1,26,-1
 412 71 l 1,27,-1
 406 71 l 1,28,29
 384 37 384 37 347 13.5 c 128,-1,30
 310 -10 310 -10 251 -10 c 0,0,1
303 109 m 0,31,32
 364 109 364 109 389 142 c 128,-1,33
 414 175 414 175 416 242 c 2,34,-1
 416 256 l 2,35,36
 416 328 416 328 391.5 366.5 c 128,-1,37
 367 405 367 405 301 405 c 0,38,39
 252 405 252 405 224 366.5 c 128,-1,40
 196 328 196 328 196 255 c 256,41,42
 196 182 196 182 224 145.5 c 128,-1,43
 252 109 252 109 303 109 c 0,31,32
EndSplineSet
Substitution2: "'smcp' Lowercase to Small Capitals lookup 34 subtable" dcroat.sc
EndChar

StartChar: eogonek
Encoding: 281 281 219
Width: 591
GlyphClass: 2
Flags: W
AnchorPoint: "Anchor-3" 571 546 basechar 0
AnchorPoint: "Anchor-2" 296 546 basechar 0
AnchorPoint: "Anchor-0" 296 -240 basechar 0
LayerCount: 2
Fore
SplineSet
413 -111 m 0,0,1
 413 -131 413 -131 424 -141 c 128,-1,2
 435 -151 435 -151 452 -151 c 0,3,4
 468 -151 468 -151 483 -148 c 128,-1,5
 498 -145 498 -145 508 -142 c 1,6,-1
 508 -229 l 1,7,8
 492 -234 492 -234 474 -237 c 128,-1,9
 456 -240 456 -240 432 -240 c 0,10,11
 376 -240 376 -240 343 -209 c 128,-1,12
 310 -178 310 -178 310 -128 c 0,13,14
 310 -94 310 -94 330.5 -63 c 128,-1,15
 351 -32 351 -32 382 -8 c 1,16,17
 356 -10 356 -10 325 -10 c 0,18,19
 243 -10 243 -10 180 20.5 c 128,-1,20
 117 51 117 51 81 112.5 c 128,-1,21
 45 174 45 174 45 269 c 256,22,23
 45 364 45 364 77.5 428 c 128,-1,24
 110 492 110 492 168 524 c 128,-1,25
 226 556 226 556 303 556 c 0,26,27
 416 556 416 556 482 491.5 c 128,-1,28
 548 427 548 427 548 308 c 2,29,-1
 548 236 l 1,30,-1
 196 236 l 1,31,32
 198 173 198 173 233.5 137 c 128,-1,33
 269 101 269 101 332 101 c 0,34,35
 384 101 384 101 427.5 111.5 c 128,-1,36
 471 122 471 122 517 144 c 1,37,-1
 517 29 l 1,38,39
 457 -24 457 -24 435 -55 c 128,-1,40
 413 -86 413 -86 413 -111 c 0,0,1
304 450 m 0,41,42
 260 450 260 450 232 422 c 128,-1,43
 204 394 204 394 199 335 c 1,44,-1
 408 335 l 1,45,46
 407 384 407 384 381.5 417 c 128,-1,47
 356 450 356 450 304 450 c 0,41,42
EndSplineSet
Substitution2: "'smcp' Lowercase to Small Capitals lookup 34 subtable" eogonek.sc
Substitution2: "'locl' Localized Forms in Latin lookup 9 subtable" eogonek.loclNAV
Ligature2: "'ccmp' Glyph Composition/Decomposition lookup 6 subtable" e uni0328
EndChar

StartChar: Hbar
Encoding: 294 294 232
Width: 765
GlyphClass: 2
Flags: W
AnchorPoint: "Anchor-2" 383 714 basechar 0
AnchorPoint: "Anchor-0" 383 0 basechar 0
LayerCount: 2
Fore
SplineSet
90 0 m 1,0,-1
 90 522 l 1,1,-1
 0 522 l 1,2,-1
 0 619 l 1,3,-1
 90 619 l 1,4,-1
 90 714 l 1,5,-1
 241 714 l 1,6,-1
 241 619 l 1,7,-1
 524 619 l 1,8,-1
 524 714 l 1,9,-1
 675 714 l 1,10,-1
 675 619 l 1,11,-1
 765 619 l 1,12,-1
 765 522 l 1,13,-1
 675 522 l 1,14,-1
 675 0 l 1,15,-1
 524 0 l 1,16,-1
 524 308 l 1,17,-1
 241 308 l 1,18,-1
 241 0 l 1,19,-1
 90 0 l 1,0,-1
241 434 m 1,20,-1
 524 434 l 1,21,-1
 524 522 l 1,22,-1
 241 522 l 1,23,-1
 241 434 l 1,20,-1
EndSplineSet
Substitution2: "'c2sc' Capitals to Small Capitals lookup 33 subtable" hbar.sc
EndChar

StartChar: hbar
Encoding: 295 295 233
Width: 657
GlyphClass: 2
Flags: W
AnchorPoint: "Anchor-2" 155 760 basechar 0
AnchorPoint: "Anchor-0" 329 0 basechar 0
LayerCount: 2
Fore
SplineSet
227 760 m 1,0,-1
 227 681 l 1,1,-1
 381 681 l 1,2,-1
 381 584 l 1,3,-1
 227 584 l 1,4,-1
 227 575 l 2,5,6
 227 534 227 534 224.5 497.5 c 128,-1,7
 222 461 222 461 220 446 c 1,8,-1
 229 446 l 1,9,10
 255 488 255 488 295.5 507 c 128,-1,11
 336 526 336 526 387 526 c 0,12,13
 476 526 476 526 529 478.5 c 128,-1,14
 582 431 582 431 582 326 c 2,15,-1
 582 0 l 1,16,-1
 433 0 l 1,17,-1
 433 289 l 2,18,19
 433 407 433 407 345 407 c 0,20,21
 278 407 278 407 252.5 360.5 c 128,-1,22
 227 314 227 314 227 227 c 2,23,-1
 227 0 l 1,24,-1
 78 0 l 1,25,-1
 78 584 l 1,26,-1
 2 584 l 1,27,-1
 2 681 l 1,28,-1
 78 681 l 1,29,-1
 78 760 l 1,30,-1
 227 760 l 1,0,-1
EndSplineSet
Substitution2: "'smcp' Lowercase to Small Capitals lookup 34 subtable" hbar.sc
EndChar

StartChar: kgreenlandic
Encoding: 312 312 249
Width: 620
GlyphClass: 2
Flags: W
AnchorPoint: "Anchor-2" 310 546 basechar 0
AnchorPoint: "Anchor-0" 310 0 basechar 0
LayerCount: 2
Fore
SplineSet
607 546 m 1,0,-1
 392 296 l 1,1,-1
 620 0 l 1,2,-1
 450 0 l 1,3,-1
 297 208 l 1,4,-1
 227 164 l 1,5,-1
 227 0 l 1,6,-1
 78 0 l 1,7,-1
 78 546 l 1,8,-1
 227 546 l 1,9,-1
 227 403 l 2,10,11
 226 373 226 373 226 343 c 128,-1,12
 226 313 226 313 224 284 c 1,13,-1
 226 284 l 1,14,15
 243 305 243 305 260 325.5 c 128,-1,16
 277 346 277 346 295 367 c 2,17,-1
 448 546 l 1,18,-1
 607 546 l 1,0,-1
EndSplineSet
EndChar

StartChar: Lslash
Encoding: 321 321 258
Width: 565
GlyphClass: 2
Flags: W
AnchorPoint: "Anchor-2" 164 714 basechar 0
AnchorPoint: "Anchor-0" 308 0 basechar 0
LayerCount: 2
Fore
SplineSet
90 0 m 1,0,-1
 90 240 l 1,1,-1
 56 220 l 1,2,-1
 1 316 l 1,3,-1
 90 370 l 1,4,-1
 90 714 l 1,5,-1
 241 714 l 1,6,-1
 241 462 l 1,7,-1
 311 505 l 1,8,-1
 368 409 l 1,9,-1
 241 332 l 1,10,-1
 241 125 l 1,11,-1
 531 125 l 1,12,-1
 531 0 l 1,13,-1
 90 0 l 1,0,-1
EndSplineSet
Substitution2: "'c2sc' Capitals to Small Capitals lookup 33 subtable" lslash.sc
EndChar

StartChar: lslash
Encoding: 322 322 259
Width: 305
GlyphClass: 2
Flags: W
AnchorPoint: "Anchor-2" 153 760 basechar 0
AnchorPoint: "Anchor-0" 153 0 basechar 0
LayerCount: 2
Fore
SplineSet
78 0 m 1,0,-1
 78 233 l 1,1,-1
 43 212 l 1,2,-1
 -12 308 l 1,3,-1
 78 363 l 1,4,-1
 78 760 l 1,5,-1
 227 760 l 1,6,-1
 227 454 l 1,7,-1
 261 475 l 1,8,-1
 318 379 l 1,9,-1
 227 324 l 1,10,-1
 227 0 l 1,11,-1
 78 0 l 1,0,-1
EndSplineSet
Substitution2: "'smcp' Lowercase to Small Capitals lookup 34 subtable" lslash.sc
EndChar

StartChar: Eng
Encoding: 330 330 267
Width: 813
GlyphClass: 2
Flags: W
AnchorPoint: "Anchor-2" 407 714 basechar 0
AnchorPoint: "Anchor-0" 407 -210 basechar 0
LayerCount: 2
Fore
SplineSet
496 -210 m 0,0,1
 464 -210 464 -210 440 -207 c 128,-1,2
 416 -204 416 -204 400 -199 c 1,3,-1
 400 -81 l 1,4,5
 418 -85 418 -85 438 -88 c 128,-1,6
 458 -91 458 -91 481 -91 c 0,7,8
 536 -91 536 -91 562.5 -69.5 c 128,-1,9
 589 -48 589 -48 591 2 c 1,10,-1
 220 540 l 1,11,-1
 216 540 l 1,12,13
 216 540 216 540 217.5 519 c 128,-1,14
 219 498 219 498 220.5 465.5 c 128,-1,15
 222 433 222 433 223.5 398 c 128,-1,16
 225 363 225 363 225 336 c 2,17,-1
 225 0 l 1,18,-1
 90 0 l 1,19,-1
 90 714 l 1,20,-1
 281 714 l 1,21,-1
 591 274 l 1,22,-1
 594 274 l 1,23,24
 594 274 594 274 593 295 c 128,-1,25
 592 316 592 316 590.5 347.5 c 128,-1,26
 589 379 589 379 588 412.5 c 128,-1,27
 587 446 587 446 587 471 c 2,28,-1
 587 714 l 1,29,-1
 723 714 l 1,30,-1
 723 0 l 2,31,32
 723 -109 723 -109 660 -159.5 c 128,-1,33
 597 -210 597 -210 496 -210 c 0,0,1
EndSplineSet
Substitution2: "'c2sc' Capitals to Small Capitals lookup 33 subtable" eng.sc
AlternateSubs2: "'aalt' Access All Alternates lookup 1 subtable" Eng.alt1 Eng.alt2 Eng.alt3
EndChar

StartChar: eng
Encoding: 331 331 268
Width: 657
GlyphClass: 2
Flags: W
AnchorPoint: "Anchor-2" 329 546 basechar 0
AnchorPoint: "Anchor-0" 329 -240 basechar 0
LayerCount: 2
Fore
SplineSet
405 -240 m 0,0,1
 382 -240 382 -240 357 -236.5 c 128,-1,2
 332 -233 332 -233 315 -228 c 1,3,-1
 315 -111 l 1,4,5
 330 -116 330 -116 343 -118 c 128,-1,6
 356 -120 356 -120 373 -120 c 0,7,8
 398 -120 398 -120 415.5 -103 c 128,-1,9
 433 -86 433 -86 433 -37 c 2,10,-1
 433 330 l 2,11,12
 433 437 433 437 345 437 c 0,13,14
 277 437 277 437 252 390.5 c 128,-1,15
 227 344 227 344 227 257 c 2,16,-1
 227 0 l 1,17,-1
 78 0 l 1,18,-1
 78 546 l 1,19,-1
 192 546 l 1,20,-1
 212 476 l 1,21,-1
 221 476 l 1,22,23
 247 518 247 518 292.5 537 c 128,-1,24
 338 556 338 556 388 556 c 0,25,26
 476 556 476 556 529 508.5 c 128,-1,27
 582 461 582 461 582 356 c 2,28,-1
 582 -59 l 2,29,30
 582 -109 582 -109 564.5 -150 c 128,-1,31
 547 -191 547 -191 508 -215.5 c 128,-1,32
 469 -240 469 -240 405 -240 c 0,0,1
EndSplineSet
Substitution2: "'smcp' Lowercase to Small Capitals lookup 34 subtable" eng.sc
EndChar

StartChar: OE
Encoding: 338 338 275
Width: 973
GlyphClass: 2
Flags: W
AnchorPoint: "Anchor-2" 487 714 basechar 0
AnchorPoint: "Anchor-0" 487 0 basechar 0
LayerCount: 2
Fore
SplineSet
379 725 m 0,0,1
 405 725 405 725 436.5 722 c 128,-1,2
 468 719 468 719 490 714 c 1,3,-1
 914 714 l 1,4,-1
 914 590 l 1,5,-1
 639 590 l 1,6,-1
 639 433 l 1,7,-1
 896 433 l 1,8,-1
 896 309 l 1,9,-1
 639 309 l 1,10,-1
 639 125 l 1,11,-1
 914 125 l 1,12,-1
 914 0 l 1,13,-1
 488 0 l 1,14,15
 466 -4 466 -4 435 -7 c 128,-1,16
 404 -10 404 -10 378 -10 c 0,17,18
 268 -10 268 -10 197.5 36 c 128,-1,19
 127 82 127 82 92.5 165 c 128,-1,20
 58 248 58 248 58 359 c 256,21,22
 58 470 58 470 92.5 552 c 128,-1,23
 127 634 127 634 198 679.5 c 128,-1,24
 269 725 269 725 379 725 c 0,0,1
379 599 m 0,25,26
 294 599 294 599 254 534.5 c 128,-1,27
 214 470 214 470 214 358 c 256,28,29
 214 246 214 246 253.5 181.5 c 128,-1,30
 293 117 293 117 378 117 c 0,31,32
 407 117 407 117 438 122 c 128,-1,33
 469 127 469 127 488 136 c 1,34,-1
 488 579 l 1,35,36
 470 589 470 589 439 594 c 128,-1,37
 408 599 408 599 379 599 c 0,25,26
EndSplineSet
Substitution2: "'c2sc' Capitals to Small Capitals lookup 33 subtable" oe.sc
EndChar

StartChar: oe
Encoding: 339 339 276
Width: 978
GlyphClass: 2
Flags: W
AnchorPoint: "Anchor-2" 489 546 basechar 0
AnchorPoint: "Anchor-0" 489 0 basechar 0
LayerCount: 2
Fore
SplineSet
683 556 m 0,0,1
 799 556 799 556 867 491.5 c 128,-1,2
 935 427 935 427 935 308 c 2,3,-1
 935 236 l 1,4,-1
 571 236 l 1,5,6
 574 172 574 172 611 136.5 c 128,-1,7
 648 101 648 101 712 101 c 0,8,9
 767 101 767 101 812 111.5 c 128,-1,10
 857 122 857 122 904 144 c 1,11,-1
 904 29 l 1,12,13
 862 9 862 9 816.5 -0.5 c 128,-1,14
 771 -10 771 -10 706 -10 c 0,15,16
 644 -10 644 -10 591 8.5 c 128,-1,17
 538 27 538 27 501 66 c 1,18,19
 466 28 466 28 417 9 c 128,-1,20
 368 -10 368 -10 310 -10 c 0,21,22
 232 -10 232 -10 172.5 23 c 128,-1,23
 113 56 113 56 79 119.5 c 128,-1,24
 45 183 45 183 45 274 c 0,25,26
 45 410 45 410 114.5 483 c 128,-1,27
 184 556 184 556 309 556 c 0,28,29
 364 556 364 556 413 537 c 128,-1,30
 462 518 462 518 496 480 c 1,31,32
 566 556 566 556 683 556 c 0,0,1
686 450 m 0,33,34
 640 450 640 450 610 422 c 128,-1,35
 580 394 580 394 575 335 c 1,36,-1
 795 335 l 1,37,38
 794 384 794 384 767.5 417 c 128,-1,39
 741 450 741 450 686 450 c 0,33,34
309 436 m 0,40,41
 250 436 250 436 223.5 395.5 c 128,-1,42
 197 355 197 355 197 274 c 256,43,44
 197 193 197 193 223.5 151.5 c 128,-1,45
 250 110 250 110 310 110 c 0,46,47
 369 110 369 110 395.5 151.5 c 128,-1,48
 422 193 422 193 422 274 c 256,49,50
 422 355 422 355 395.5 395.5 c 128,-1,51
 369 436 369 436 309 436 c 0,40,41
EndSplineSet
Substitution2: "'smcp' Lowercase to Small Capitals lookup 34 subtable" oe.sc
EndChar

StartChar: Tbar
Encoding: 358 358 295
Width: 579
GlyphClass: 2
Flags: W
AnchorPoint: "Anchor-2" 290 714 basechar 0
AnchorPoint: "Anchor-0" 290 0 basechar 0
LayerCount: 2
Fore
SplineSet
214 0 m 1,0,-1
 214 291 l 1,1,-1
 93 291 l 1,2,-1
 93 415 l 1,3,-1
 214 415 l 1,4,-1
 214 588 l 1,5,-1
 20 588 l 1,6,-1
 20 714 l 1,7,-1
 559 714 l 1,8,-1
 559 588 l 1,9,-1
 365 588 l 1,10,-1
 365 415 l 1,11,-1
 486 415 l 1,12,-1
 486 291 l 1,13,-1
 365 291 l 1,14,-1
 365 0 l 1,15,-1
 214 0 l 1,0,-1
EndSplineSet
Substitution2: "'c2sc' Capitals to Small Capitals lookup 33 subtable" tbar.sc
EndChar

StartChar: tbar
Encoding: 359 359 296
Width: 434
GlyphClass: 2
Flags: W
AnchorPoint: "Anchor-3" 396 662 basechar 0
AnchorPoint: "Anchor-2" 198 662 basechar 0
AnchorPoint: "Anchor-1" 217 273 basechar 0
AnchorPoint: "Anchor-0" 241 0 basechar 0
LayerCount: 2
Fore
SplineSet
32 243 m 1,0,-1
 32 340 l 1,1,-1
 94 340 l 1,2,-1
 94 434 l 1,3,-1
 23 434 l 1,4,-1
 23 497 l 1,5,-1
 105 547 l 1,6,-1
 148 662 l 1,7,-1
 243 662 l 1,8,-1
 243 546 l 1,9,-1
 396 546 l 1,10,-1
 396 434 l 1,11,-1
 243 434 l 1,12,-1
 243 340 l 1,13,-1
 379 340 l 1,14,-1
 379 243 l 1,15,-1
 243 243 l 1,16,-1
 243 171 l 2,17,18
 243 140 243 140 261 124.5 c 128,-1,19
 279 109 279 109 308 109 c 0,20,21
 333 109 333 109 356 113.5 c 128,-1,22
 379 118 379 118 402 126 c 1,23,-1
 402 15 l 1,24,25
 378 4 378 4 342.5 -3 c 128,-1,26
 307 -10 307 -10 265 -10 c 0,27,28
 216 -10 216 -10 177.5 6 c 128,-1,29
 139 22 139 22 116.5 61 c 128,-1,30
 94 100 94 100 94 171 c 2,31,-1
 94 243 l 1,32,-1
 32 243 l 1,0,-1
EndSplineSet
Substitution2: "'smcp' Lowercase to Small Capitals lookup 34 subtable" tbar.sc
EndChar

StartChar: Uogonek
Encoding: 370 370 307
Width: 756
GlyphClass: 2
Flags: W
AnchorPoint: "Anchor-3" 736 714 basechar 0
AnchorPoint: "Anchor-2" 378 714 basechar 0
AnchorPoint: "Anchor-0" 376 -240 basechar 0
LayerCount: 2
Fore
SplineSet
485 -100 m 0,0,1
 485 -126 485 -126 497 -138.5 c 128,-1,2
 509 -151 509 -151 526 -151 c 0,3,4
 542 -151 542 -151 556 -148 c 128,-1,5
 570 -145 570 -145 580 -142 c 1,6,-1
 580 -229 l 1,7,8
 564 -234 564 -234 546 -237 c 128,-1,9
 528 -240 528 -240 504 -240 c 0,10,11
 448 -240 448 -240 415 -208 c 128,-1,12
 382 -176 382 -176 382 -121 c 0,13,14
 382 -90 382 -90 395 -60.5 c 128,-1,15
 408 -31 408 -31 430 -7 c 1,16,17
 404 -10 404 -10 375 -10 c 0,18,19
 233 -10 233 -10 159 62.5 c 128,-1,20
 85 135 85 135 85 254 c 2,21,-1
 85 714 l 1,22,-1
 236 714 l 1,23,-1
 236 277 l 2,24,25
 236 188 236 188 272 152.5 c 128,-1,26
 308 117 308 117 379 117 c 0,27,28
 453 117 453 117 486.5 156 c 128,-1,29
 520 195 520 195 520 278 c 2,30,-1
 520 714 l 1,31,-1
 671 714 l 1,32,-1
 671 252 l 2,33,34
 671 188 671 188 647 134.5 c 128,-1,35
 623 81 623 81 574 46 c 1,36,37
 527 1 527 1 506 -34.5 c 128,-1,38
 485 -70 485 -70 485 -100 c 0,0,1
EndSplineSet
Substitution2: "'c2sc' Capitals to Small Capitals lookup 33 subtable" uogonek.sc
Substitution2: "'locl' Localized Forms in Latin lookup 9 subtable" Uogonek.loclNAV
Ligature2: "'ccmp' Glyph Composition/Decomposition lookup 6 subtable" U uni0328
EndChar

StartChar: longs
Encoding: 383 383 320
Width: 383
GlyphClass: 2
Flags: W
AnchorPoint: "Anchor-2" 232 765 basechar 0
AnchorPoint: "Anchor-0" 192 0 basechar 0
LayerCount: 2
Fore
SplineSet
289 647 m 0,0,1
 254 647 254 647 240.5 628 c 128,-1,2
 227 609 227 609 227 580 c 2,3,-1
 227 0 l 1,4,-1
 78 0 l 1,5,-1
 78 586 l 2,6,7
 78 656 78 656 101.5 694.5 c 128,-1,8
 125 733 125 733 168.5 749 c 128,-1,9
 212 765 212 765 270 765 c 0,10,11
 318 765 318 765 351 758 c 128,-1,12
 384 751 384 751 406 742 c 1,13,-1
 371 633 l 1,14,15
 354 638 354 638 334 642.5 c 128,-1,16
 314 647 314 647 289 647 c 0,0,1
EndSplineSet
EndChar

StartChar: florin
Encoding: 402 402 321
Width: 572
GlyphClass: 2
Flags: W
AnchorPoint: "Anchor-2" 365 724 basechar 0
AnchorPoint: "Anchor-0" 286 -240 basechar 0
LayerCount: 2
Fore
SplineSet
395 724 m 0,0,1
 440 724 440 724 471 717 c 128,-1,2
 502 710 502 710 523 701 c 1,3,-1
 488 592 l 1,4,5
 473 597 473 597 456.5 601.5 c 128,-1,6
 440 606 440 606 417 606 c 0,7,8
 388 606 388 606 376 587 c 128,-1,9
 364 568 364 568 364 539 c 2,10,-1
 364 505 l 1,11,-1
 475 505 l 1,12,-1
 475 393 l 1,13,-1
 364 393 l 1,14,-1
 364 -59 l 2,15,16
 364 -109 364 -109 346 -150 c 128,-1,17
 328 -191 328 -191 289 -215.5 c 128,-1,18
 250 -240 250 -240 186 -240 c 0,19,20
 163 -240 163 -240 137.5 -236.5 c 128,-1,21
 112 -233 112 -233 96 -228 c 1,22,-1
 96 -111 l 1,23,24
 111 -116 111 -116 124.5 -118 c 128,-1,25
 138 -120 138 -120 154 -120 c 0,26,27
 179 -120 179 -120 197 -103 c 128,-1,28
 215 -86 215 -86 215 -37 c 2,29,-1
 215 393 l 1,30,-1
 133 393 l 1,31,-1
 133 465 l 1,32,-1
 215 505 l 1,33,-1
 215 545 l 2,34,35
 215 614 215 614 237 653 c 128,-1,36
 259 692 259 692 299.5 708 c 128,-1,37
 340 724 340 724 395 724 c 0,0,1
EndSplineSet
EndChar

StartChar: Aringacute
Encoding: 506 506 322
Width: 690
GlyphClass: 2
Flags: W
AnchorPoint: "Anchor-2" 345 958 basechar 0
AnchorPoint: "Anchor-0" 345 0 basechar 0
LayerCount: 2
Fore
SplineSet
285 856 m 1,0,-1
 285 864 l 1,1,2
 306 883 306 883 330 909.5 c 128,-1,3
 354 936 354 936 370 958 c 1,4,-1
 537 958 l 1,5,-1
 537 952 l 1,6,7
 526 940 526 940 498 922 c 128,-1,8
 470 904 470 904 438 886 c 128,-1,9
 406 868 406 868 384 856 c 1,10,-1
 285 856 l 1,0,-1
0 0 m 1,11,-1
 244 642 l 1,12,13
 223 670 223 670 223 713 c 0,14,15
 223 767 223 767 256.5 798 c 128,-1,16
 290 829 290 829 344 829 c 0,17,18
 396 829 396 829 432 798 c 128,-1,19
 468 767 468 767 468 714 c 0,20,21
 468 692 468 692 462 674 c 128,-1,22
 456 656 456 656 445 642 c 1,23,-1
 690 0 l 1,24,-1
 528 0 l 1,25,-1
 476 161 l 1,26,-1
 215 161 l 1,27,-1
 162 0 l 1,28,-1
 0 0 l 1,11,-1
344 667 m 0,29,30
 391 667 391 667 391 713 c 0,31,32
 391 735 391 735 377.5 747.5 c 128,-1,33
 364 760 364 760 344 760 c 0,34,35
 322 760 322 760 309.5 747.5 c 128,-1,36
 297 735 297 735 297 713 c 0,37,38
 297 692 297 692 309.5 679.5 c 128,-1,39
 322 667 322 667 344 667 c 0,29,30
248 288 m 1,40,-1
 444 288 l 1,41,-1
 394 429 l 2,42,43
 388 445 388 445 378 473.5 c 128,-1,44
 368 502 368 502 358 530.5 c 128,-1,45
 348 559 348 559 345 575 c 1,46,47
 342 564 342 564 335 542.5 c 128,-1,48
 328 521 328 521 320.5 497.5 c 128,-1,49
 313 474 313 474 306.5 455 c 128,-1,50
 300 436 300 436 297 429 c 2,51,-1
 248 288 l 1,40,-1
EndSplineSet
Substitution2: "'c2sc' Capitals to Small Capitals lookup 33 subtable" aringacute.sc
EndChar

StartChar: aringacute
Encoding: 507 507 323
Width: 604
GlyphClass: 2
Flags: W
AnchorPoint: "Anchor-2" 302 958 basechar 0
AnchorPoint: "Anchor-0" 302 0 basechar 0
LayerCount: 2
Fore
SplineSet
482 958 m 1,0,-1
 482 952 l 1,1,2
 472 940 472 940 444 922 c 128,-1,3
 416 904 416 904 384 886 c 128,-1,4
 352 868 352 868 329 856 c 1,5,-1
 230 856 l 1,6,-1
 230 864 l 1,7,8
 251 883 251 883 275 909.5 c 128,-1,9
 299 936 299 936 315 958 c 1,10,-1
 482 958 l 1,0,-1
306 817 m 0,11,12
 358 817 358 817 394 786 c 128,-1,13
 430 755 430 755 430 702 c 0,14,15
 430 647 430 647 394 616 c 128,-1,16
 358 585 358 585 306 585 c 0,17,18
 252 585 252 585 218.5 616 c 128,-1,19
 185 647 185 647 185 701 c 256,20,21
 185 755 185 755 218.5 786 c 128,-1,22
 252 817 252 817 306 817 c 0,11,12
306 748 m 256,23,24
 286 748 286 748 272.5 735.5 c 128,-1,25
 259 723 259 723 259 701 c 256,26,27
 259 679 259 679 271 666.5 c 128,-1,28
 283 654 283 654 306 654 c 0,29,30
 326 654 326 654 339.5 666.5 c 128,-1,31
 353 679 353 679 353 701 c 256,32,33
 353 723 353 723 339.5 735.5 c 128,-1,34
 326 748 326 748 306 748 c 256,23,24
302 557 m 0,35,36
 412 557 412 557 470.5 509.5 c 128,-1,37
 529 462 529 462 529 364 c 2,38,-1
 529 0 l 1,39,-1
 425 0 l 1,40,-1
 396 74 l 1,41,-1
 392 74 l 1,42,43
 357 30 357 30 318 10 c 128,-1,44
 279 -10 279 -10 211 -10 c 0,45,46
 138 -10 138 -10 90 32 c 128,-1,47
 42 74 42 74 42 163 c 0,48,49
 42 250 42 250 103 291 c 128,-1,50
 164 332 164 332 286 337 c 2,51,-1
 381 340 l 1,52,-1
 381 364 l 2,53,54
 381 407 381 407 358.5 427 c 128,-1,55
 336 447 336 447 296 447 c 256,56,57
 256 447 256 447 218 435.5 c 128,-1,58
 180 424 180 424 142 407 c 1,59,-1
 93 508 l 1,60,61
 136 530 136 530 190 543.5 c 128,-1,62
 244 557 244 557 302 557 c 0,35,36
381 253 m 1,63,-1
 323 251 l 2,64,65
 251 249 251 249 223 225 c 128,-1,66
 195 201 195 201 195 162 c 0,67,68
 195 128 195 128 215 113.5 c 128,-1,69
 235 99 235 99 267 99 c 0,70,71
 315 99 315 99 348 127.5 c 128,-1,72
 381 156 381 156 381 208 c 2,73,-1
 381 253 l 1,63,-1
EndSplineSet
Substitution2: "'smcp' Lowercase to Small Capitals lookup 34 subtable" aringacute.sc
EndChar

StartChar: circumflex
Encoding: 710 710 330
Width: 504
Flags: W
LayerCount: 2
Fore
SplineSet
339 766 m 1,0,1
 353 744 353 744 375.5 716.5 c 128,-1,2
 398 689 398 689 422 663 c 128,-1,3
 446 637 446 637 464 619 c 1,4,-1
 464 606 l 1,5,-1
 365 606 l 1,6,7
 339 622 339 622 307.5 643.5 c 128,-1,8
 276 665 276 665 251 692 c 1,9,10
 225 665 225 665 195 643.5 c 128,-1,11
 165 622 165 622 139 606 c 1,12,-1
 40 606 l 1,13,-1
 40 619 l 1,14,15
 58 638 58 638 82 663.5 c 128,-1,16
 106 689 106 689 128.5 716.5 c 128,-1,17
 151 744 151 744 165 766 c 1,18,-1
 339 766 l 1,0,1
EndSplineSet
EndChar

StartChar: caron
Encoding: 711 711 331
Width: 504
Flags: W
LayerCount: 2
Fore
SplineSet
165 606 m 1,0,1
 151 628 151 628 128.5 655.5 c 128,-1,2
 106 683 106 683 82 708.5 c 128,-1,3
 58 734 58 734 40 753 c 1,4,-1
 40 766 l 1,5,-1
 139 766 l 1,6,7
 165 750 165 750 195 728.5 c 128,-1,8
 225 707 225 707 251 680 c 1,9,10
 276 707 276 707 307.5 728.5 c 128,-1,11
 339 750 339 750 365 766 c 1,12,-1
 464 766 l 1,13,-1
 464 753 l 1,14,15
 446 735 446 735 422 709 c 128,-1,16
 398 683 398 683 375.5 655.5 c 128,-1,17
 353 628 353 628 339 606 c 1,18,-1
 165 606 l 1,0,1
EndSplineSet
EndChar

StartChar: macron
Encoding: 713 713 332
Width: 411
Flags: W
LayerCount: 2
Fore
SplineSet
371 709 m 1,0,-1
 371 606 l 1,1,-1
 40 606 l 1,2,-1
 40 709 l 1,3,-1
 371 709 l 1,0,-1
EndSplineSet
EndChar

StartChar: breve
Encoding: 728 728 333
Width: 464
Flags: W
LayerCount: 2
Fore
SplineSet
424 771 m 1,0,1
 419 698 419 698 366 652 c 128,-1,2
 313 606 313 606 230 606 c 0,3,4
 144 606 144 606 94 651 c 128,-1,5
 44 696 44 696 40 771 c 1,6,-1
 123 771 l 1,7,8
 126 743 126 743 140.5 730 c 128,-1,9
 155 717 155 717 178.5 713.5 c 128,-1,10
 202 710 202 710 231 710 c 0,11,12
 254 710 254 710 278 714.5 c 128,-1,13
 302 719 302 719 319 732 c 128,-1,14
 336 745 336 745 339 771 c 1,15,-1
 424 771 l 1,0,1
EndSplineSet
EndChar

StartChar: dotaccent
Encoding: 729 729 334
Width: 242
Flags: W
LayerCount: 2
Fore
SplineSet
121 760 m 0,0,1
 154 760 154 760 178 744.5 c 128,-1,2
 202 729 202 729 202 687 c 0,3,4
 202 646 202 646 178 630 c 128,-1,5
 154 614 154 614 121 614 c 0,6,7
 87 614 87 614 63.5 630 c 128,-1,8
 40 646 40 646 40 687 c 0,9,10
 40 729 40 729 63.5 744.5 c 128,-1,11
 87 760 87 760 121 760 c 0,0,1
EndSplineSet
EndChar

StartChar: ring
Encoding: 730 730 335
Width: 325
Flags: W
LayerCount: 2
Fore
SplineSet
161 605 m 0,0,1
 107 605 107 605 73.5 636 c 128,-1,2
 40 667 40 667 40 721 c 256,3,4
 40 775 40 775 73.5 806 c 128,-1,5
 107 837 107 837 161 837 c 0,6,7
 213 837 213 837 249 806 c 128,-1,8
 285 775 285 775 285 722 c 0,9,10
 285 667 285 667 249.5 636 c 128,-1,11
 214 605 214 605 161 605 c 0,0,1
161 674 m 0,12,13
 181 674 181 674 194.5 686.5 c 128,-1,14
 208 699 208 699 208 721 c 256,15,16
 208 743 208 743 194.5 755.5 c 128,-1,17
 181 768 181 768 161 768 c 256,18,19
 141 768 141 768 127.5 755.5 c 128,-1,20
 114 743 114 743 114 721 c 256,21,22
 114 699 114 699 126 686.5 c 128,-1,23
 138 674 138 674 161 674 c 0,12,13
EndSplineSet
EndChar

StartChar: ogonek
Encoding: 731 731 336
Width: 278
Flags: W
LayerCount: 2
Fore
SplineSet
143 -111 m 0,0,1
 143 -131 143 -131 154 -141 c 128,-1,2
 165 -151 165 -151 182 -151 c 0,3,4
 198 -151 198 -151 213 -148 c 128,-1,5
 228 -145 228 -145 238 -142 c 1,6,-1
 238 -229 l 1,7,8
 222 -234 222 -234 204 -237 c 128,-1,9
 186 -240 186 -240 162 -240 c 0,10,11
 106 -240 106 -240 73 -209 c 128,-1,12
 40 -178 40 -178 40 -128 c 0,13,14
 40 -84 40 -84 72 -46 c 128,-1,15
 104 -8 104 -8 150 17 c 1,16,-1
 215 0 l 1,17,18
 181 -32 181 -32 162 -59 c 128,-1,19
 143 -86 143 -86 143 -111 c 0,0,1
EndSplineSet
EndChar

StartChar: tilde
Encoding: 732 732 337
Width: 485
Flags: W
LayerCount: 2
Fore
SplineSet
40 605 m 1,0,1
 46 683 46 683 83.5 719.5 c 128,-1,2
 121 756 121 756 173 756 c 0,3,4
 200 756 200 756 225 743 c 128,-1,5
 250 730 250 730 275 717.5 c 128,-1,6
 300 705 300 705 323 705 c 0,7,8
 338 705 338 705 352 718 c 128,-1,9
 366 731 366 731 372 757 c 1,10,-1
 445 757 l 1,11,12
 439 680 439 680 401 643 c 128,-1,13
 363 606 363 606 312 606 c 0,14,15
 286 606 286 606 260 618.5 c 128,-1,16
 234 631 234 631 210 644 c 128,-1,17
 186 657 186 657 162 657 c 0,18,19
 147 657 147 657 133 644 c 128,-1,20
 119 631 119 631 113 605 c 1,21,-1
 40 605 l 1,0,1
EndSplineSet
EndChar

StartChar: hungarumlaut
Encoding: 733 733 338
Width: 516
Flags: W
LayerCount: 2
Fore
SplineSet
476 766 m 1,0,-1
 476 756 l 1,1,2
 468 743 468 743 449 723 c 128,-1,3
 430 703 430 703 405 681 c 128,-1,4
 380 659 380 659 355.5 639.5 c 128,-1,5
 331 620 331 620 313 606 c 1,6,-1
 234 606 l 1,7,-1
 234 619 l 1,8,9
 248 638 248 638 266 664 c 128,-1,10
 284 690 284 690 301 717 c 128,-1,11
 318 744 318 744 329 766 c 1,12,-1
 476 766 l 1,0,-1
282 766 m 1,13,-1
 282 756 l 1,14,15
 274 743 274 743 255 723 c 128,-1,16
 236 703 236 703 211 681 c 128,-1,17
 186 659 186 659 161.5 639.5 c 128,-1,18
 137 620 137 620 119 606 c 1,19,-1
 40 606 l 1,20,-1
 40 619 l 1,21,22
 54 638 54 638 71.5 664 c 128,-1,23
 89 690 89 690 106 717 c 128,-1,24
 123 744 123 744 135 766 c 1,25,-1
 282 766 l 1,13,-1
EndSplineSet
EndChar

StartChar: tonos
Encoding: 900 900 339
Width: 577
Flags: W
AnchorPoint: "Anchor-10" 290 546 mark 0
AnchorPoint: "Anchor-6" 290 546 mark 0
AnchorPoint: "Anchor-2" 290 546 mark 0
LayerCount: 2
Fore
SplineSet
235 606 m 1,0,-1
 235 621 l 1,1,2
 242 644 242 644 250 675.5 c 128,-1,3
 258 707 258 707 265 738.5 c 128,-1,4
 272 770 272 770 275 796 c 1,5,-1
 413 796 l 1,6,-1
 413 784 l 1,7,8
 396 745 396 745 373 699 c 128,-1,9
 350 653 350 653 322 606 c 1,10,-1
 235 606 l 1,0,-1
EndSplineSet
EndChar

StartChar: dieresistonos
Encoding: 901 901 340
Width: 577
Flags: W
AnchorPoint: "Anchor-10" 289 546 mark 0
AnchorPoint: "Anchor-6" 289 546 mark 0
AnchorPoint: "Anchor-2" 289 546 mark 0
LayerCount: 2
Fore
SplineSet
404 838 m 1,0,-1
 404 828 l 1,1,2
 389 795 389 795 365 756 c 128,-1,3
 341 717 341 717 313 678 c 1,4,-1
 246 678 l 1,5,-1
 246 691 l 1,6,7
 254 720 254 720 263 763 c 128,-1,8
 272 806 272 806 276 838 c 1,9,-1
 404 838 l 1,0,-1
162 752 m 256,10,11
 190 752 190 752 208 736 c 128,-1,12
 226 720 226 720 226 686 c 0,13,14
 226 653 226 653 208 637 c 128,-1,15
 190 621 190 621 162 621 c 256,16,17
 134 621 134 621 116.5 637 c 128,-1,18
 99 653 99 653 99 686 c 0,19,20
 99 720 99 720 116.5 736 c 128,-1,21
 134 752 134 752 162 752 c 256,10,11
430 752 m 0,22,23
 458 752 458 752 476 736 c 128,-1,24
 494 720 494 720 494 686 c 0,25,26
 494 653 494 653 476 637 c 128,-1,27
 458 621 458 621 430 621 c 0,28,29
 401 621 401 621 383.5 637 c 128,-1,30
 366 653 366 653 366 686 c 0,31,32
 366 720 366 720 383.5 736 c 128,-1,33
 401 752 401 752 430 752 c 0,22,23
EndSplineSet
EndChar

StartChar: Gamma
Encoding: 915 915 352
Width: 561
GlyphClass: 2
Flags: W
AnchorPoint: "Anchor-2" 326 714 basechar 0
AnchorPoint: "Anchor-0" 281 0 basechar 0
LayerCount: 2
Fore
SplineSet
541 714 m 1,0,-1
 541 589 l 1,1,-1
 241 589 l 1,2,-1
 241 0 l 1,3,-1
 90 0 l 1,4,-1
 90 714 l 1,5,-1
 541 714 l 1,0,-1
EndSplineSet
EndChar

StartChar: uni0394
Encoding: 916 916 353
Width: 658
GlyphClass: 2
Flags: W
AnchorPoint: "Anchor-2" 329 714 basechar 0
AnchorPoint: "Anchor-0" 329 0 basechar 0
LayerCount: 2
Fore
SplineSet
415 717 m 1,0,-1
 630 86 l 1,1,-1
 630 0 l 1,2,-1
 28 0 l 1,3,-1
 28 87 l 1,4,-1
 244 717 l 1,5,-1
 415 717 l 1,0,-1
476 126 m 1,6,-1
 353 501 l 2,7,8
 350 508 350 508 344.5 528 c 128,-1,9
 339 548 339 548 334.5 567.5 c 128,-1,10
 330 587 330 587 329 593 c 1,11,12
 328 587 328 587 323.5 567.5 c 128,-1,13
 319 548 319 548 313.5 528 c 128,-1,14
 308 508 308 508 305 500 c 2,15,-1
 182 126 l 1,16,-1
 476 126 l 1,6,-1
EndSplineSet
EndChar

StartChar: Theta
Encoding: 920 920 357
Width: 796
GlyphClass: 2
Flags: W
AnchorPoint: "Anchor-3" 776 714 basechar 0
AnchorPoint: "Anchor-2" 398 714 basechar 0
AnchorPoint: "Anchor-1" 398 357 basechar 0
AnchorPoint: "Anchor-0" 399 0 basechar 0
LayerCount: 2
Fore
SplineSet
738 358 m 256,0,1
 738 247 738 247 701.5 164.5 c 128,-1,2
 665 82 665 82 589.5 36 c 128,-1,3
 514 -10 514 -10 398 -10 c 256,4,5
 282 -10 282 -10 206.5 36 c 128,-1,6
 131 82 131 82 94.5 165 c 128,-1,7
 58 248 58 248 58 359 c 256,8,9
 58 470 58 470 94.5 552 c 128,-1,10
 131 634 131 634 206.5 679.5 c 128,-1,11
 282 725 282 725 399 725 c 0,12,13
 515 725 515 725 590 679.5 c 128,-1,14
 665 634 665 634 701.5 551.5 c 128,-1,15
 738 469 738 469 738 358 c 256,0,1
217 358 m 256,16,17
 217 246 217 246 260 181.5 c 128,-1,18
 303 117 303 117 398 117 c 0,19,20
 495 117 495 117 537 181.5 c 128,-1,21
 579 246 579 246 579 358 c 256,22,23
 579 470 579 470 537 534.5 c 128,-1,24
 495 599 495 599 399 599 c 256,25,26
 303 599 303 599 260 534.5 c 128,-1,27
 217 470 217 470 217 358 c 256,16,17
525 425 m 1,28,-1
 525 301 l 1,29,-1
 271 301 l 1,30,-1
 271 425 l 1,31,-1
 525 425 l 1,28,-1
EndSplineSet
EndChar

StartChar: Lambda
Encoding: 923 923 360
Width: 650
GlyphClass: 2
Flags: W
AnchorPoint: "Anchor-2" 325 714 basechar 0
AnchorPoint: "Anchor-0" 325 0 basechar 0
LayerCount: 2
Fore
SplineSet
407 714 m 1,0,-1
 650 0 l 1,1,-1
 497 0 l 1,2,-1
 364 429 l 2,3,4
 360 443 360 443 352 473.5 c 128,-1,5
 344 504 344 504 336 536 c 128,-1,6
 328 568 328 568 325 587 c 1,7,8
 322 566 322 566 314.5 534 c 128,-1,9
 307 502 307 502 299.5 472 c 128,-1,10
 292 442 292 442 288 428 c 2,11,-1
 153 0 l 1,12,-1
 0 0 l 1,13,-1
 242 714 l 1,14,-1
 407 714 l 1,0,-1
EndSplineSet
EndChar

StartChar: Xi
Encoding: 926 926 363
Width: 571
GlyphClass: 2
Flags: W
AnchorPoint: "Anchor-2" 286 714 basechar 0
AnchorPoint: "Anchor-0" 286 0 basechar 0
LayerCount: 2
Fore
SplineSet
60 590 m 1,0,-1
 60 714 l 1,1,-1
 511 714 l 1,2,-1
 511 590 l 1,3,-1
 60 590 l 1,0,-1
100 309 m 1,4,-1
 100 433 l 1,5,-1
 471 433 l 1,6,-1
 471 309 l 1,7,-1
 100 309 l 1,4,-1
40 0 m 1,8,-1
 40 125 l 1,9,-1
 531 125 l 1,10,-1
 531 0 l 1,11,-1
 40 0 l 1,8,-1
EndSplineSet
EndChar

StartChar: Pi
Encoding: 928 928 365
Width: 745
GlyphClass: 2
Flags: W
AnchorPoint: "Anchor-2" 373 714 basechar 0
AnchorPoint: "Anchor-0" 373 0 basechar 0
LayerCount: 2
Fore
SplineSet
90 0 m 1,0,-1
 90 714 l 1,1,-1
 655 714 l 1,2,-1
 655 0 l 1,3,-1
 504 0 l 1,4,-1
 504 588 l 1,5,-1
 241 588 l 1,6,-1
 241 0 l 1,7,-1
 90 0 l 1,0,-1
EndSplineSet
EndChar

StartChar: Sigma
Encoding: 931 931 367
Width: 593
GlyphClass: 2
Flags: W
AnchorPoint: "Anchor-2" 297 714 basechar 0
AnchorPoint: "Anchor-0" 297 0 basechar 0
LayerCount: 2
Fore
SplineSet
38 0 m 1,0,-1
 38 119 l 1,1,-1
 268 374 l 1,2,-1
 44 598 l 1,3,-1
 44 714 l 1,4,-1
 530 714 l 1,5,-1
 530 590 l 1,6,-1
 315 590 l 2,7,8
 287 590 287 590 260 591 c 128,-1,9
 233 592 233 592 205 595 c 1,10,-1
 427 375 l 1,11,-1
 194 119 l 1,12,13
 263 125 263 125 332 125 c 2,14,-1
 559 125 l 1,15,-1
 559 0 l 1,16,-1
 38 0 l 1,0,-1
EndSplineSet
EndChar

StartChar: Phi
Encoding: 934 934 370
Width: 860
GlyphClass: 2
Flags: W
AnchorPoint: "Anchor-2" 430 714 basechar 0
AnchorPoint: "Anchor-0" 430 0 basechar 0
LayerCount: 2
Fore
SplineSet
498 724 m 1,0,-1
 498 636 l 1,1,2
 614 633 614 633 684 595.5 c 128,-1,3
 754 558 754 558 784.5 499 c 128,-1,4
 815 440 815 440 815 370 c 0,5,6
 815 325 815 325 799.5 278 c 128,-1,7
 784 231 784 231 747.5 191.5 c 128,-1,8
 711 152 711 152 650 127 c 128,-1,9
 589 102 589 102 498 100 c 1,10,-1
 498 -10 l 1,11,-1
 362 -10 l 1,12,-1
 362 100 l 1,13,14
 270 102 270 102 208.5 127 c 128,-1,15
 147 152 147 152 111 192 c 128,-1,16
 75 232 75 232 60 278.5 c 128,-1,17
 45 325 45 325 45 370 c 0,18,19
 45 440 45 440 75.5 499 c 128,-1,20
 106 558 106 558 175.5 595.5 c 128,-1,21
 245 633 245 633 362 636 c 1,22,-1
 362 724 l 1,23,-1
 498 724 l 1,0,-1
362 518 m 1,24,25
 264 514 264 514 225.5 473 c 128,-1,26
 187 432 187 432 187 371 c 0,27,28
 187 304 187 304 228.5 262.5 c 128,-1,29
 270 221 270 221 362 217 c 1,30,-1
 362 518 l 1,24,25
498 518 m 1,31,-1
 498 217 l 1,32,33
 590 221 590 221 631.5 262.5 c 128,-1,34
 673 304 673 304 673 371 c 0,35,36
 673 432 673 432 634.5 473 c 128,-1,37
 596 514 596 514 498 518 c 1,31,-1
EndSplineSet
EndChar

StartChar: Psi
Encoding: 936 936 372
Width: 876
GlyphClass: 2
Flags: W
AnchorPoint: "Anchor-2" 438 714 basechar 0
AnchorPoint: "Anchor-0" 438 0 basechar 0
LayerCount: 2
Fore
SplineSet
823 714 m 1,0,-1
 823 480 l 2,1,2
 823 392 823 392 793.5 332.5 c 128,-1,3
 764 273 764 273 694.5 243 c 128,-1,4
 625 213 625 213 506 213 c 1,5,-1
 506 0 l 1,6,-1
 370 0 l 1,7,-1
 370 213 l 1,8,9
 248 213 248 213 179 243.5 c 128,-1,10
 110 274 110 274 81.5 333 c 128,-1,11
 53 392 53 392 53 478 c 2,12,-1
 53 714 l 1,13,-1
 195 714 l 1,14,-1
 195 480 l 2,15,16
 195 422 195 422 214 390.5 c 128,-1,17
 233 359 233 359 271.5 347 c 128,-1,18
 310 335 310 335 370 335 c 1,19,-1
 370 714 l 1,20,-1
 506 714 l 1,21,-1
 506 335 l 1,22,23
 560 335 560 335 599 346.5 c 128,-1,24
 638 358 638 358 659.5 389 c 128,-1,25
 681 420 681 420 681 478 c 2,26,-1
 681 714 l 1,27,-1
 823 714 l 1,0,-1
EndSplineSet
EndChar

StartChar: uni03A9
Encoding: 937 937 373
Width: 786
GlyphClass: 2
Flags: W
AnchorPoint: "Anchor-2" 393 714 basechar 0
AnchorPoint: "Anchor-0" 393 0 basechar 0
LayerCount: 2
Fore
SplineSet
393 599 m 256,0,1
 308 599 308 599 258.5 546.5 c 128,-1,2
 209 494 209 494 209 394 c 0,3,4
 209 308 209 308 237 242 c 128,-1,5
 265 176 265 176 339 136 c 1,6,-1
 339 0 l 1,7,-1
 27 0 l 1,8,-1
 27 127 l 1,9,-1
 208 127 l 1,10,11
 138 170 138 170 95.5 248 c 128,-1,12
 53 326 53 326 53 426 c 0,13,14
 53 516 53 516 94.5 583.5 c 128,-1,15
 136 651 136 651 212 688 c 128,-1,16
 288 725 288 725 393 725 c 256,17,18
 498 725 498 725 574 688 c 128,-1,19
 650 651 650 651 691.5 583.5 c 128,-1,20
 733 516 733 516 733 425 c 0,21,22
 733 324 733 324 690.5 247 c 128,-1,23
 648 170 648 170 576 127 c 1,24,-1
 759 127 l 1,25,-1
 759 0 l 1,26,-1
 445 0 l 1,27,-1
 445 136 l 1,28,29
 520 175 520 175 548.5 242.5 c 128,-1,30
 577 310 577 310 577 395 c 0,31,32
 577 495 577 495 527.5 547 c 128,-1,33
 478 599 478 599 393 599 c 256,0,1
EndSplineSet
EndChar

StartChar: alpha
Encoding: 945 945 381
Width: 647
GlyphClass: 2
Flags: W
AnchorPoint: "Anchor-2" 320 546 basechar 0
AnchorPoint: "Anchor-0" 317 0 basechar 0
LayerCount: 2
Fore
SplineSet
259 -10 m 0,0,1
 163 -10 163 -10 104 61.5 c 128,-1,2
 45 133 45 133 45 271 c 0,3,4
 45 410 45 410 105.5 482.5 c 128,-1,5
 166 555 166 555 270 555 c 0,6,7
 328 555 328 555 365 534.5 c 128,-1,8
 402 514 402 514 427 473 c 1,9,-1
 434 473 l 1,10,11
 438 490 438 490 446.5 510.5 c 128,-1,12
 455 531 455 531 467 546 c 1,13,-1
 590 546 l 1,14,15
 579 514 579 514 567 453 c 128,-1,16
 555 392 555 392 555 325 c 2,17,-1
 555 173 l 2,18,19
 555 139 555 139 567.5 127 c 128,-1,20
 580 115 580 115 596 115 c 0,21,22
 603 115 603 115 612 116.5 c 128,-1,23
 621 118 621 118 625 120 c 1,24,-1
 625 3 l 1,25,26
 618 -2 618 -2 596 -6 c 128,-1,27
 574 -10 574 -10 558 -10 c 0,28,29
 508 -10 508 -10 477 8 c 128,-1,30
 446 26 446 26 429 72 c 1,31,-1
 419 72 l 1,32,33
 396 38 396 38 358 14 c 128,-1,34
 320 -10 320 -10 259 -10 c 0,0,1
304 109 m 0,35,36
 366 109 366 109 390 146.5 c 128,-1,37
 414 184 414 184 416 266 c 2,38,-1
 416 272 l 2,39,40
 416 352 416 352 391.5 394 c 128,-1,41
 367 436 367 436 302 436 c 0,42,43
 249 436 249 436 223 393.5 c 128,-1,44
 197 351 197 351 197 270 c 0,45,46
 197 109 197 109 304 109 c 0,35,36
EndSplineSet
EndChar

StartChar: beta
Encoding: 946 946 382
Width: 660
GlyphClass: 2
Flags: W
AnchorPoint: "Anchor-3" 585 765 basechar 0
AnchorPoint: "Anchor-2" 339 765 basechar 0
AnchorPoint: "Anchor-0" 414 0 basechar 0
LayerCount: 2
Fore
SplineSet
339 765 m 0,0,1
 410 765 410 765 466 743.5 c 128,-1,2
 522 722 522 722 554 679.5 c 128,-1,3
 586 637 586 637 586 573 c 0,4,5
 586 501 586 501 548.5 458.5 c 128,-1,6
 511 416 511 416 443 405 c 1,7,-1
 443 402 l 1,8,9
 528 392 528 392 576.5 347 c 128,-1,10
 625 302 625 302 625 211 c 0,11,12
 625 106 625 106 560 48 c 128,-1,13
 495 -10 495 -10 386 -10 c 0,14,15
 289 -10 289 -10 227 21 c 1,16,-1
 227 -240 l 1,17,-1
 78 -240 l 1,18,-1
 78 535 l 2,19,20
 78 616 78 616 112.5 666.5 c 128,-1,21
 147 717 147 717 206 741 c 128,-1,22
 265 765 265 765 339 765 c 0,0,1
335 649 m 0,23,24
 306 649 306 649 281 638 c 128,-1,25
 256 627 256 627 241.5 599.5 c 128,-1,26
 227 572 227 572 227 521 c 2,27,-1
 227 143 l 1,28,29
 252 127 252 127 286 118 c 128,-1,30
 320 109 320 109 348 109 c 0,31,32
 410 109 410 109 440.5 139.5 c 128,-1,33
 471 170 471 170 471 224 c 0,34,35
 471 286 471 286 433.5 310 c 128,-1,36
 396 334 396 334 344 334 c 2,37,-1
 309 334 l 1,38,-1
 309 452 l 1,39,-1
 335 452 l 2,40,41
 388 452 388 452 412.5 480.5 c 128,-1,42
 437 509 437 509 437 555 c 0,43,44
 437 602 437 602 409 625.5 c 128,-1,45
 381 649 381 649 335 649 c 0,23,24
EndSplineSet
EndChar

StartChar: gamma
Encoding: 947 947 383
Width: 568
GlyphClass: 2
Flags: W
AnchorPoint: "Anchor-3" 558 546 basechar 0
AnchorPoint: "Anchor-2" 284 546 basechar 0
AnchorPoint: "Anchor-0" 284 -240 basechar 0
LayerCount: 2
Fore
SplineSet
568 546 m 1,0,-1
 366 9 l 2,1,2
 350 -32 350 -32 339.5 -76.5 c 128,-1,3
 329 -121 329 -121 323.5 -163.5 c 128,-1,4
 318 -206 318 -206 318 -240 c 1,5,-1
 160 -240 l 1,6,7
 160 -212 160 -212 166.5 -170 c 128,-1,8
 173 -128 173 -128 184 -81.5 c 128,-1,9
 195 -35 195 -35 209 6 c 1,10,-1
 1 546 l 1,11,-1
 156 546 l 1,12,-1
 236 305 l 2,13,14
 245 278 245 278 255.5 242 c 128,-1,15
 266 206 266 206 274 172 c 128,-1,16
 282 138 282 138 285 121 c 1,17,-1
 288 121 l 1,18,19
 290 136 290 136 296.5 165.5 c 128,-1,20
 303 195 303 195 312.5 230.5 c 128,-1,21
 322 266 322 266 333 298 c 2,22,-1
 413 546 l 1,23,-1
 568 546 l 1,0,-1
EndSplineSet
EndChar

StartChar: delta
Encoding: 948 948 384
Width: 619
GlyphClass: 2
Flags: W
AnchorPoint: "Anchor-2" 310 765 basechar 0
AnchorPoint: "Anchor-0" 310 0 basechar 0
LayerCount: 2
Fore
SplineSet
343 765 m 0,0,1
 411 765 411 765 463 750.5 c 128,-1,2
 515 736 515 736 568 711 c 1,3,-1
 509 606 l 1,4,5
 464 628 464 628 422 641.5 c 128,-1,6
 380 655 380 655 337 655 c 0,7,8
 297 655 297 655 281 640.5 c 128,-1,9
 265 626 265 626 265 606 c 0,10,11
 265 580 265 580 298.5 554 c 128,-1,12
 332 528 332 528 400 494 c 0,13,14
 490 448 490 448 532 388 c 128,-1,15
 574 328 574 328 574 250 c 0,16,17
 574 116 574 116 501 53 c 128,-1,18
 428 -10 428 -10 307 -10 c 0,19,20
 231 -10 231 -10 172 16 c 128,-1,21
 113 42 113 42 79 92 c 128,-1,22
 45 142 45 142 45 214 c 0,23,24
 45 283 45 283 70.5 329.5 c 128,-1,25
 96 376 96 376 139.5 404 c 128,-1,26
 183 432 183 432 237 448 c 1,27,28
 191 477 191 477 156 518.5 c 128,-1,29
 121 560 121 560 121 615 c 0,30,31
 121 688 121 688 181.5 726.5 c 128,-1,32
 242 765 242 765 343 765 c 0,0,1
324 387 m 1,33,34
 297 380 297 380 267.5 360.5 c 128,-1,35
 238 341 238 341 218 306.5 c 128,-1,36
 198 272 198 272 198 220 c 0,37,38
 198 173 198 173 227 141.5 c 128,-1,39
 256 110 256 110 308 110 c 0,40,41
 362 110 362 110 392 143.5 c 128,-1,42
 422 177 422 177 422 240 c 0,43,44
 422 292 422 292 395 327.5 c 128,-1,45
 368 363 368 363 324 387 c 1,33,34
EndSplineSet
EndChar

StartChar: epsilon
Encoding: 949 949 385
Width: 555
GlyphClass: 2
Flags: W
AnchorPoint: "Anchor-2" 314 546 basechar 0
AnchorPoint: "Anchor-0" 278 0 basechar 0
LayerCount: 2
Fore
SplineSet
410 336 m 1,0,-1
 410 233 l 1,1,-1
 328 233 l 2,2,3
 251 233 251 233 218 216 c 128,-1,4
 185 199 185 199 185 166 c 0,5,6
 185 139 185 139 215 122 c 128,-1,7
 245 105 245 105 316 105 c 0,8,9
 377 105 377 105 429.5 118 c 128,-1,10
 482 131 482 131 517 147 c 1,11,-1
 517 28 l 1,12,13
 480 11 480 11 426 0.5 c 128,-1,14
 372 -10 372 -10 305 -10 c 0,15,16
 164 -10 164 -10 101 34 c 128,-1,17
 38 78 38 78 38 151 c 0,18,19
 38 211 38 211 74.5 241 c 128,-1,20
 111 271 111 271 171 282 c 1,21,-1
 171 287 l 1,22,23
 118 299 118 299 92.5 331.5 c 128,-1,24
 67 364 67 364 67 413 c 0,25,26
 67 465 67 465 99 496.5 c 128,-1,27
 131 528 131 528 185 542 c 128,-1,28
 239 556 239 556 305 556 c 0,29,30
 362 556 362 556 419 545 c 128,-1,31
 476 534 476 534 518 515 c 1,32,-1
 472 407 l 1,33,34
 436 422 436 422 397.5 434 c 128,-1,35
 359 446 359 446 309 446 c 0,36,37
 200 446 200 446 200 395 c 0,38,39
 200 363 200 363 232.5 349.5 c 128,-1,40
 265 336 265 336 335 336 c 2,41,-1
 410 336 l 1,0,-1
EndSplineSet
EndChar

StartChar: zeta
Encoding: 950 950 386
Width: 498
GlyphClass: 2
Flags: W
AnchorPoint: "Anchor-2" 249 760 basechar 0
AnchorPoint: "Anchor-0" 249 -185 basechar 0
LayerCount: 2
Fore
SplineSet
493 -18 m 0,0,1
 493 -62 493 -62 472 -106 c 128,-1,2
 451 -150 451 -150 426 -185 c 1,3,-1
 276 -185 l 1,4,5
 304 -147 304 -147 326 -106.5 c 128,-1,6
 348 -66 348 -66 348 -41 c 0,7,8
 348 -28 348 -28 332.5 -17 c 128,-1,9
 317 -6 317 -6 260 4 c 0,10,11
 160 22 160 22 102.5 75.5 c 128,-1,12
 45 129 45 129 45 228 c 0,13,14
 45 313 45 313 83.5 388.5 c 128,-1,15
 122 464 122 464 185 531 c 128,-1,16
 248 598 248 598 323 659 c 1,17,18
 311 656 311 656 290 654 c 128,-1,19
 269 652 269 652 248.5 651.5 c 128,-1,20
 228 651 228 651 215 651 c 2,21,-1
 73 651 l 1,22,-1
 73 760 l 1,23,-1
 490 760 l 1,24,-1
 490 671 l 1,25,26
 391 589 391 589 332.5 523 c 128,-1,27
 274 457 274 457 245 403.5 c 128,-1,28
 216 350 216 350 207 308.5 c 128,-1,29
 198 267 198 267 198 235 c 0,30,31
 198 186 198 186 215 162.5 c 128,-1,32
 232 139 232 139 262.5 128.5 c 128,-1,33
 293 118 293 118 335 109 c 0,34,35
 424 91 424 91 458.5 59 c 128,-1,36
 493 27 493 27 493 -18 c 0,0,1
EndSplineSet
EndChar

StartChar: eta
Encoding: 951 951 387
Width: 657
GlyphClass: 2
Flags: W
AnchorPoint: "Anchor-2" 340 546 basechar 0
AnchorPoint: "Anchor-0" 328 -240 basechar 0
LayerCount: 2
Fore
SplineSet
388 556 m 0,0,1
 476 556 476 556 529 508.5 c 128,-1,2
 582 461 582 461 582 356 c 2,3,-1
 582 -240 l 1,4,-1
 433 -240 l 1,5,-1
 433 319 l 2,6,7
 433 378 433 378 412 407.5 c 128,-1,8
 391 437 391 437 345 437 c 0,9,10
 277 437 277 437 252 390.5 c 128,-1,11
 227 344 227 344 227 257 c 2,12,-1
 227 0 l 1,13,-1
 78 0 l 1,14,-1
 78 546 l 1,15,-1
 192 546 l 1,16,-1
 212 476 l 1,17,-1
 220 476 l 1,18,19
 246 518 246 518 291.5 537 c 128,-1,20
 337 556 337 556 388 556 c 0,0,1
EndSplineSet
EndChar

StartChar: theta
Encoding: 952 952 388
Width: 618
GlyphClass: 2
Flags: W
AnchorPoint: "Anchor-3" 538 765 basechar 0
AnchorPoint: "Anchor-2" 309 765 basechar 0
AnchorPoint: "Anchor-0" 309 0 basechar 0
LayerCount: 2
Fore
SplineSet
573 378 m 0,0,1
 573 256 573 256 546.5 169.5 c 128,-1,2
 520 83 520 83 462 36.5 c 128,-1,3
 404 -10 404 -10 308 -10 c 0,4,5
 174 -10 174 -10 109.5 93 c 128,-1,6
 45 196 45 196 45 378 c 0,7,8
 45 500 45 500 71 586.5 c 128,-1,9
 97 673 97 673 155 719 c 128,-1,10
 213 765 213 765 308 765 c 0,11,12
 442 765 442 765 507.5 663.5 c 128,-1,13
 573 562 573 562 573 378 c 0,0,1
309 657 m 0,14,15
 253 657 253 657 227.5 601.5 c 128,-1,16
 202 546 202 546 198 436 c 1,17,-1
 420 436 l 1,18,19
 416 546 416 546 390 601.5 c 128,-1,20
 364 657 364 657 309 657 c 0,14,15
308 98 m 0,21,22
 365 98 365 98 391.5 154.5 c 128,-1,23
 418 211 418 211 420 325 c 1,24,-1
 197 325 l 1,25,26
 198 212 198 212 224 155 c 128,-1,27
 250 98 250 98 308 98 c 0,21,22
EndSplineSet
EndChar

StartChar: iota
Encoding: 953 953 389
Width: 407
GlyphClass: 2
Flags: W
AnchorPoint: "Anchor-2" 161 546 basechar 0
AnchorPoint: "Anchor-0" 221 0 basechar 0
LayerCount: 2
Fore
SplineSet
227 546 m 1,0,-1
 227 171 l 2,1,2
 227 140 227 140 245 124.5 c 128,-1,3
 263 109 263 109 292 109 c 0,4,5
 317 109 317 109 340 113.5 c 128,-1,6
 363 118 363 118 386 126 c 1,7,-1
 386 15 l 1,8,9
 364 4 364 4 330.5 -3 c 128,-1,10
 297 -10 297 -10 258 -10 c 0,11,12
 207 -10 207 -10 166.5 6 c 128,-1,13
 126 22 126 22 102 61 c 128,-1,14
 78 100 78 100 78 171 c 2,15,-1
 78 546 l 1,16,-1
 227 546 l 1,0,-1
EndSplineSet
EndChar

StartChar: lambda
Encoding: 955 955 391
Width: 615
GlyphClass: 2
Flags: W
AnchorPoint: "Anchor-2" 308 766 basechar 0
AnchorPoint: "Anchor-0" 308 0 basechar 0
LayerCount: 2
Fore
SplineSet
4 0 m 1,0,-1
 235 516 l 1,1,-1
 218 561 l 2,2,3
 197 613 197 613 173 627 c 128,-1,4
 149 641 149 641 109 641 c 0,5,6
 96 641 96 641 82.5 639 c 128,-1,7
 69 637 69 637 59 635 c 1,8,-1
 59 758 l 1,9,10
 72 761 72 761 97 763.5 c 128,-1,11
 122 766 122 766 140 766 c 0,12,13
 204 766 204 766 244.5 745.5 c 128,-1,14
 285 725 285 725 311 685.5 c 128,-1,15
 337 646 337 646 357 591 c 2,16,-1
 494 214 l 2,17,18
 516 152 516 152 535.5 133.5 c 128,-1,19
 555 115 555 115 576 115 c 0,20,21
 590 115 590 115 610 120 c 1,22,-1
 610 5 l 1,23,24
 598 -1 598 -1 570.5 -5.5 c 128,-1,25
 543 -10 543 -10 524 -10 c 0,26,27
 463 -10 463 -10 431.5 20.5 c 128,-1,28
 400 51 400 51 382 101 c 2,29,-1
 335 234 l 2,30,31
 324 266 324 266 314 296.5 c 128,-1,32
 304 327 304 327 299 349 c 1,33,-1
 296 349 l 1,34,35
 288 323 288 323 278.5 292 c 128,-1,36
 269 261 269 261 259 237 c 2,37,-1
 158 0 l 1,38,-1
 4 0 l 1,0,-1
EndSplineSet
EndChar

StartChar: nu
Encoding: 957 957 393
Width: 595
GlyphClass: 2
Flags: W
AnchorPoint: "Anchor-2" 298 546 basechar 0
AnchorPoint: "Anchor-0" 298 0 basechar 0
LayerCount: 2
Fore
SplineSet
3 546 m 1,0,-1
 156 546 l 1,1,-1
 262 243 l 2,2,3
 270 220 270 220 280 186 c 128,-1,4
 290 152 290 152 296 132 c 1,5,-1
 300 132 l 1,6,7
 357 207 357 207 381.5 305.5 c 128,-1,8
 406 404 406 404 406 546 c 1,9,-1
 556 546 l 1,10,11
 556 438 556 438 537.5 345.5 c 128,-1,12
 519 253 519 253 472.5 168.5 c 128,-1,13
 426 84 426 84 342 0 c 1,14,-1
 208 0 l 1,15,-1
 3 546 l 1,0,-1
EndSplineSet
EndChar

StartChar: xi
Encoding: 958 958 394
Width: 498
GlyphClass: 2
Flags: W
AnchorPoint: "Anchor-2" 249 760 basechar 0
AnchorPoint: "Anchor-0" 249 -185 basechar 0
LayerCount: 2
Fore
SplineSet
45 214 m 0,0,1
 45 280 45 280 83.5 325.5 c 128,-1,2
 122 371 122 371 183 395 c 1,3,-1
 183 400 l 1,4,5
 132 412 132 412 104 443 c 128,-1,6
 76 474 76 474 76 524 c 0,7,8
 76 577 76 577 110 608.5 c 128,-1,9
 144 640 144 640 217 657 c 1,10,11
 217 657 217 657 200 656 c 128,-1,12
 183 655 183 655 159 654 c 128,-1,13
 135 653 135 653 114 652 c 128,-1,14
 93 651 93 651 84 651 c 2,15,-1
 73 651 l 1,16,-1
 73 760 l 1,17,-1
 466 760 l 1,18,-1
 466 657 l 1,19,-1
 429 657 l 2,20,21
 375 657 375 657 328.5 643.5 c 128,-1,22
 282 630 282 630 253 602 c 128,-1,23
 224 574 224 574 224 533 c 0,24,25
 224 491 224 491 252 469 c 128,-1,26
 280 447 280 447 359 447 c 2,27,-1
 440 447 l 1,28,-1
 440 344 l 1,29,-1
 358 344 l 2,30,31
 273 344 273 344 235.5 314 c 128,-1,32
 198 284 198 284 198 224 c 0,33,34
 198 181 198 181 215 159.5 c 128,-1,35
 232 138 232 138 262.5 128 c 128,-1,36
 293 118 293 118 335 109 c 0,37,38
 424 91 424 91 458.5 59 c 128,-1,39
 493 27 493 27 493 -18 c 0,40,41
 493 -62 493 -62 472 -106 c 128,-1,42
 451 -150 451 -150 426 -185 c 1,43,-1
 276 -185 l 1,44,45
 304 -147 304 -147 326 -106.5 c 128,-1,46
 348 -66 348 -66 348 -41 c 0,47,48
 348 -28 348 -28 332.5 -17 c 128,-1,49
 317 -6 317 -6 260 4 c 0,50,51
 160 22 160 22 102.5 73 c 128,-1,52
 45 124 45 124 45 214 c 0,0,1
EndSplineSet
EndChar

StartChar: pi
Encoding: 960 960 396
Width: 739
GlyphClass: 2
Flags: W
AnchorPoint: "Anchor-2" 370 546 basechar 0
AnchorPoint: "Anchor-0" 370 0 basechar 0
LayerCount: 2
Fore
SplineSet
635 107 m 0,0,1
 652 107 652 107 668 111.5 c 128,-1,2
 684 116 684 116 698 124 c 1,3,-1
 698 17 l 1,4,5
 681 6 681 6 651 -2 c 128,-1,6
 621 -10 621 -10 590 -10 c 0,7,8
 521 -10 521 -10 480.5 28 c 128,-1,9
 440 66 440 66 440 150 c 2,10,-1
 440 432 l 1,11,-1
 275 432 l 1,12,-1
 275 0 l 1,13,-1
 126 0 l 1,14,-1
 126 432 l 1,15,-1
 12 432 l 1,16,-1
 12 496 l 1,17,-1
 99 546 l 1,18,-1
 704 546 l 1,19,-1
 704 432 l 1,20,-1
 589 432 l 1,21,-1
 589 156 l 2,22,23
 589 131 589 131 602.5 119 c 128,-1,24
 616 107 616 107 635 107 c 0,0,1
EndSplineSet
EndChar

StartChar: rho
Encoding: 961 961 397
Width: 618
GlyphClass: 2
Flags: W
AnchorPoint: "Anchor-2" 309 546 basechar 0
AnchorPoint: "Anchor-0" 309 -240 basechar 0
LayerCount: 2
Fore
SplineSet
573 273 m 0,0,1
 573 137 573 137 512 63.5 c 128,-1,2
 451 -10 451 -10 347 -10 c 0,3,4
 309 -10 309 -10 273 1 c 128,-1,5
 237 12 237 12 210 28 c 1,6,-1
 201 28 l 1,7,8
 201 28 201 28 203 7.5 c 128,-1,9
 205 -13 205 -13 207 -43.5 c 128,-1,10
 209 -74 209 -74 209 -103 c 2,11,-1
 209 -240 l 1,12,-1
 59 -240 l 1,13,-1
 59 274 l 2,14,15
 59 408 59 408 127 482 c 128,-1,16
 195 556 195 556 319 556 c 0,17,18
 392 556 392 556 449.5 522.5 c 128,-1,19
 507 489 507 489 540 426 c 128,-1,20
 573 363 573 363 573 273 c 0,0,1
316 436 m 0,21,22
 262 436 262 436 235.5 400 c 128,-1,23
 209 364 209 364 209 281 c 2,24,-1
 209 152 l 1,25,26
 230 131 230 131 258.5 120.5 c 128,-1,27
 287 110 287 110 316 110 c 0,28,29
 372 110 372 110 396 148 c 128,-1,30
 420 186 420 186 420 273 c 256,31,32
 420 360 420 360 396 398 c 128,-1,33
 372 436 372 436 316 436 c 0,21,22
EndSplineSet
EndChar

StartChar: sigma1
Encoding: 962 962 398
Width: 498
GlyphClass: 2
Flags: W
AnchorPoint: "Anchor-2" 249 546 basechar 0
AnchorPoint: "Anchor-0" 249 -185 basechar 0
LayerCount: 2
Fore
SplineSet
318 556 m 0,0,1
 409 556 409 556 492 517 c 1,2,-1
 449 404 l 1,3,4
 412 418 412 418 378.5 427 c 128,-1,5
 345 436 345 436 314 436 c 0,6,7
 252 436 252 436 224.5 388 c 128,-1,8
 197 340 197 340 197 245 c 0,9,10
 197 200 197 200 214 176.5 c 128,-1,11
 231 153 231 153 262.5 141.5 c 128,-1,12
 294 130 294 130 335 121 c 0,13,14
 424 102 424 102 458.5 69 c 128,-1,15
 493 36 493 36 493 -11 c 0,16,17
 493 -56 493 -56 472 -102.5 c 128,-1,18
 451 -149 451 -149 426 -185 c 1,19,-1
 276 -185 l 1,20,21
 304 -144 304 -144 326 -101.5 c 128,-1,22
 348 -59 348 -59 348 -33 c 0,23,24
 348 -20 348 -20 332.5 -8 c 128,-1,25
 317 4 317 4 260 15 c 0,26,27
 160 34 160 34 102.5 90 c 128,-1,28
 45 146 45 146 45 241 c 0,29,30
 45 361 45 361 79 429.5 c 128,-1,31
 113 498 113 498 174.5 527 c 128,-1,32
 236 556 236 556 318 556 c 0,0,1
EndSplineSet
EndChar

StartChar: sigma
Encoding: 963 963 399
Width: 653
GlyphClass: 2
Flags: W
AnchorPoint: "Anchor-2" 327 546 basechar 0
AnchorPoint: "Anchor-0" 327 0 basechar 0
LayerCount: 2
Fore
SplineSet
582 232 m 256,0,1
 582 164 582 164 551 109 c 128,-1,2
 520 54 520 54 460 22 c 128,-1,3
 400 -10 400 -10 312 -10 c 0,4,5
 232 -10 232 -10 172 21.5 c 128,-1,6
 112 53 112 53 78.5 114.5 c 128,-1,7
 45 176 45 176 45 266 c 0,8,9
 45 366 45 366 82 428 c 128,-1,10
 119 490 119 490 188.5 518.5 c 128,-1,11
 258 547 258 547 353 547 c 2,12,-1
 633 547 l 1,13,-1
 633 438 l 1,14,-1
 494 438 l 1,15,16
 530 400 530 400 556 350 c 128,-1,17
 582 300 582 300 582 232 c 256,0,1
198 266 m 0,18,19
 198 196 198 196 225 153 c 128,-1,20
 252 110 252 110 314 110 c 0,21,22
 375 110 375 110 402 150 c 128,-1,23
 429 190 429 190 429 255 c 0,24,25
 429 315 429 315 413 358 c 128,-1,26
 397 401 397 401 367 438 c 1,27,-1
 343 438 l 2,28,29
 267 438 267 438 232.5 400.5 c 128,-1,30
 198 363 198 363 198 266 c 0,18,19
EndSplineSet
EndChar

StartChar: tau
Encoding: 964 964 400
Width: 538
GlyphClass: 2
Flags: W
AnchorPoint: "Anchor-2" 269 546 basechar 0
AnchorPoint: "Anchor-0" 269 0 basechar 0
LayerCount: 2
Fore
SplineSet
500 546 m 1,0,-1
 500 434 l 1,1,-1
 306 434 l 1,2,-1
 306 171 l 2,3,4
 306 140 306 140 324 124.5 c 128,-1,5
 342 109 342 109 371 109 c 0,6,7
 396 109 396 109 419 113.5 c 128,-1,8
 442 118 442 118 465 126 c 1,9,-1
 465 15 l 1,10,11
 442 4 442 4 409 -3 c 128,-1,12
 376 -10 376 -10 337 -10 c 0,13,14
 286 -10 286 -10 245 6 c 128,-1,15
 204 22 204 22 180.5 61 c 128,-1,16
 157 100 157 100 157 171 c 2,17,-1
 157 434 l 1,18,-1
 20 434 l 1,19,-1
 20 496 l 1,20,-1
 106 546 l 1,21,-1
 500 546 l 1,0,-1
EndSplineSet
EndChar

StartChar: upsilon
Encoding: 965 965 401
Width: 645
GlyphClass: 2
Flags: W
AnchorPoint: "Anchor-2" 316 546 basechar 0
AnchorPoint: "Anchor-0" 323 0 basechar 0
LayerCount: 2
Fore
SplineSet
321 -9 m 0,0,1
 223 -9 223 -9 168.5 25.5 c 128,-1,2
 114 60 114 60 92 118 c 128,-1,3
 70 176 70 176 70 249 c 2,4,-1
 70 546 l 1,5,-1
 219 546 l 1,6,-1
 219 244 l 2,7,8
 219 173 219 173 244.5 141.5 c 128,-1,9
 270 110 270 110 326 110 c 0,10,11
 384 110 384 110 413.5 153 c 128,-1,12
 443 196 443 196 443 300 c 0,13,14
 443 364 443 364 433.5 422 c 128,-1,15
 424 480 424 480 408 546 c 1,16,-1
 558 546 l 1,17,18
 574 481 574 481 583 423.5 c 128,-1,19
 592 366 592 366 592 296 c 0,20,21
 592 138 592 138 523 64.5 c 128,-1,22
 454 -9 454 -9 321 -9 c 0,0,1
EndSplineSet
EndChar

StartChar: phi
Encoding: 966 966 402
Width: 792
GlyphClass: 2
Flags: W
AnchorPoint: "Anchor-2" 396 546 basechar 0
AnchorPoint: "Anchor-0" 396 -240 basechar 0
LayerCount: 2
Fore
SplineSet
157 557 m 1,0,-1
 265 487 l 1,1,2
 227 435 227 435 206 384 c 128,-1,3
 185 333 185 333 185 267 c 0,4,5
 185 190 185 190 223.5 154 c 128,-1,6
 262 118 262 118 317 107 c 1,7,-1
 317 359 l 2,8,9
 317 455 317 455 372 504.5 c 128,-1,10
 427 554 427 554 512 554 c 0,11,12
 621 554 621 554 684 483 c 128,-1,13
 747 412 747 412 747 289 c 0,14,15
 747 196 747 196 706 133 c 128,-1,16
 665 70 665 70 598.5 36 c 128,-1,17
 532 2 532 2 455 -6 c 1,18,-1
 455 -240 l 1,19,-1
 317 -240 l 1,20,-1
 317 -6 l 1,21,22
 239 2 239 2 177.5 33 c 128,-1,23
 116 64 116 64 80.5 122 c 128,-1,24
 45 180 45 180 45 270 c 0,25,26
 45 356 45 356 76 426 c 128,-1,27
 107 496 107 496 157 557 c 1,0,-1
514 446 m 0,28,29
 486 446 486 446 470.5 426.5 c 128,-1,30
 455 407 455 407 455 360 c 2,31,-1
 455 107 l 1,32,33
 523 113 523 113 563.5 163 c 128,-1,34
 604 213 604 213 604 288 c 0,35,36
 604 331 604 331 595.5 367 c 128,-1,37
 587 403 587 403 567.5 424.5 c 128,-1,38
 548 446 548 446 514 446 c 0,28,29
EndSplineSet
EndChar

StartChar: chi
Encoding: 967 967 403
Width: 592
GlyphClass: 2
Flags: W
AnchorPoint: "Anchor-3" 572 546 basechar 0
AnchorPoint: "Anchor-2" 296 546 basechar 0
AnchorPoint: "Anchor-0" 296 -240 basechar 0
LayerCount: 2
Fore
SplineSet
117 553 m 0,0,1
 164 553 164 553 193 538.5 c 128,-1,2
 222 524 222 524 241 493 c 128,-1,3
 260 462 260 462 276 413 c 2,4,-1
 312 305 l 1,5,-1
 448 546 l 1,6,-1
 598 546 l 1,7,-1
 376 174 l 1,8,-1
 471 -58 l 2,9,10
 485 -91 485 -91 503 -103 c 128,-1,11
 521 -115 521 -115 549 -115 c 0,12,13
 560 -115 560 -115 571 -114 c 128,-1,14
 582 -113 582 -113 598 -109 c 1,15,-1
 598 -225 l 1,16,17
 577 -232 577 -232 555.5 -236 c 128,-1,18
 534 -240 534 -240 503 -240 c 0,19,20
 437 -240 437 -240 399.5 -204 c 128,-1,21
 362 -168 362 -168 339 -97 c 2,22,-1
 288 62 l 1,23,-1
 135 -240 l 1,24,-1
 -24 -240 l 1,25,-1
 221 192 l 1,26,-1
 156 364 l 2,27,28
 142 402 142 402 123.5 415 c 128,-1,29
 105 428 105 428 82 428 c 0,30,31
 72 428 72 428 57 426 c 128,-1,32
 42 424 42 424 26 419 c 1,33,-1
 26 538 l 1,34,35
 47 544 47 544 69 548.5 c 128,-1,36
 91 553 91 553 117 553 c 0,0,1
EndSplineSet
EndChar

StartChar: psi
Encoding: 968 968 404
Width: 837
GlyphClass: 2
Flags: W
AnchorPoint: "Anchor-2" 419 759 basechar 0
AnchorPoint: "Anchor-0" 419 -240 basechar 0
LayerCount: 2
Fore
SplineSet
492 759 m 1,0,-1
 492 106 l 1,1,2
 572 114 572 114 609.5 151 c 128,-1,3
 647 188 647 188 647 282 c 0,4,5
 647 348 647 348 636 412 c 128,-1,6
 625 476 625 476 608 546 c 1,7,-1
 746 546 l 1,8,9
 784 409 784 409 784 281 c 0,10,11
 784 178 784 178 745 116 c 128,-1,12
 706 54 706 54 640 25 c 128,-1,13
 574 -4 574 -4 492 -9 c 1,14,-1
 492 -240 l 1,15,-1
 354 -240 l 1,16,-1
 354 -9 l 1,17,18
 271 -6 271 -6 207 22 c 128,-1,19
 143 50 143 50 106.5 110.5 c 128,-1,20
 70 171 70 171 70 271 c 2,21,-1
 70 546 l 1,22,-1
 212 546 l 1,23,-1
 212 267 l 2,24,25
 212 182 212 182 243 146.5 c 128,-1,26
 274 111 274 111 354 105 c 1,27,-1
 354 759 l 1,28,-1
 492 759 l 1,0,-1
EndSplineSet
EndChar

StartChar: omega
Encoding: 969 969 405
Width: 863
GlyphClass: 2
Flags: W
AnchorPoint: "Anchor-2" 436 546 basechar 0
AnchorPoint: "Anchor-0" 432 0 basechar 0
LayerCount: 2
Fore
SplineSet
755 546 m 1,0,1
 784 474 784 474 797 409.5 c 128,-1,2
 810 345 810 345 810 265 c 0,3,4
 810 184 810 184 785.5 122 c 128,-1,5
 761 60 761 60 712 25 c 128,-1,6
 663 -10 663 -10 590 -10 c 0,7,8
 526 -10 526 -10 489.5 18 c 128,-1,9
 453 46 453 46 434 93 c 1,10,-1
 429 93 l 1,11,12
 410 46 410 46 373.5 18 c 128,-1,13
 337 -10 337 -10 273 -10 c 0,14,15
 200 -10 200 -10 151 25 c 128,-1,16
 102 60 102 60 77.5 122 c 128,-1,17
 53 184 53 184 53 265 c 0,18,19
 53 345 53 345 66.5 409.5 c 128,-1,20
 80 474 80 474 108 546 c 1,21,-1
 251 546 l 1,22,23
 220 480 220 480 205 412 c 128,-1,24
 190 344 190 344 190 270 c 0,25,26
 190 197 190 197 212.5 151.5 c 128,-1,27
 235 106 235 106 285 106 c 0,28,29
 330 106 330 106 346.5 138 c 128,-1,30
 363 170 363 170 363 228 c 2,31,-1
 363 372 l 1,32,-1
 500 372 l 1,33,-1
 500 228 l 2,34,35
 500 170 500 170 516.5 138 c 128,-1,36
 533 106 533 106 578 106 c 0,37,38
 628 106 628 106 650.5 151.5 c 128,-1,39
 673 197 673 197 673 268 c 0,40,41
 673 342 673 342 658.5 411 c 128,-1,42
 644 480 644 480 612 546 c 1,43,-1
 755 546 l 1,0,1
EndSplineSet
EndChar

StartChar: afii10051
Encoding: 1026 1026 412
Width: 805
GlyphClass: 2
Flags: W
AnchorPoint: "Anchor-2" 403 714 basechar 0
AnchorPoint: "Anchor-0" 403 0 basechar 0
LayerCount: 2
Fore
SplineSet
553 -9 m 0,0,1
 528 -9 528 -9 502 -4.5 c 128,-1,2
 476 0 476 0 454 10 c 1,3,-1
 454 135 l 1,4,5
 476 125 476 125 498 119.5 c 128,-1,6
 520 114 520 114 538 114 c 0,7,8
 554 114 554 114 568.5 118.5 c 128,-1,9
 583 123 583 123 592 138.5 c 128,-1,10
 601 154 601 154 601 189 c 2,11,-1
 601 251 l 2,12,13
 601 294 601 294 580.5 311.5 c 128,-1,14
 560 329 560 329 514 329 c 2,15,-1
 350 329 l 1,16,-1
 350 0 l 1,17,-1
 199 0 l 1,18,-1
 199 588 l 1,19,-1
 20 588 l 1,20,-1
 20 714 l 1,21,-1
 564 714 l 1,22,-1
 564 588 l 1,23,-1
 350 588 l 1,24,-1
 350 455 l 1,25,-1
 520 455 l 2,26,27
 632 455 632 455 692 404.5 c 128,-1,28
 752 354 752 354 752 262 c 2,29,-1
 752 199 l 2,30,31
 752 98 752 98 701.5 44.5 c 128,-1,32
 651 -9 651 -9 553 -9 c 0,0,1
EndSplineSet
EndChar

StartChar: afii10053
Encoding: 1028 1028 414
Width: 677
GlyphClass: 2
Flags: W
AnchorPoint: "Anchor-2" 339 714 basechar 0
AnchorPoint: "Anchor-0" 339 0 basechar 0
LayerCount: 2
Fore
SplineSet
411 598 m 0,0,1
 330 598 330 598 276.5 552.5 c 128,-1,2
 223 507 223 507 218 422 c 1,3,-1
 527 422 l 1,4,-1
 527 298 l 1,5,-1
 217 298 l 1,6,7
 223 211 223 211 272.5 163.5 c 128,-1,8
 322 116 322 116 413 116 c 0,9,10
 461 116 461 116 509.5 126 c 128,-1,11
 558 136 558 136 615 154 c 1,12,-1
 615 27 l 1,13,14
 564 8 564 8 515 -1 c 128,-1,15
 466 -10 466 -10 404 -10 c 0,16,17
 285 -10 285 -10 208.5 35.5 c 128,-1,18
 132 81 132 81 95 163.5 c 128,-1,19
 58 246 58 246 58 356 c 0,20,21
 58 464 58 464 99.5 547 c 128,-1,22
 141 630 141 630 221.5 677 c 128,-1,23
 302 724 302 724 418 724 c 0,24,25
 482 724 482 724 536 710.5 c 128,-1,26
 590 697 590 697 642 674 c 1,27,-1
 588 551 l 1,28,29
 544 570 544 570 503.5 584 c 128,-1,30
 463 598 463 598 411 598 c 0,0,1
EndSplineSet
EndChar

StartChar: afii10058
Encoding: 1033 1033 419
Width: 999
GlyphClass: 2
Flags: W
AnchorPoint: "Anchor-2" 500 714 basechar 0
AnchorPoint: "Anchor-0" 500 0 basechar 0
LayerCount: 2
Fore
SplineSet
80 -10 m 0,0,1
 41 -10 41 -10 8 1 c 1,2,-1
 8 125 l 1,3,4
 21 120 21 120 33.5 117.5 c 128,-1,5
 46 115 46 115 61 115 c 0,6,7
 90 115 90 115 105.5 145.5 c 128,-1,8
 121 176 121 176 137 260 c 0,9,10
 143 292 143 292 154 360 c 128,-1,11
 165 428 165 428 178.5 519.5 c 128,-1,12
 192 611 192 611 204 714 c 1,13,-1
 622 714 l 1,14,-1
 622 440 l 1,15,-1
 678 440 l 2,16,17
 773 440 773 440 834 412 c 128,-1,18
 895 384 895 384 924.5 335 c 128,-1,19
 954 286 954 286 954 223 c 0,20,21
 954 117 954 117 886 58.5 c 128,-1,22
 818 0 818 0 670 0 c 2,23,-1
 471 0 l 1,24,-1
 471 588 l 1,25,-1
 329 588 l 1,26,27
 323 542 323 542 316.5 488 c 128,-1,28
 310 434 310 434 302.5 378.5 c 128,-1,29
 295 323 295 323 287 273.5 c 128,-1,30
 279 224 279 224 271 186 c 0,31,32
 258 124 258 124 236.5 80 c 128,-1,33
 215 36 215 36 177.5 13 c 128,-1,34
 140 -10 140 -10 80 -10 c 0,0,1
622 124 m 1,35,-1
 668 124 l 2,36,37
 730 124 730 124 765.5 146 c 128,-1,38
 801 168 801 168 801 223 c 0,39,40
 801 280 801 280 762.5 298 c 128,-1,41
 724 316 724 316 657 316 c 2,42,-1
 622 316 l 1,43,-1
 622 124 l 1,35,-1
EndSplineSet
EndChar

StartChar: afii10059
Encoding: 1034 1034 420
Width: 1002
GlyphClass: 2
Flags: W
AnchorPoint: "Anchor-2" 501 714 basechar 0
AnchorPoint: "Anchor-0" 501 0 basechar 0
LayerCount: 2
Fore
SplineSet
90 0 m 1,0,-1
 90 714 l 1,1,-1
 241 714 l 1,2,-1
 241 434 l 1,3,-1
 474 434 l 1,4,-1
 474 714 l 1,5,-1
 625 714 l 1,6,-1
 625 440 l 1,7,-1
 681 440 l 2,8,9
 776 440 776 440 837 412 c 128,-1,10
 898 384 898 384 927.5 335 c 128,-1,11
 957 286 957 286 957 223 c 0,12,13
 957 117 957 117 889 58.5 c 128,-1,14
 821 0 821 0 673 0 c 2,15,-1
 474 0 l 1,16,-1
 474 308 l 1,17,-1
 241 308 l 1,18,-1
 241 0 l 1,19,-1
 90 0 l 1,0,-1
625 124 m 1,20,-1
 671 124 l 2,21,22
 732 124 732 124 768 146 c 128,-1,23
 804 168 804 168 804 223 c 0,24,25
 804 280 804 280 765.5 298 c 128,-1,26
 727 316 727 316 660 316 c 2,27,-1
 625 316 l 1,28,-1
 625 124 l 1,20,-1
EndSplineSet
EndChar

StartChar: afii10060
Encoding: 1035 1035 421
Width: 805
GlyphClass: 2
Flags: W
AnchorPoint: "Anchor-2" 403 714 basechar 0
AnchorPoint: "Anchor-0" 403 0 basechar 0
LayerCount: 2
Fore
SplineSet
564 714 m 1,0,-1
 564 588 l 1,1,-1
 350 588 l 1,2,-1
 350 455 l 1,3,-1
 538 455 l 2,4,5
 639 455 639 455 695.5 404.5 c 128,-1,6
 752 354 752 354 752 262 c 2,7,-1
 752 0 l 1,8,-1
 601 0 l 1,9,-1
 601 251 l 2,10,11
 601 294 601 294 584 311.5 c 128,-1,12
 567 329 567 329 528 329 c 2,13,-1
 350 329 l 1,14,-1
 350 0 l 1,15,-1
 199 0 l 1,16,-1
 199 588 l 1,17,-1
 20 588 l 1,18,-1
 20 714 l 1,19,-1
 564 714 l 1,0,-1
EndSplineSet
EndChar

StartChar: afii10145
Encoding: 1039 1039 424
Width: 745
GlyphClass: 2
Flags: W
AnchorPoint: "Anchor-2" 373 714 basechar 0
AnchorPoint: "Anchor-0" 373 -208 basechar 0
LayerCount: 2
Fore
SplineSet
655 0 m 1,0,-1
 446 0 l 1,1,-1
 446 -208 l 1,2,-1
 300 -208 l 1,3,-1
 300 0 l 1,4,-1
 90 0 l 1,5,-1
 90 714 l 1,6,-1
 241 714 l 1,7,-1
 241 126 l 1,8,-1
 504 126 l 1,9,-1
 504 714 l 1,10,-1
 655 714 l 1,11,-1
 655 0 l 1,0,-1
EndSplineSet
EndChar

StartChar: afii10018
Encoding: 1041 1041 426
Width: 638
GlyphClass: 2
Flags: W
AnchorPoint: "Anchor-2" 319 714 basechar 0
AnchorPoint: "Anchor-0" 319 0 basechar 0
LayerCount: 2
Fore
SplineSet
90 0 m 1,0,-1
 90 714 l 1,1,-1
 541 714 l 1,2,-1
 541 589 l 1,3,-1
 241 589 l 1,4,-1
 241 440 l 1,5,-1
 301 440 l 2,6,7
 402 440 402 440 466.5 412 c 128,-1,8
 531 384 531 384 562 335 c 128,-1,9
 593 286 593 286 593 223 c 0,10,11
 593 117 593 117 522.5 58.5 c 128,-1,12
 452 0 452 0 298 0 c 2,13,-1
 90 0 l 1,0,-1
241 124 m 1,14,-1
 292 124 l 2,15,16
 361 124 361 124 400.5 146 c 128,-1,17
 440 168 440 168 440 223 c 0,18,19
 440 280 440 280 397 298 c 128,-1,20
 354 316 354 316 280 316 c 2,21,-1
 241 316 l 1,22,-1
 241 124 l 1,14,-1
EndSplineSet
EndChar

StartChar: afii10021
Encoding: 1044 1044 429
Width: 764
GlyphClass: 2
Flags: W
AnchorPoint: "Anchor-2" 382 714 basechar 0
AnchorPoint: "Anchor-0" 382 -208 basechar 0
LayerCount: 2
Fore
SplineSet
649 714 m 1,0,-1
 649 126 l 1,1,-1
 744 126 l 1,2,-1
 744 -208 l 1,3,-1
 598 -208 l 1,4,-1
 598 0 l 1,5,-1
 151 0 l 1,6,-1
 151 -208 l 1,7,-1
 5 -208 l 1,8,-1
 5 126 l 1,9,-1
 60 126 l 1,10,11
 98 200 98 200 131 286 c 128,-1,12
 164 372 164 372 190 477 c 128,-1,13
 216 582 216 582 233 714 c 1,14,-1
 649 714 l 1,0,-1
498 588 m 1,15,-1
 353 588 l 1,16,17
 344 518 344 518 324.5 438 c 128,-1,18
 305 358 305 358 278 277.5 c 128,-1,19
 251 197 251 197 219 126 c 1,20,-1
 498 126 l 1,21,-1
 498 588 l 1,15,-1
EndSplineSet
EndChar

StartChar: afii10024
Encoding: 1046 1046 431
Width: 943
GlyphClass: 2
Flags: W
AnchorPoint: "Anchor-2" 472 714 basechar 0
AnchorPoint: "Anchor-0" 472 0 basechar 0
LayerCount: 2
Fore
SplineSet
254 371 m 1,0,-1
 14 714 l 1,1,-1
 170 714 l 1,2,-1
 401 368 l 1,3,-1
 401 714 l 1,4,-1
 542 714 l 1,5,-1
 542 368 l 1,6,-1
 773 714 l 1,7,-1
 929 714 l 1,8,-1
 689 371 l 1,9,-1
 943 0 l 1,10,-1
 781 0 l 1,11,-1
 542 362 l 1,12,-1
 542 0 l 1,13,-1
 401 0 l 1,14,-1
 401 362 l 1,15,-1
 162 0 l 1,16,-1
 0 0 l 1,17,-1
 254 371 l 1,0,-1
EndSplineSet
EndChar

StartChar: afii10025
Encoding: 1047 1047 432
Width: 648
GlyphClass: 2
Flags: W
AnchorPoint: "Anchor-2" 324 714 basechar 0
AnchorPoint: "Anchor-0" 324 0 basechar 0
LayerCount: 2
Fore
SplineSet
583 547 m 0,0,1
 583 475 583 475 532 431 c 128,-1,2
 481 387 481 387 402 376 c 1,3,-1
 402 373 l 1,4,5
 500 363 500 363 552.5 318.5 c 128,-1,6
 605 274 605 274 605 203 c 0,7,8
 605 109 605 109 528.5 49.5 c 128,-1,9
 452 -10 452 -10 304 -10 c 0,10,11
 223 -10 223 -10 160.5 0 c 128,-1,12
 98 10 98 10 52 29 c 1,13,-1
 52 156 l 1,14,15
 83 141 83 141 122 130.5 c 128,-1,16
 161 120 161 120 201 114.5 c 128,-1,17
 241 109 241 109 275 109 c 0,18,19
 370 109 370 109 412.5 136.5 c 128,-1,20
 455 164 455 164 455 214 c 0,21,22
 455 265 455 265 393 288.5 c 128,-1,23
 331 312 331 312 226 312 c 2,24,-1
 159 312 l 1,25,-1
 159 430 l 1,26,-1
 219 430 l 2,27,28
 304 430 304 430 351 441 c 128,-1,29
 398 452 398 452 417 473 c 128,-1,30
 436 494 436 494 436 523 c 0,31,32
 436 560 436 560 403 581.5 c 128,-1,33
 370 603 370 603 306 603 c 0,34,35
 250 603 250 603 202 587 c 128,-1,36
 154 571 154 571 112 545 c 1,37,-1
 46 646 l 1,38,39
 101 682 101 682 168 703 c 128,-1,40
 235 724 235 724 327 724 c 0,41,42
 448 724 448 724 515.5 674 c 128,-1,43
 583 624 583 624 583 547 c 0,0,1
EndSplineSet
EndChar

StartChar: afii10026
Encoding: 1048 1048 433
Width: 823
GlyphClass: 2
Flags: W
AnchorPoint: "Anchor-2" 424 714 basechar 0
AnchorPoint: "Anchor-0" 412 0 basechar 0
LayerCount: 2
Fore
SplineSet
90 714 m 1,0,-1
 226 714 l 1,1,-1
 226 369 l 2,2,3
 226 344 226 344 225 313 c 128,-1,4
 224 282 224 282 223 252.5 c 128,-1,5
 222 223 222 223 221 201.5 c 128,-1,6
 220 180 220 180 219 172 c 1,7,-1
 222 172 l 1,8,-1
 552 714 l 1,9,-1
 733 714 l 1,10,-1
 733 0 l 1,11,-1
 598 0 l 1,12,-1
 598 343 l 2,13,14
 598 370 598 370 599 402.5 c 128,-1,15
 600 435 600 435 601.5 465 c 128,-1,16
 603 495 603 495 604.5 517.5 c 128,-1,17
 606 540 606 540 607 547 c 1,18,-1
 603 547 l 1,19,-1
 272 0 l 1,20,-1
 90 0 l 1,21,-1
 90 714 l 1,0,-1
EndSplineSet
EndChar

StartChar: afii10028
Encoding: 1050 1050 435
Width: 672
GlyphClass: 2
Flags: W
AnchorPoint: "Anchor-2" 365 714 basechar 0
AnchorPoint: "Anchor-0" 336 0 basechar 0
LayerCount: 2
Fore
SplineSet
672 0 m 1,0,-1
 500 0 l 1,1,-1
 241 362 l 1,2,-1
 241 0 l 1,3,-1
 90 0 l 1,4,-1
 90 714 l 1,5,-1
 241 714 l 1,6,-1
 241 368 l 1,7,-1
 497 714 l 1,8,-1
 658 714 l 1,9,-1
 398 371 l 1,10,-1
 672 0 l 1,0,-1
EndSplineSet
EndChar

StartChar: afii10029
Encoding: 1051 1051 436
Width: 745
GlyphClass: 2
Flags: W
AnchorPoint: "Anchor-2" 373 714 basechar 0
AnchorPoint: "Anchor-0" 373 0 basechar 0
LayerCount: 2
Fore
SplineSet
655 0 m 1,0,-1
 504 0 l 1,1,-1
 504 588 l 1,2,-1
 329 588 l 1,3,4
 323 542 323 542 316.5 488 c 128,-1,5
 310 434 310 434 302.5 378.5 c 128,-1,6
 295 323 295 323 287 273.5 c 128,-1,7
 279 224 279 224 271 186 c 0,8,9
 258 124 258 124 236.5 80 c 128,-1,10
 215 36 215 36 177.5 13 c 128,-1,11
 140 -10 140 -10 80 -10 c 0,12,13
 41 -10 41 -10 8 1 c 1,14,-1
 8 125 l 1,15,16
 21 120 21 120 33.5 117.5 c 128,-1,17
 46 115 46 115 61 115 c 0,18,19
 90 115 90 115 105.5 145.5 c 128,-1,20
 121 176 121 176 137 260 c 0,21,22
 143 292 143 292 154 360 c 128,-1,23
 165 428 165 428 178.5 519.5 c 128,-1,24
 192 611 192 611 204 714 c 1,25,-1
 655 714 l 1,26,-1
 655 0 l 1,0,-1
EndSplineSet
EndChar

StartChar: afii10037
Encoding: 1059 1059 444
Width: 663
GlyphClass: 2
Flags: W
AnchorPoint: "Anchor-2" 338 714 basechar 0
AnchorPoint: "Anchor-0" 332 0 basechar 0
LayerCount: 2
Fore
SplineSet
663 714 m 1,0,-1
 442 209 l 2,1,2
 412 140 412 140 378 91 c 128,-1,3
 344 42 344 42 292.5 16 c 128,-1,4
 241 -10 241 -10 157 -10 c 0,5,6
 131 -10 131 -10 100 -6 c 128,-1,7
 69 -2 69 -2 43 5 c 1,8,-1
 43 135 l 1,9,10
 67 125 67 125 95.5 121 c 128,-1,11
 124 117 124 117 150 117 c 0,12,13
 200 117 200 117 222 141.5 c 128,-1,14
 244 166 244 166 257 201 c 1,15,-1
 10 714 l 1,16,-1
 170 714 l 1,17,-1
 303 405 l 2,18,19
 310 390 310 390 322 362.5 c 128,-1,20
 334 335 334 335 340 316 c 1,21,-1
 345 316 l 1,22,23
 351 334 351 334 362.5 363 c 128,-1,24
 374 392 374 392 383 414 c 2,25,-1
 507 714 l 1,26,-1
 663 714 l 1,0,-1
EndSplineSet
EndChar

StartChar: afii10040
Encoding: 1062 1062 447
Width: 781
GlyphClass: 2
Flags: W
AnchorPoint: "Anchor-2" 391 714 basechar 0
AnchorPoint: "Anchor-0" 391 -208 basechar 0
LayerCount: 2
Fore
SplineSet
761 120 m 1,0,-1
 761 -208 l 1,1,-1
 615 -208 l 1,2,-1
 615 0 l 1,3,-1
 90 0 l 1,4,-1
 90 714 l 1,5,-1
 241 714 l 1,6,-1
 241 126 l 1,7,-1
 504 126 l 1,8,-1
 504 714 l 1,9,-1
 655 714 l 1,10,-1
 655 120 l 1,11,-1
 761 120 l 1,0,-1
EndSplineSet
EndChar

StartChar: afii10041
Encoding: 1063 1063 448
Width: 728
GlyphClass: 2
Flags: W
AnchorPoint: "Anchor-2" 344 714 basechar 0
AnchorPoint: "Anchor-0" 364 0 basechar 0
LayerCount: 2
Fore
SplineSet
638 0 m 1,0,-1
 487 0 l 1,1,-1
 487 276 l 1,2,3
 424 254 424 254 371.5 243 c 128,-1,4
 319 232 319 232 266 232 c 0,5,6
 166 232 166 232 109.5 280.5 c 128,-1,7
 53 329 53 329 53 419 c 2,8,-1
 53 714 l 1,9,-1
 204 714 l 1,10,-1
 204 462 l 2,11,12
 204 410 204 410 228 384 c 128,-1,13
 252 358 252 358 309 358 c 0,14,15
 351 358 351 358 393 367 c 128,-1,16
 435 376 435 376 487 394 c 1,17,-1
 487 714 l 1,18,-1
 638 714 l 1,19,-1
 638 0 l 1,0,-1
EndSplineSet
EndChar

StartChar: afii10042
Encoding: 1064 1064 449
Width: 1078
GlyphClass: 2
Flags: W
AnchorPoint: "Anchor-2" 539 714 basechar 0
AnchorPoint: "Anchor-0" 539 0 basechar 0
LayerCount: 2
Fore
SplineSet
988 0 m 1,0,-1
 90 0 l 1,1,-1
 90 714 l 1,2,-1
 241 714 l 1,3,-1
 241 126 l 1,4,-1
 463 126 l 1,5,-1
 463 714 l 1,6,-1
 615 714 l 1,7,-1
 615 126 l 1,8,-1
 837 126 l 1,9,-1
 837 714 l 1,10,-1
 988 714 l 1,11,-1
 988 0 l 1,0,-1
EndSplineSet
EndChar

StartChar: afii10043
Encoding: 1065 1065 450
Width: 1114
GlyphClass: 2
Flags: W
AnchorPoint: "Anchor-2" 557 714 basechar 0
AnchorPoint: "Anchor-0" 557 0 basechar 0
LayerCount: 2
Fore
SplineSet
1094 120 m 1,0,-1
 1094 -208 l 1,1,-1
 948 -208 l 1,2,-1
 948 0 l 1,3,-1
 90 0 l 1,4,-1
 90 714 l 1,5,-1
 241 714 l 1,6,-1
 241 126 l 1,7,-1
 463 126 l 1,8,-1
 463 714 l 1,9,-1
 615 714 l 1,10,-1
 615 126 l 1,11,-1
 837 126 l 1,12,-1
 837 714 l 1,13,-1
 988 714 l 1,14,-1
 988 120 l 1,15,-1
 1094 120 l 1,0,-1
EndSplineSet
EndChar

StartChar: afii10044
Encoding: 1066 1066 451
Width: 727
GlyphClass: 2
Flags: W
AnchorPoint: "Anchor-2" 364 714 basechar 0
AnchorPoint: "Anchor-0" 364 0 basechar 0
LayerCount: 2
Fore
SplineSet
179 0 m 1,0,-1
 179 588 l 1,1,-1
 0 588 l 1,2,-1
 0 714 l 1,3,-1
 330 714 l 1,4,-1
 330 440 l 1,5,-1
 390 440 l 2,6,7
 490 440 490 440 555 412 c 128,-1,8
 620 384 620 384 651 335 c 128,-1,9
 682 286 682 286 682 223 c 0,10,11
 682 117 682 117 611.5 58.5 c 128,-1,12
 541 0 541 0 387 0 c 2,13,-1
 179 0 l 1,0,-1
330 124 m 1,14,-1
 381 124 l 2,15,16
 450 124 450 124 489.5 146 c 128,-1,17
 529 168 529 168 529 223 c 0,18,19
 529 280 529 280 486 298 c 128,-1,20
 443 316 443 316 369 316 c 2,21,-1
 330 316 l 1,22,-1
 330 124 l 1,14,-1
EndSplineSet
EndChar

StartChar: afii10045
Encoding: 1067 1067 452
Width: 906
GlyphClass: 2
Flags: W
AnchorPoint: "Anchor-2" 451 714 basechar 0
AnchorPoint: "Anchor-0" 453 0 basechar 0
LayerCount: 2
Fore
SplineSet
90 0 m 1,0,-1
 90 714 l 1,1,-1
 241 714 l 1,2,-1
 241 440 l 1,3,-1
 290 440 l 2,4,5
 389 440 389 440 452.5 412 c 128,-1,6
 516 384 516 384 547 335 c 128,-1,7
 578 286 578 286 578 223 c 0,8,9
 578 117 578 117 508 58.5 c 128,-1,10
 438 0 438 0 285 0 c 2,11,-1
 90 0 l 1,0,-1
665 0 m 1,12,-1
 665 714 l 1,13,-1
 816 714 l 1,14,-1
 816 0 l 1,15,-1
 665 0 l 1,12,-1
241 124 m 1,16,-1
 281 124 l 2,17,18
 348 124 348 124 386.5 146 c 128,-1,19
 425 168 425 168 425 223 c 0,20,21
 425 280 425 280 385.5 298 c 128,-1,22
 346 316 346 316 274 316 c 2,23,-1
 241 316 l 1,24,-1
 241 124 l 1,16,-1
EndSplineSet
EndChar

StartChar: afii10046
Encoding: 1068 1068 453
Width: 638
GlyphClass: 2
Flags: W
AnchorPoint: "Anchor-2" 319 714 basechar 0
AnchorPoint: "Anchor-0" 319 0 basechar 0
LayerCount: 2
Fore
SplineSet
90 0 m 1,0,-1
 90 714 l 1,1,-1
 241 714 l 1,2,-1
 241 440 l 1,3,-1
 301 440 l 2,4,5
 402 440 402 440 466.5 412 c 128,-1,6
 531 384 531 384 562 335 c 128,-1,7
 593 286 593 286 593 223 c 0,8,9
 593 117 593 117 522.5 58.5 c 128,-1,10
 452 0 452 0 298 0 c 2,11,-1
 90 0 l 1,0,-1
241 124 m 1,12,-1
 292 124 l 2,13,14
 361 124 361 124 400.5 146 c 128,-1,15
 440 168 440 168 440 223 c 0,16,17
 440 280 440 280 397 298 c 128,-1,18
 354 316 354 316 280 316 c 2,19,-1
 241 316 l 1,20,-1
 241 124 l 1,12,-1
EndSplineSet
EndChar

StartChar: afii10047
Encoding: 1069 1069 454
Width: 663
GlyphClass: 2
Flags: W
AnchorPoint: "Anchor-2" 273 714 basechar 0
AnchorPoint: "Anchor-0" 332 0 basechar 0
LayerCount: 2
Fore
SplineSet
270 598 m 0,0,1
 222 598 222 598 175 584.5 c 128,-1,2
 128 571 128 571 83 552 c 1,3,-1
 35 674 l 1,4,5
 88 697 88 697 147 710.5 c 128,-1,6
 206 724 206 724 273 724 c 0,7,8
 430 724 430 724 517.5 627.5 c 128,-1,9
 605 531 605 531 605 356 c 0,10,11
 605 246 605 246 568 163.5 c 128,-1,12
 531 81 531 81 454.5 35.5 c 128,-1,13
 378 -10 378 -10 259 -10 c 0,14,15
 198 -10 198 -10 148.5 -1 c 128,-1,16
 99 8 99 8 48 27 c 1,17,-1
 48 154 l 1,18,19
 105 136 105 136 153.5 126 c 128,-1,20
 202 116 202 116 250 116 c 0,21,22
 342 116 342 116 392 161.5 c 128,-1,23
 442 207 442 207 446 298 c 1,24,-1
 136 298 l 1,25,-1
 136 422 l 1,26,-1
 445 422 l 1,27,28
 442 505 442 505 395 551.5 c 128,-1,29
 348 598 348 598 270 598 c 0,0,1
EndSplineSet
EndChar

StartChar: afii10048
Encoding: 1070 1070 455
Width: 1070
GlyphClass: 2
Flags: W
AnchorPoint: "Anchor-2" 535 714 basechar 0
AnchorPoint: "Anchor-0" 535 0 basechar 0
LayerCount: 2
Fore
SplineSet
1012 358 m 256,0,1
 1012 247 1012 247 977.5 164.5 c 128,-1,2
 943 82 943 82 872.5 36 c 128,-1,3
 802 -10 802 -10 694 -10 c 0,4,5
 594 -10 594 -10 526.5 29.5 c 128,-1,6
 459 69 459 69 422.5 140.5 c 128,-1,7
 386 212 386 212 378 308 c 1,8,-1
 241 308 l 1,9,-1
 241 0 l 1,10,-1
 90 0 l 1,11,-1
 90 714 l 1,12,-1
 241 714 l 1,13,-1
 241 434 l 1,14,-1
 381 434 l 1,15,16
 397 568 397 568 474 646.5 c 128,-1,17
 551 725 551 725 695 725 c 0,18,19
 803 725 803 725 873.5 679.5 c 128,-1,20
 944 634 944 634 978 551.5 c 128,-1,21
 1012 469 1012 469 1012 358 c 256,0,1
533 358 m 256,22,23
 533 246 533 246 572 181.5 c 128,-1,24
 611 117 611 117 694 117 c 0,25,26
 780 117 780 117 818 181.5 c 128,-1,27
 856 246 856 246 856 358 c 256,28,29
 856 470 856 470 818 534.5 c 128,-1,30
 780 599 780 599 696 599 c 0,31,32
 611 599 611 599 572 534.5 c 128,-1,33
 533 470 533 470 533 358 c 256,22,23
EndSplineSet
EndChar

StartChar: afii10049
Encoding: 1071 1071 456
Width: 665
GlyphClass: 2
Flags: W
AnchorPoint: "Anchor-2" 333 714 basechar 0
AnchorPoint: "Anchor-0" 333 0 basechar 0
LayerCount: 2
Fore
SplineSet
330 274 m 1,0,-1
 163 0 l 1,1,-1
 -5 0 l 1,2,-1
 198 314 l 1,3,4
 169 326 169 326 140 349.5 c 128,-1,5
 111 373 111 373 92 412.5 c 128,-1,6
 73 452 73 452 73 510 c 0,7,8
 73 609 73 609 144 661.5 c 128,-1,9
 215 714 215 714 343 714 c 2,10,-1
 575 714 l 1,11,-1
 575 0 l 1,12,-1
 424 0 l 1,13,-1
 424 274 l 1,14,-1
 330 274 l 1,0,-1
424 590 m 1,15,-1
 349 590 l 2,16,17
 290 590 290 590 258 569 c 128,-1,18
 226 548 226 548 226 499 c 0,19,20
 226 452 226 452 257 424.5 c 128,-1,21
 288 397 288 397 353 397 c 2,22,-1
 424 397 l 1,23,-1
 424 590 l 1,15,-1
EndSplineSet
EndChar

StartChar: afii10066
Encoding: 1073 1073 458
Width: 622
GlyphClass: 2
Flags: W
AnchorPoint: "Anchor-2" 311 765 basechar 0
AnchorPoint: "Anchor-0" 311 0 basechar 0
LayerCount: 2
Fore
SplineSet
45 327 m 0,0,1
 45 508 45 508 113.5 608 c 128,-1,2
 182 708 182 708 340 736 c 0,3,4
 392 745 392 745 447 751.5 c 128,-1,5
 502 758 502 758 560 765 c 1,6,-1
 577 635 l 1,7,8
 543 631 543 631 502.5 626 c 128,-1,9
 462 621 462 621 422 616.5 c 128,-1,10
 382 612 382 612 352 607 c 0,11,12
 302 599 302 599 269 582.5 c 128,-1,13
 236 566 236 566 218 530 c 128,-1,14
 200 494 200 494 197 426 c 1,15,-1
 204 426 l 1,16,17
 216 444 216 444 237.5 463.5 c 128,-1,18
 259 483 259 483 290.5 496 c 128,-1,19
 322 509 322 509 364 509 c 0,20,21
 462 509 462 509 519.5 448.5 c 128,-1,22
 577 388 577 388 577 270 c 0,23,24
 577 177 577 177 543 114.5 c 128,-1,25
 509 52 509 52 449 21 c 128,-1,26
 389 -10 389 -10 310 -10 c 0,27,28
 189 -10 189 -10 117 77 c 128,-1,29
 45 164 45 164 45 327 c 0,0,1
319 111 m 256,30,31
 366 111 366 111 395.5 143 c 128,-1,32
 425 175 425 175 425 257 c 0,33,34
 425 322 425 322 403.5 360.5 c 128,-1,35
 382 399 382 399 329 399 c 0,36,37
 297 399 297 399 269.5 383.5 c 128,-1,38
 242 368 242 368 223 348 c 128,-1,39
 204 328 204 328 197 315 c 1,40,41
 197 264 197 264 208 217 c 128,-1,42
 219 170 219 170 245.5 140.5 c 128,-1,43
 272 111 272 111 319 111 c 256,30,31
EndSplineSet
Substitution2: "'locl' Localized Forms in Cyrillic lookup 17 subtable" afii10066.loclSRB
EndChar

StartChar: afii10067
Encoding: 1074 1074 459
Width: 629
GlyphClass: 2
Flags: W
AnchorPoint: "Anchor-2" 315 546 basechar 0
AnchorPoint: "Anchor-0" 315 0 basechar 0
LayerCount: 2
Fore
SplineSet
562 403 m 0,0,1
 562 359 562 359 534.5 328 c 128,-1,2
 507 297 507 297 453 288 c 1,3,-1
 453 284 l 1,4,5
 510 277 510 277 544.5 244.5 c 128,-1,6
 579 212 579 212 579 163 c 0,7,8
 579 116 579 116 554.5 79 c 128,-1,9
 530 42 530 42 477 21 c 128,-1,10
 424 0 424 0 338 0 c 2,11,-1
 78 0 l 1,12,-1
 78 546 l 1,13,-1
 338 546 l 2,14,15
 402 546 402 546 452.5 532.5 c 128,-1,16
 503 519 503 519 532.5 487.5 c 128,-1,17
 562 456 562 456 562 403 c 0,0,1
411 391 m 0,18,19
 411 441 411 441 332 441 c 2,20,-1
 227 441 l 1,21,-1
 227 333 l 1,22,-1
 315 333 l 2,23,24
 362 333 362 333 386.5 346.5 c 128,-1,25
 411 360 411 360 411 391 c 0,18,19
425 171 m 0,26,27
 425 203 425 203 399.5 217.5 c 128,-1,28
 374 232 374 232 325 232 c 2,29,-1
 227 232 l 1,30,-1
 227 103 l 1,31,-1
 328 103 l 2,32,33
 370 103 370 103 397.5 118.5 c 128,-1,34
 425 134 425 134 425 171 c 0,26,27
EndSplineSet
EndChar

StartChar: afii10068
Encoding: 1075 1075 460
Width: 478
GlyphClass: 2
Flags: W
AnchorPoint: "Anchor-2" 274 546 basechar 0
AnchorPoint: "Anchor-0" 239 0 basechar 0
LayerCount: 2
Fore
SplineSet
455 546 m 1,0,-1
 455 434 l 1,1,-1
 227 434 l 1,2,-1
 227 0 l 1,3,-1
 78 0 l 1,4,-1
 78 546 l 1,5,-1
 455 546 l 1,0,-1
EndSplineSet
EndChar

StartChar: afii10069
Encoding: 1076 1076 461
Width: 664
GlyphClass: 2
Flags: W
AnchorPoint: "Anchor-2" 332 546 basechar 0
AnchorPoint: "Anchor-0" 332 -196 basechar 0
LayerCount: 2
Fore
SplineSet
569 546 m 1,0,-1
 569 109 l 1,1,-1
 649 109 l 1,2,-1
 649 -196 l 1,3,-1
 515 -196 l 1,4,-1
 515 0 l 1,5,-1
 148 0 l 1,6,-1
 148 -196 l 1,7,-1
 14 -196 l 1,8,-1
 14 109 l 1,9,-1
 60 109 l 1,10,11
 96 164 96 164 121 234.5 c 128,-1,12
 146 305 146 305 161 384.5 c 128,-1,13
 176 464 176 464 183 546 c 1,14,-1
 569 546 l 1,0,-1
420 434 m 1,15,-1
 308 434 l 1,16,17
 296 343 296 343 275 261.5 c 128,-1,18
 254 180 254 180 216 109 c 1,19,-1
 420 109 l 1,20,-1
 420 434 l 1,15,-1
EndSplineSet
EndChar

StartChar: afii10072
Encoding: 1078 1078 463
Width: 873
GlyphClass: 2
Flags: W
AnchorPoint: "Anchor-2" 435 546 basechar 0
AnchorPoint: "Anchor-0" 437 0 basechar 0
LayerCount: 2
Fore
SplineSet
854 546 m 1,0,-1
 653 284 l 1,1,-1
 873 0 l 1,2,-1
 714 0 l 1,3,-1
 506 277 l 1,4,-1
 506 0 l 1,5,-1
 367 0 l 1,6,-1
 367 277 l 1,7,-1
 159 0 l 1,8,-1
 0 0 l 1,9,-1
 220 284 l 1,10,-1
 19 546 l 1,11,-1
 173 546 l 1,12,-1
 367 281 l 1,13,-1
 367 546 l 1,14,-1
 506 546 l 1,15,-1
 506 281 l 1,16,-1
 700 546 l 1,17,-1
 854 546 l 1,0,-1
EndSplineSet
EndChar

StartChar: afii10073
Encoding: 1079 1079 464
Width: 555
GlyphClass: 2
Flags: W
AnchorPoint: "Anchor-2" 274 546 basechar 0
AnchorPoint: "Anchor-0" 278 0 basechar 0
LayerCount: 2
Fore
SplineSet
277 556 m 0,0,1
 336 556 336 556 387.5 540.5 c 128,-1,2
 439 525 439 525 470.5 493 c 128,-1,3
 502 461 502 461 502 411 c 0,4,5
 502 362 502 362 472 333 c 128,-1,6
 442 304 442 304 393 291 c 1,7,-1
 393 286 l 1,8,9
 428 278 428 278 456 263.5 c 128,-1,10
 484 249 484 249 500.5 224.5 c 128,-1,11
 517 200 517 200 517 159 c 0,12,13
 517 114 517 114 488.5 75.5 c 128,-1,14
 460 37 460 37 400 13.5 c 128,-1,15
 340 -10 340 -10 248 -10 c 0,16,17
 112 -10 112 -10 38 24 c 1,18,-1
 38 147 l 1,19,20
 72 131 72 131 121.5 118 c 128,-1,21
 171 105 171 105 227 105 c 0,22,23
 288 105 288 105 330 119 c 128,-1,24
 372 133 372 133 372 168 c 0,25,26
 372 233 372 233 217 233 c 2,27,-1
 159 233 l 1,28,-1
 159 336 l 1,29,-1
 214 336 l 2,30,31
 288 336 288 336 328.5 348 c 128,-1,32
 369 360 369 360 369 393 c 0,33,34
 369 419 369 419 343 432.5 c 128,-1,35
 317 446 317 446 258 446 c 0,36,37
 219 446 219 446 172.5 437 c 128,-1,38
 126 428 126 428 86 411 c 1,39,-1
 42 515 l 1,40,41
 89 533 89 533 144.5 544.5 c 128,-1,42
 200 556 200 556 277 556 c 0,0,1
EndSplineSet
EndChar

StartChar: afii10074
Encoding: 1080 1080 465
Width: 720
GlyphClass: 2
Flags: W
AnchorPoint: "Anchor-2" 360 546 basechar 0
AnchorPoint: "Anchor-0" 360 0 basechar 0
LayerCount: 2
Fore
SplineSet
222 546 m 1,0,-1
 222 330 l 2,1,2
 222 313 222 313 220.5 288 c 128,-1,3
 219 263 219 263 217.5 237 c 128,-1,4
 216 211 216 211 214 190.5 c 128,-1,5
 212 170 212 170 211 163 c 1,6,-1
 463 546 l 1,7,-1
 642 546 l 1,8,-1
 642 0 l 1,9,-1
 498 0 l 1,10,-1
 498 218 l 2,11,12
 498 244 498 244 500 277 c 128,-1,13
 502 310 502 310 504.5 338.5 c 128,-1,14
 507 367 507 367 508 382 c 1,15,-1
 257 0 l 1,16,-1
 78 0 l 1,17,-1
 78 546 l 1,18,-1
 222 546 l 1,0,-1
EndSplineSet
EndChar

StartChar: afii10076
Encoding: 1082 1082 467
Width: 619
GlyphClass: 2
Flags: W
AnchorPoint: "Anchor-2" 329 546 basechar 0
AnchorPoint: "Anchor-0" 310 0 basechar 0
LayerCount: 2
Fore
SplineSet
436 546 m 1,0,-1
 600 546 l 1,1,-1
 384 284 l 1,2,-1
 619 0 l 1,3,-1
 450 0 l 1,4,-1
 227 277 l 1,5,-1
 227 0 l 1,6,-1
 78 0 l 1,7,-1
 78 546 l 1,8,-1
 227 546 l 1,9,-1
 227 281 l 1,10,-1
 436 546 l 1,0,-1
EndSplineSet
EndChar

StartChar: afii10077
Encoding: 1083 1083 468
Width: 645
GlyphClass: 2
Flags: W
AnchorPoint: "Anchor-2" 323 546 basechar 0
AnchorPoint: "Anchor-0" 323 0 basechar 0
LayerCount: 2
Fore
SplineSet
567 0 m 1,0,-1
 418 0 l 1,1,-1
 418 434 l 1,2,-1
 281 434 l 1,3,4
 268 274 268 274 246.5 176.5 c 128,-1,5
 225 79 225 79 186.5 34.5 c 128,-1,6
 148 -10 148 -10 85 -10 c 0,7,8
 33 -10 33 -10 0 6 c 1,9,-1
 0 125 l 1,10,11
 23 115 23 115 48 115 c 0,12,13
 66 115 66 115 81 133 c 128,-1,14
 96 151 96 151 109.5 198 c 128,-1,15
 123 245 123 245 134 329.5 c 128,-1,16
 145 414 145 414 154 546 c 1,17,-1
 567 546 l 1,18,-1
 567 0 l 1,0,-1
EndSplineSet
EndChar

StartChar: afii10078
Encoding: 1084 1084 469
Width: 844
GlyphClass: 2
Flags: W
AnchorPoint: "Anchor-2" 422 546 basechar 0
AnchorPoint: "Anchor-0" 422 0 basechar 0
LayerCount: 2
Fore
SplineSet
766 546 m 1,0,-1
 766 0 l 1,1,-1
 627 0 l 1,2,-1
 627 268 l 2,3,4
 627 308 627 308 628.5 346 c 128,-1,5
 630 384 630 384 633 416 c 1,6,-1
 630 416 l 1,7,-1
 479 0 l 1,8,-1
 367 0 l 1,9,-1
 214 417 l 1,10,-1
 210 417 l 1,11,12
 214 384 214 384 215.5 346.5 c 128,-1,13
 217 309 217 309 217 264 c 2,14,-1
 217 0 l 1,15,-1
 78 0 l 1,16,-1
 78 546 l 1,17,-1
 289 546 l 1,18,-1
 425 176 l 1,19,-1
 563 546 l 1,20,-1
 766 546 l 1,0,-1
EndSplineSet
EndChar

StartChar: afii10079
Encoding: 1085 1085 470
Width: 662
GlyphClass: 2
Flags: W
AnchorPoint: "Anchor-2" 331 546 basechar 0
AnchorPoint: "Anchor-0" 331 0 basechar 0
LayerCount: 2
Fore
SplineSet
227 546 m 1,0,-1
 227 336 l 1,1,-1
 435 336 l 1,2,-1
 435 546 l 1,3,-1
 584 546 l 1,4,-1
 584 0 l 1,5,-1
 435 0 l 1,6,-1
 435 225 l 1,7,-1
 227 225 l 1,8,-1
 227 0 l 1,9,-1
 78 0 l 1,10,-1
 78 546 l 1,11,-1
 227 546 l 1,0,-1
EndSplineSet
EndChar

StartChar: afii10081
Encoding: 1087 1087 472
Width: 652
GlyphClass: 2
Flags: W
AnchorPoint: "Anchor-2" 326 546 basechar 0
AnchorPoint: "Anchor-0" 326 0 basechar 0
LayerCount: 2
Fore
SplineSet
574 546 m 1,0,-1
 574 0 l 1,1,-1
 425 0 l 1,2,-1
 425 434 l 1,3,-1
 227 434 l 1,4,-1
 227 0 l 1,5,-1
 78 0 l 1,6,-1
 78 546 l 1,7,-1
 574 546 l 1,0,-1
EndSplineSet
EndChar

StartChar: afii10084
Encoding: 1090 1090 475
Width: 553
GlyphClass: 2
Flags: W
AnchorPoint: "Anchor-2" 277 546 basechar 0
AnchorPoint: "Anchor-0" 277 0 basechar 0
LayerCount: 2
Fore
SplineSet
530 434 m 1,0,-1
 351 434 l 1,1,-1
 351 0 l 1,2,-1
 202 0 l 1,3,-1
 202 434 l 1,4,-1
 23 434 l 1,5,-1
 23 546 l 1,6,-1
 530 546 l 1,7,-1
 530 434 l 1,0,-1
EndSplineSet
EndChar

